<?xml version="1.0" encoding="utf-8"?>
<!-- Generator: Adobe Illustrator 22.1.0, SVG Export Plug-In . SVG Version: 6.00 Build 0)  -->
<svg version="1.1" id="Layer_1" xmlns="http://www.w3.org/2000/svg" xmlns:xlink="http://www.w3.org/1999/xlink" x="0px" y="0px"
	 viewBox="0 0 90 90" style="enable-background:new 0 0 90 90;" xml:space="preserve">
<style type="text/css">
	.st0{fill:#F15E3D;}
	.st1{enable-background:new    ;}
	.st2{fill:#FFFFFF;}
	.st3{clip-path:url(#SVGID_2_);fill:#FFFFFF;}
</style>
<circle class="st0" cx="45.3" cy="45" r="45"/>
<g class="st1">
	<path class="st2" d="M32.4,24.3h-2.3v-4.9h-3.4v4.9h-2.3V12.9h2.3v4.6h3.4v-4.6h2.3V24.3z"/>
	<path class="st2" d="M41.1,19.3h-3.6v3h4.2v1.9h-6.5V12.9h6.5v1.9h-4.2v2.7h3.6V19.3z"/>
	<path class="st2" d="M46.4,22.3h4v1.9h-6.3V12.9h2.3V22.3z"/>
	<path class="st2" d="M55,20.3v4h-2.3V12.9h3.9c1.1,0,2,0.3,2.7,1s1,1.6,1,2.7s-0.3,2-1,2.6s-1.6,1-2.8,1H55z M55,18.3h1.6
		c0.4,0,0.8-0.1,1-0.4s0.4-0.7,0.4-1.2c0-0.6-0.1-1-0.4-1.4s-0.6-0.5-1-0.5H55V18.3z"/>
	<path class="st2" d="M62.8,23.2c0-0.4,0.1-0.6,0.3-0.9c0.2-0.2,0.5-0.3,0.9-0.3c0.4,0,0.6,0.1,0.9,0.3c0.2,0.2,0.3,0.5,0.3,0.9
		c0,0.3-0.1,0.6-0.3,0.9c-0.2,0.2-0.5,0.3-0.9,0.3c-0.4,0-0.7-0.1-0.9-0.3C62.9,23.8,62.8,23.5,62.8,23.2z M65,20.8h-1.8l-0.3-7.9
		h2.4L65,20.8z"/>
</g>
<g>
	<g>
		<g>
			<defs>
				<rect id="SVGID_1_" x="0.3" y="1" width="89" height="89"/>
			</defs>
			<clipPath id="SVGID_2_">
				<use xlink:href="#SVGID_1_"  style="overflow:visible;"/>
			</clipPath>
			<path class="st3" d="M52.6,95c-0.1-0.2-0.2-0.5-0.2-0.7c-0.5-3-0.9-6-1.4-9c-0.2-1-0.3-2-0.3-3c0-0.4,0.1-0.9,0.1-1.3
				c0.1-0.6,0.1-1.3,0.4-1.8c0.9-1.8,2.6-3.1,3.5-4.9c0.5-0.9,0.8-2,1.1-3c0.1-0.5,0.3-1,0.4-1.5c0.2-1.5-0.1-3.2,0.7-4.5
				c1.4-2.4,3.5-4.4,5.6-6.2c0.9-0.8,1.7-1.5,2.6-2.3c0.7-0.6,1.3-1.2,1.8-1.9c0.5-0.6,0.8-1.3,1.2-2c0.3-0.5,0.3-1.1,0.2-1.7
				c-0.1-0.7-0.9-1-1.6-0.9s-1.2,0.6-1.8,1c-1.5,1.3-3,2.6-4.5,3.8c-1.1,0.9-2.3,1.8-3.5,2.6c-0.3,0.2-0.5,0.4-0.8,0.4
				c-0.1,0-0.1,0-0.2,0c-0.1-0.1-0.1-0.2-0.1-0.3c0-0.9,0.7-1.7,1.4-2.4c0.5-0.6,1-1.2,1.4-1.9s0.7-1.4,1.2-2.1
				c0.3-0.3,0.6-0.6,0.9-1c0.3-0.4,0.6-0.8,0.9-1.2c0.6-0.9,1.2-1.8,1.8-2.6c0.6-0.9,1.2-1.8,1.4-2.8c0.1-0.5,0.2-0.9,0.1-1.4
				s-0.5-0.9-0.9-1c-0.6-0.2-1.2,0.1-1.7,0.5c-0.4,0.3-0.7,0.6-1.1,1c-2.4,2.9-4.9,5.6-7,8.7c-0.6,0.8-1.1,1.7-1.8,2.4
				c-0.1,0.1-0.2,0.2-0.3,0.2c-0.3,0.2-0.8,0-1-0.3s-0.2-0.7-0.2-1.1c0-1.1,0.3-2.2,0.4-3.3c0.2-1.5,0.6-3,0.9-4.6
				c0.2-1,0.2-2,0.4-3s0.6-2,0.7-3c0.2-0.9,0.1-1.9,0.1-2.8c0-0.4,0-0.8-0.2-1.2c-0.3-0.7-1.2-1-2-0.8s-1.4,0.7-1.6,1.5l0,0
				c-0.2,0.5-0.3,1-0.5,1.6c-0.5,1.7-1,3.4-1.3,5.2c-0.6,3.5-2.1,6.8-2.3,10.4c0,0.2-0.3,0.4-0.5,0.3c-0.2,0-0.4-0.2-0.5-0.4
				s-0.1-0.3-0.2-0.5c-0.2-0.8-0.3-1.6-0.3-2.5c-0.1-0.7-0.1-1.5-0.1-2.2s-0.1-1.4-0.1-2.2c-0.1-1.4-0.1-2.9-0.2-4.3
				c0-1-0.1-1.9,0-2.9c0-0.6,0.1-1.2,0-1.9c-0.1-0.6-0.3-1.2-0.9-1.6c-0.6-0.5-1.6-0.4-2.2,0.2c-0.3,0.4-0.5,0.9-0.7,1.4
				c-0.2,0.6-0.4,1.2-0.4,1.8c-0.1,0.5,0,1,0,1.5c0,1.2-0.3,2.3-0.4,3.5c-0.1,1.2-0.1,2.5-0.2,3.7c-0.1,2,0.1,4,0.1,6.1
				c0,2.2-0.3,4.5-0.8,6.6c-0.2,0.7-0.4,1.4-0.8,2.1c-0.4,0.6-0.9,1.2-1.6,1.4c-0.9,0.3-2,0-2.8-0.6s-1.5-1.3-2.2-2
				c-0.5-0.5-0.8-0.8-1.3-1.3c-0.3-0.3-0.7-0.6-1-0.9c-0.3-0.3-0.6-0.6-1-0.8c-0.5-0.3-0.9-0.6-1.4-0.8c-0.4-0.2-0.7-0.3-1.1-0.3
				c-0.4-0.1-0.8-0.1-1.2-0.1c-0.3,0-0.7,0.1-1,0.2c-0.3,0.2-0.6,0.5-0.6,0.8s0.2,0.5,0.3,0.7c0.3,0.5,0.9,1,1.3,1.3
				c0.4,0.4,0.8,0.7,1.2,1.1c0.2,0.2,0.4,0.4,0.5,0.6c0.2,0.3,0.4,0.5,0.6,0.7c1.1,1.1,2.1,2.3,2.9,3.6c0.3,0.6,1,1.4,1.3,2
				c0.5,0.9,0.6,1,1.1,1.6c0.6,0.8,1,1.3,1.6,2c0.8,0.9,1.6,1.9,2.4,2.8c0.3,0.4,0.6,0.7,1,1.1s0.9,0.8,1.3,1.1
				c0.8,0.6,1.6,1.2,2.4,1.9c0.7,0.5,1,1.4,1.4,2.1c0.2,0.3,0.4,0.7,0.5,1c0.1,0.4,0.2,0.9,0.2,1.3c0.2,1.8,0.4,3.7,0.7,5.5
				c0.1,0.5,0.1,1.1,0.2,1.6c0.1,0.5,0.1,1,0.2,1.5c0.2,2.1,0.4,4.1,0.5,6.2c3.1-0.3,6.2-0.5,9.2-1C52.8,95.5,52.7,95.3,52.6,95z"/>
		</g>
	</g>
</g>
</svg>
