<?xml version="1.0" encoding="utf-8"?>
<!-- Generator: Adobe Illustrator 22.0.1, SVG Export Plug-In . SVG Version: 6.00 Build 0)  -->
<svg version="1.1" id="Layer_1" xmlns="http://www.w3.org/2000/svg" xmlns:xlink="http://www.w3.org/1999/xlink" x="0px" y="0px"
	 viewBox="0 0 200 200" style="enable-background:new 0 0 200 200;" xml:space="preserve">
<style type="text/css">
	.st0{fill:#34C0C1;}
</style>
<g>
	<circle class="st0" cx="62.5" cy="100" r="50"/>
	<g>
		<path d="M118,69.8c6.9,0,12.5-5.6,12.5-12.5v-6.2c0-5.7-4.7-10.4-10.4-10.4h-4.2c-5.7,0-10.4,4.7-10.4,10.4v6.2
			C105.5,64.2,111.1,69.8,118,69.8L118,69.8z M109.7,51.1c0-3.4,2.8-6.3,6.3-6.3h4.2c3.4,0,6.2,2.8,6.2,6.3v6.2
			c0,4.6-3.7,8.3-8.3,8.3c-4.6,0-8.3-3.7-8.3-8.3L109.7,51.1L109.7,51.1z M109.7,51.1"/>
		<path d="M120.1,99h-4.2c-5.7,0-10.4,4.7-10.4,10.4v6.3c0,6.9,5.6,12.5,12.5,12.5c6.9,0,12.5-5.6,12.5-12.5v-6.3
			C130.5,103.7,125.8,99,120.1,99L120.1,99z M126.3,115.7c0,4.6-3.7,8.3-8.3,8.3c-4.6,0-8.3-3.7-8.3-8.3v-6.3c0-3.4,2.8-6.2,6.3-6.2
			h4.2c3.4,0,6.2,2.8,6.2,6.2V115.7z M126.3,115.7"/>
		<path d="M124.2,80.3v6.2c0,6.9,5.6,12.5,12.5,12.5c6.9,0,12.5-5.6,12.5-12.5v-6.2c0-5.7-4.7-10.4-10.4-10.4h-4.2
			C128.9,69.8,124.2,74.5,124.2,80.3L124.2,80.3z M128.4,80.3c0-3.4,2.8-6.2,6.2-6.2h4.2c3.4,0,6.3,2.8,6.3,6.2v6.2
			c0,4.6-3.7,8.3-8.3,8.3c-4.6,0-8.3-3.7-8.3-8.3V80.3z M128.4,80.3"/>
		<path d="M155.5,128.2c6.9,0,12.5-5.6,12.5-12.5v-6.3c0-5.7-4.7-10.4-10.4-10.4h-4.2c-5.7,0-10.4,4.7-10.4,10.4v6.3
			C143,122.6,148.6,128.2,155.5,128.2L155.5,128.2z M147.2,109.4c0-3.4,2.8-6.2,6.2-6.2h4.2c3.4,0,6.2,2.8,6.2,6.2v6.3
			c0,4.6-3.7,8.3-8.3,8.3c-4.6,0-8.3-3.7-8.3-8.3V109.4z M147.2,109.4"/>
		<path d="M124.3,132.4c-0.9,0-1.8,0.6-2.1,1.5L118,148l-4.3-14.2c-0.3-0.9-1.1-1.5-2-1.5c-7.2,0-12.5,1.5-15.6,4.6
			c-2,2-3.1,4.7-3.1,7.8v18.8c0,1.1,0.9,2.1,2.1,2.1c1.1,0,2.1-0.9,2.1-2.1v-18.8c0-2,0.6-3.6,1.9-4.9c2.1-2,5.9-3.2,11.1-3.4
			l5.8,19.3c0.3,0.9,1.1,1.5,2,1.5c0.9,0,1.7-0.6,2-1.5l5.8-19.3c5.3,0.2,9.1,1.3,11.1,3.4c1.3,1.3,1.9,2.9,1.9,4.9v18.8
			c0,1.1,0.9,2.1,2.1,2.1c1.2,0,2.1-0.9,2.1-2.1v-18.8c0-3.1-1.1-5.8-3.1-7.8C136.8,133.9,131.6,132.4,124.3,132.4L124.3,132.4z
			 M124.3,132.4"/>
		<path d="M99.2,99c6.9,0,12.5-5.6,12.5-12.5v-6.2c0-5.7-4.7-10.4-10.4-10.4h-4.2c-5.7,0-10.4,4.7-10.4,10.4v6.2
			C86.7,93.4,92.3,99,99.2,99L99.2,99z M90.9,80.3c0-3.4,2.8-6.2,6.2-6.2h4.2c3.4,0,6.2,2.8,6.2,6.2v6.2c0,4.6-3.7,8.3-8.3,8.3
			c-4.6,0-8.3-3.7-8.3-8.3V80.3z M90.9,80.3"/>
		<path d="M177.4,137c-3.1-3.1-8.3-4.6-15.5-4.6c-0.9,0-1.8,0.6-2.1,1.5l-4.3,14.2l-4.3-14.2c-0.3-0.9-1.1-1.5-2-1.5
			c-1.5,0-2.9,0.1-4.3,0.2c-1.1,0.1-2,1.1-1.9,2.3c0.1,1.1,1.1,2,2.3,1.9c0.7-0.1,1.5-0.1,2.3-0.1l5.8,19.3c0.3,0.9,1.1,1.5,2,1.5
			c0.9,0,1.7-0.6,2-1.5l5.8-19.3c5.3,0.2,9.1,1.3,11.1,3.4c1.3,1.3,1.9,2.9,1.9,4.9v14.6c0,1.1,0.9,2.1,2.1,2.1
			c1.2,0,2.1-0.9,2.1-2.1v-14.6C180.5,141.7,179.4,139,177.4,137L177.4,137z M177.4,137"/>
		<path d="M80.5,128.2c6.9,0,12.5-5.6,12.5-12.5v-6.3c0-5.7-4.7-10.4-10.4-10.4h-4.2c-5.7,0-10.4,4.7-10.4,10.4v6.3
			C68,122.6,73.6,128.2,80.5,128.2L80.5,128.2z M72.2,109.4c0-3.4,2.8-6.2,6.3-6.2h4.2c3.4,0,6.3,2.8,6.3,6.2v6.3
			c0,4.6-3.7,8.3-8.3,8.3c-4.6,0-8.3-3.7-8.3-8.3V109.4z M72.2,109.4"/>
		<path d="M91.1,132.6c-1.3-0.1-2.8-0.2-4.3-0.2c-0.9,0-1.8,0.6-2.1,1.5L80.5,148l-4.3-14.2c-0.3-0.9-1.1-1.5-2-1.5
			c-7.4,0-12.5,1.5-15.6,4.6c-2,2-3.1,4.7-3.1,7.8v14.6c0,1.1,0.9,2.1,2.1,2.1c1.1,0,2.1-0.9,2.1-2.1v-14.6c0-2,0.6-3.6,1.9-4.9
			c2.1-2,5.9-3.2,11.1-3.4l5.8,19.3c0.3,0.9,1.1,1.5,2,1.5c0.9,0,1.7-0.6,2-1.5l5.8-19.3c0.8,0,1.6,0.1,2.4,0.2
			c1.2,0.1,2.2-0.7,2.3-1.9C93.1,133.7,92.3,132.7,91.1,132.6L91.1,132.6z M91.1,132.6"/>
	</g>
	<g>
		<path d="M52.2,93.1c-0.2,0.2-0.3,0.4-0.3,0.7c0,0.2,0,0.4,0,0.6c0.1,0.1,0.1,0.2,0.2,0.3c0.1,0.1,0.1,0.2,0,0.3
			c-0.1,0.3-0.2,0.5-0.3,0.7c0,0.2,0,0.3,0.1,0.5c0,0.3,0,0.5,0,0.7c0,0.2-0.1,0.3-0.1,0.4s-0.1,0.3-0.1,0.4c0,0.1,0,0.3,0.1,0.5
			c-0.1,0.2-0.2,0.3-0.2,0.5c0,0.1-0.1,0.2-0.2,0.3c0,0.1,0,0.3-0.1,0.4c-0.1,0.1-0.1,0.3,0,0.5c-0.1,0-0.2,0.1-0.1,0.2
			c0,0.1,0,0.2,0,0.4l-0.4,0.7c-0.4,0.3-0.6,0.7-0.6,1.1c-0.2,0-0.3,0.1-0.4,0.2c-0.1,0.1-0.2,0.2-0.3,0.3c0.1,0.2,0,0.3-0.1,0.3
			c-0.1,0-0.2,0.1-0.2,0.3c-0.2,0-0.3,0-0.4,0.1c-0.1,0-0.2,0.1-0.4,0.2c-0.1,0.2-0.2,0.3-0.3,0.4c-0.1,0-0.2,0.1-0.2,0.3
			c-0.6,0.2-1.1,0.4-1.4,0.5s-0.6,0.2-1,0.4c-0.3,0.1-0.6,0.2-1,0.4c-0.3,0.1-0.7,0.2-1.1,0.2c-0.8,0.2-1.6,0.4-2.4,0.6
			c-0.8,0.2-1.4,0.5-1.9,0.8c-0.7,0.2-1.3,0.5-1.8,0.9c-0.5,0.3-1,0.7-1.5,1.1c-0.1,0-0.2,0-0.3,0c-0.1,0-0.3,0.1-0.4,0.2
			c-0.3,0.2-0.4,0.5-0.6,0.8c-0.1,0.3-0.3,0.6-0.6,0.8c0,0.2,0,0.3,0,0.3c-0.1,0.1-0.1,0.2-0.2,0.3c-0.1,0.3-0.1,0.5-0.2,0.6
			c-0.1,0-0.1,0.1-0.2,0.1c0,0.3,0,0.6-0.1,0.9c-0.1,0.2-0.1,0.5,0,0.7c0.2-0.1,0.5-0.2,0.8-0.3c0.3-0.1,0.5-0.2,0.7-0.4
			c0.2,0.1,0.4,0.1,0.6,0.2s0.5,0,0.8,0c0.3,0,0.5,0,0.8,0.1c0.3,0,0.5,0.1,0.7,0.3c-0.1-0.2,0-0.2,0.2-0.1c0.2,0.1,0.3,0.2,0.4,0.2
			c0.4,0,0.8,0,1.1,0.1s0.7,0.2,1,0.3c0.3-0.1,0.6,0,0.8,0.1c0.2,0.1,0.5,0.1,0.8-0.1c0.2,0.2,0.6,0.2,1,0.1c0.4-0.1,0.7,0,0.9,0.3
			c0.2,0,0.4,0,0.6,0s0.3,0,0.5,0.1c0.5,0,0.9-0.1,1.4-0.2c0.5-0.1,0.9-0.2,1.3-0.4c0.4-0.2,0.7-0.3,1-0.4c0.3-0.1,0.6-0.3,0.8-0.6
			c0.4-0.4,0.7-0.9,0.7-1.2s0.1-0.8,0.1-1.2s0-0.8,0-1.2s0-0.8,0.1-1.1c0.3-0.1,0.6-0.1,0.8,0c-0.1,0.5,0,0.9,0.1,1.3
			c0.1,0.4,0.2,0.9,0.1,1.4c-0.1,0.5-0.1,0.9-0.2,1.3s-0.1,0.8-0.3,1.2c0.1,0.4,0.1,0.7,0,0.8c-0.1,0.1-0.1,0.3,0,0.4
			c-0.1,0.1-0.1,0.1-0.2,0.2c-0.1,0.1-0.1,0.2-0.2,0.3c0.3,0.2,0.4,0.3,0.4,0.4s-0.1,0.1-0.1,0.1c0.2,0.2,0.2,0.4,0,0.4
			s-0.2,0.2-0.2,0.4c-0.1,0.2-0.2,0.3-0.3,0.3c-0.1,0-0.2,0-0.2,0c-0.1,0.1-0.2,0.2-0.2,0.3s0,0.2,0,0.4c-0.1,0-0.2,0.1-0.2,0.2
			s-0.1,0.2-0.1,0.3c0,0.1-0.1,0.2-0.1,0.3s-0.1,0.1-0.2,0.1c0.1,0.3,0,0.5-0.2,0.6c-0.2,0.1-0.4,0.3-0.5,0.5
			c-0.4,0.3-0.7,0.6-1.1,0.8c-0.3,0.2-0.7,0.4-1,0.7c-0.3,0-0.5,0.1-0.5,0.1c-0.1,0-0.1,0.1-0.2,0.1c-0.1,0.1-0.1,0.1-0.2,0.1
			c-0.1,0-0.1,0-0.2-0.2c-0.1,0.1-0.2,0.2-0.4,0.2c-0.2,0-0.4,0-0.5-0.1c-0.2,0.2-0.3,0.2-0.4,0.3c-0.1,0-0.3,0.1-0.4,0.2
			c-0.2-0.2-0.4-0.3-0.6-0.6c-0.2-0.2-0.4-0.4-0.6-0.5c-0.3,0.2-0.5,0.2-0.7,0c-0.2-0.2-0.3-0.3-0.2-0.5c-0.4,0.1-0.7,0.1-0.7,0
			c0-0.1-0.1-0.2-0.2-0.3c0-0.5-0.1-0.7-0.1-0.8c-0.1,0-0.1-0.1-0.2-0.1c-0.1,0-0.2,0.1-0.3,0.2s-0.1,0.1-0.3,0.1
			c-0.1-0.2-0.2-0.3-0.2-0.5c0-0.2,0-0.4,0.2-0.4c-0.3-0.7-0.5-1.3-0.8-1.9c-0.3-0.6-0.8-1.1-1.4-1.4c-0.1-0.2-0.2-0.3-0.3-0.3
			c-0.1,0-0.2-0.1-0.4-0.1c-0.2-0.2-0.5-0.2-0.8-0.1c-0.3,0.1-0.6,0-0.8-0.1c-0.5,0.1-0.8,0.2-0.9,0.4c-0.1,0.1-0.3,0.2-0.5,0.1
			c0.1,0.2,0.1,0.3-0.1,0.4c-0.2,0.1-0.4,0.3-0.5,0.4c-0.2,0.3-0.3,0.5-0.4,0.8s-0.1,0.5-0.2,0.8c0,0.3,0,0.6,0,1c0,0.3,0,0.7,0,1
			c-0.2,0.1-0.5,0.2-0.8,0.3c0-0.2-0.1-0.3-0.1-0.3c-0.1,0-0.1-0.1-0.2-0.3c0.1-0.7,0.1-1.4,0-2.3c-0.1-0.9,0-1.6,0.3-2.2
			c-0.1-0.5-0.1-1,0.1-1.5c0.2-0.5,0.3-0.9,0.4-1.4c0.2-0.2,0.3-0.3,0.4-0.6s0.1-0.4,0-0.6c0.1-0.3,0.2-0.6,0.4-0.8
			c0.2-0.2,0.4-0.4,0.6-0.6c0.2-0.2,0.4-0.4,0.6-0.6s0.3-0.4,0.4-0.7c0.2-0.2,0.5-0.5,0.8-0.7c0.2-0.2,0.5-0.4,0.8-0.6
			c0.3-0.2,0.5-0.3,0.7-0.5s0.4-0.3,0.5-0.5c0.9-0.4,1.8-0.8,2.7-1.3s1.7-1.1,2.5-1.7c0.2-0.3,0.3-0.5,0.2-0.5c-0.1,0-0.1,0,0-0.1
			c0.2-0.3,0.5-0.6,0.8-0.9c0.3-0.3,0.5-0.7,0.6-1.2c-0.1-0.4-0.1-0.8,0-1.1s0.2-0.6,0.3-0.8c0.3-1.1,0.5-2.1,0.4-3c0-1,0-2,0-3.2
			c-0.2-0.4-0.3-0.8-0.2-1c0.1-0.2,0.1-0.5,0.1-0.8c-0.3-0.4-0.5-0.8-0.6-1.2c0-0.4-0.2-0.7-0.6-0.8c0.1-0.1,0.1-0.2,0-0.3
			c-0.1-0.1-0.2-0.3-0.1-0.5c-0.1-0.1-0.2-0.2-0.2-0.4c0-0.2-0.1-0.3-0.2-0.4c-0.2-0.1-0.4-0.2-0.8-0.5c-0.3-0.2-0.7-0.4-1.1-0.4
			c-0.4,0.2-0.8,0.2-1.3,0s-0.9-0.1-1.3,0c-0.2,0.2-0.4,0.3-0.6,0.4c-0.3,0.1-0.5,0.2-0.8,0.3c-0.3,0.1-0.5,0.2-0.7,0.3
			c-0.2,0.1-0.4,0.3-0.5,0.5C36,87,35.5,87.3,35,87.8c-0.4,0.5-0.9,0.9-1.3,1.2c0.1,0,0.2,0.1,0.1,0.2c0,0.1-0.1,0.2-0.3,0.3
			c-0.2,0.1-0.4,0.3-0.6,0.5c-0.2,0.2-0.4,0.4-0.5,0.7c0,0.3-0.1,0.5-0.2,0.7C32.1,91.5,32,91.8,32,92c0,0.5,0,0.9,0.1,1.4
			c0.1,0.5,0.4,0.7,0.9,0.8c1.4,0,2.5,0.4,3.3,1.1c0.8,0.7,1.3,1.6,1.6,2.6c-0.3,0.4-0.5,0.8-0.7,1.2c-0.2,0.4-0.5,0.8-0.7,1.2
			c-0.4,0.3-0.8,0.6-1.1,0.6c-0.3,0.1-0.6,0.1-1.1,0.2c-0.9-0.4-1.6-1-2-1.8c-0.5-0.8-0.9-1.6-1.2-2.6c0.2-0.3,0.2-0.6,0.1-1
			c-0.1-0.4-0.2-0.7-0.3-1.1c0.2-0.8,0.3-1.7,0.4-2.5c0.1-0.8,0.4-1.6,0.8-2.2c0.4-0.3,0.7-0.7,0.9-1.1c0.2-0.4,0.5-0.8,0.9-1.1
			c0.2-0.2,0.5-0.5,0.8-0.7c0.3-0.2,0.5-0.4,0.7-0.7c0.7-0.3,1.4-0.7,2-1c0.6-0.4,1.3-0.7,2.1-0.9c0.6,0.1,1.1,0.1,1.6,0
			c0.5-0.1,1-0.1,1.5,0c0.2,0,0.3,0.1,0.5,0.2c0.2,0.1,0.3,0.1,0.5,0.1c0.1,0,0.3,0,0.4,0c0.2,0,0.3,0,0.5,0c0.2,0,0.5,0.1,0.7,0.1
			c0.2,0,0.5,0,0.8-0.1c0.2,0.1,0.3,0.1,0.3,0.1c0,0,0.1,0,0.2,0c0.3,0.2,0.6,0.4,0.9,0.7c0.3,0.2,0.6,0.4,1,0.6
			c0,0.3,0,0.5,0.1,0.7c0.1,0.2,0.3,0.3,0.5,0.4c0.2,0.5,0.4,0.8,0.5,1c0.2,0.2,0.3,0.4,0.6,0.5c-0.1,0.3-0.1,0.5,0,0.6
			c0.1,0.1,0.1,0.2,0.2,0.3c0.1,0.1,0.2,0.2,0.2,0.3c0,0.1,0,0.2-0.1,0.3c0,0.2,0.1,0.3,0.2,0.4c0.1,0.1,0.1,0.2,0,0.3
			c0.1,0.1,0.2,0.1,0.3,0.2c0.1,0,0.2,0.1,0.4,0.1c0,0.3-0.2,0.5-0.4,0.6c0.2,0.2,0.3,0.4,0.4,0.6s0.2,0.5,0.3,0.8
			c0.1,0.3,0.1,0.4,0.2,0.4C52,93.1,52.1,93.1,52.2,93.1z M32.1,94.6c-0.2,0-0.3,0.1-0.3,0.2s0,0.3,0.1,0.4c0-0.1,0.1-0.2,0.1-0.3
			C32.1,94.8,32.1,94.7,32.1,94.6z M32.6,95.9c-0.3,0-0.4,0.2-0.3,0.5c0.2,0,0.2,0,0.3-0.1C32.6,96.1,32.6,96,32.6,95.9z M33.4,97.6
			c-0.2,0-0.4,0-0.5,0c-0.2,0.1-0.2,0.2-0.2,0.3c0.1-0.1,0.1-0.1,0.3,0c0.1,0,0.2,0,0.3,0L33.4,97.6z M36.5,97.2
			c-0.2,0.1-0.3,0.1-0.4,0.2c-0.1,0-0.2,0.1-0.2,0.2c-0.2,0-0.3,0-0.4,0c-0.1,0-0.1,0.1-0.1,0.2c0-0.2,0.1-0.3,0.2-0.4
			c0.1-0.1,0.2-0.3,0.2-0.5c-0.3,0-0.5-0.1-0.6-0.1c-0.2,0.2-0.2,0.3-0.2,0.3c0.1,0,0.1,0.1,0.1,0.2C35.1,97.1,35,97,35,97
			s-0.1-0.1-0.1-0.2c0,0.3-0.1,0.5-0.2,0.6c-0.1,0.2-0.2,0.3-0.4,0.4c-0.2,0.1-0.3,0.2-0.5,0.2s-0.3,0.1-0.4,0
			c-0.1,0.3-0.2,0.5-0.3,0.5s-0.1,0.1,0,0.3c0.1,0,0.2,0.1,0.2,0.2c0,0.1,0.1,0.2,0.2,0.2c0.2-0.2,0.3-0.3,0.6-0.3
			c0.1,0.3,0.1,0.5,0,0.5s-0.1,0.1-0.1,0.3c0.3,0,0.5,0,0.7-0.2c0.2-0.2,0.3-0.2,0.6-0.2c0.1-0.1,0.2-0.2,0.3-0.4
			c0.2-0.2,0.3-0.2,0.5-0.2c0.2-0.2,0.4-0.5,0.6-0.7S36.8,97.5,36.5,97.2z M34.1,96.9c-0.1,0.1-0.2,0.1-0.3,0.3
			c-0.1,0.1-0.2,0.1-0.3,0.1c0.2,0,0.3,0,0.5,0C34.2,97.2,34.2,97.1,34.1,96.9z M34.7,95.4c-0.2-0.2-0.4-0.2-0.6,0
			c-0.2,0.1-0.3,0.3-0.3,0.4c0.2,0.1,0.3,0,0.4-0.1S34.6,95.5,34.7,95.4z M36,96.3c0-0.3-0.2-0.4-0.6-0.4c-0.3,0.1-0.6,0.2-0.8,0.4
			c-0.2-0.1-0.3-0.1-0.4,0c-0.1,0.1-0.2,0.2-0.2,0.4c0.2,0,0.2,0.1,0.3,0.2c0,0.1,0,0.2-0.2,0.3c0.1,0,0.2-0.1,0.3-0.2
			c0.1-0.1,0.3-0.2,0.4-0.3s0.3-0.2,0.4-0.2c0.1,0,0.3,0,0.4,0.1L36,96.3z M35.2,97.9c-0.2,0.2-0.3,0.3-0.4,0.3c-0.1,0-0.2,0-0.3,0
			c0.1,0.2,0.1,0.4,0,0.5c-0.1,0-0.2-0.1-0.1-0.3c0-0.2,0.1-0.3,0-0.5c0.2,0.1,0.3,0,0.4-0.1C35,97.8,35.1,97.8,35.2,97.9z
			 M36.1,99.1c-0.1,0.1-0.2,0.2-0.3,0.3s-0.2,0.2-0.3,0.2c-0.1,0.1-0.2,0.1-0.2,0.2c-0.1,0.1-0.1,0.2,0,0.3c0.2-0.1,0.4-0.2,0.5-0.4
			C35.9,99.6,36.1,99.4,36.1,99.1z M38.7,105.9c-0.2,0.2-0.4,0.2-0.5,0.1s-0.2,0-0.2,0.1c0.1,0.1,0.2,0.1,0.4,0
			C38.6,106,38.7,106,38.7,105.9z M50.9,94.4c-0.1-0.1-0.3-0.1-0.8,0c0-0.2,0.1-0.3,0.2-0.4c0.1-0.1,0.2-0.2,0.3-0.4
			c0-0.5,0-0.8,0-0.9c-0.1-0.1-0.1-0.2-0.2-0.4c-0.3,0-0.4,0-0.5,0c-0.1,0-0.2-0.1-0.4-0.1c0.2,0,0.3-0.1,0.4-0.2
			c0.1-0.1,0.1-0.2-0.1-0.4c-0.1-0.1-0.1-0.2-0.1-0.3c0-0.1,0.1-0.2,0.1-0.3C49.7,91,49.6,91,49.5,91s-0.3,0.1-0.4,0.1
			c0.1-0.2,0.1-0.4,0.3-0.5c0.1-0.1,0.1-0.2,0-0.3c0-0.4,0-0.5-0.1-0.5s-0.2,0-0.2-0.1c0-0.2,0-0.4,0-0.5C48.9,89,48.8,89,48.6,89
			c0.2-0.4,0.2-0.6,0-0.6c-0.2,0-0.3,0-0.4,0c-0.2-0.5-0.3-0.8-0.5-0.9c-0.2,0.2-0.4,0.2-0.6,0.1c0-0.2,0-0.4,0-0.5
			c0-0.1-0.1-0.2-0.1-0.3c-0.1,0.1-0.1,0.1-0.1,0.3c0,0.1,0,0.2-0.1,0.3c-0.2,0.1-0.4,0.2-0.6,0.3c-0.2,0-0.3,0.2-0.4,0.4
			c0.4-0.1,0.8-0.3,1.1-0.6c-0.1,0.1-0.1,0.2-0.2,0.3c-0.1,0.1-0.2,0.1-0.4,0.1c0.1,0.3,0.1,0.5,0.1,0.5c0,0-0.1,0-0.3,0
			c-0.1,0.3-0.2,0.5-0.2,0.7c0,0.2,0,0.4,0.1,0.6c0.3,0.2,0.5,0.3,0.4,0.2c0-0.1,0-0.1,0.1-0.1c-0.2,0.3-0.2,0.6-0.1,0.7
			c0.1,0.1,0.1,0.2-0.1,0.3c0,0.2,0,0.4-0.1,0.5c-0.1,0.1-0.1,0.3-0.1,0.5c0.4,0,0.6,0,0.6,0c0,0,0.1,0,0.2-0.1
			c0.2,0.3,0.4,0.4,0.4,0.3c0-0.1,0.1-0.1,0.2-0.1c0,0.1,0.1,0.1,0.2,0.1c0.1,0,0.2,0,0.2,0c0.1,0,0.2-0.1,0.2-0.1
			c0.1,0,0.1,0,0.2,0c-0.3,0.3-0.4,0.4-0.4,0.3c0,0,0,0-0.1,0c-0.2,0.1-0.4,0.2-0.5,0.3c-0.1,0.2-0.2,0.2-0.4,0.1
			c-0.2-0.2-0.4-0.1-0.6,0.1c-0.2,0.2-0.2,0.4-0.1,0.7c0.2,0.2,0.5,0.2,0.6,0.2c0.2,0,0.3-0.1,0.3-0.2c0.3-0.1,0.5-0.2,0.5-0.1
			c0,0.3,0,0.5,0,0.7c0.1-0.1,0.2-0.2,0.3-0.2c0.1,0,0.2-0.1,0.4-0.1c0-0.2,0-0.4,0.1-0.5c0.1-0.1,0.2-0.2,0.2-0.4
			c0.1,0.1,0.2,0.1,0.4,0.1c0.1,0,0.2-0.1,0.1-0.3c0.2,0.3,0.3,0.4,0.3,0.4c0,0-0.1,0.1-0.2,0.1c0,0.1-0.2,0.1-0.5,0.1
			c-0.2,0.3-0.3,0.4-0.4,0.5c-0.1,0.1-0.3,0.1-0.5,0.2c0.1,0.3,0,0.4-0.1,0.5c-0.1,0.1-0.3,0.1-0.5,0.1c-0.1-0.2,0-0.3,0.1-0.3
			c0.2,0,0.2-0.1,0.2-0.3c-0.3,0-0.6,0-0.7,0c-0.1,0-0.2,0.1-0.3,0.1c-0.3,0.3-0.4,0.5-0.4,0.5c0,0.1,0,0.1,0,0.2
			c0.1,0,0.2-0.1,0.4-0.1c0.2,0,0.3,0,0.3,0.1c-0.2,0.2-0.3,0.3-0.4,0.4c-0.1,0.1-0.1,0.2-0.2,0.3c0.2,0.1,0.4,0.2,0.7,0.2
			c0.2,0,0.4,0.1,0.4,0.2c-0.3,0-0.4,0.1-0.5,0.2c-0.1,0.1-0.2,0.1-0.3,0c-0.4,0.1-0.5,0.2-0.4,0.2c0.1,0,0.1,0.1,0.1,0.3
			c-0.3,0.2-0.5,0.3-0.5,0.4c0,0.1-0.1,0.1-0.2,0.2c0.1,0.3,0.1,0.4,0.2,0.5c0.1,0,0.2,0.1,0.4,0.1c-0.1,0.4-0.2,0.6-0.2,0.7
			c0,0.1,0,0.2-0.2,0.3c-0.2,0.2-0.3,0.3-0.4,0.5c0,0.1,0,0.3,0,0.4c0.1,0,0.2,0,0.3-0.1c0-0.1,0.1-0.1,0.2-0.2
			c-0.3,0.2-0.4,0.4-0.5,0.4c-0.1,0.1-0.1,0.1-0.2,0.2c0,0.4,0,0.6,0.1,0.6c0.1,0,0.1,0,0,0.1c-0.2,0.3-0.3,0.4-0.4,0.4
			c0-0.1-0.1-0.1-0.1,0c0,0.1,0.1,0.2,0.2,0.3c0.1,0.1,0.1,0.2,0.2,0.3c-0.3,0-0.4-0.1-0.3-0.2c0-0.1,0-0.2-0.2-0.3
			c0,0.2,0,0.3,0.1,0.4c0.1,0.1,0.1,0.2,0.1,0.3c-0.3,0.2-0.5,0.3-0.5,0.4c-0.1,0.1-0.1,0.2-0.2,0.3s-0.1,0.2-0.2,0.3
			c-0.1,0.1-0.2,0.1-0.4,0.1c0,0.2-0.2,0.4-0.4,0.4c-0.2,0-0.4,0.1-0.6,0.3c-0.7,0.6-1.4,1.1-2,1.4s-1.2,0.6-1.7,1
			c0.4,0.1,0.7,0,1-0.2s0.5-0.3,0.9-0.3c0.1-0.2,0.3-0.3,0.5-0.3s0.5,0,0.7-0.1c0-0.1,0.1-0.2,0.3-0.3s0.3-0.1,0.5-0.1
			c0.1,0.2,0.3,0.2,0.5,0.2c0.3,0,0.5-0.1,0.6-0.1c0.4-0.1,0.7-0.2,1.1-0.3c0.4-0.2,0.7-0.3,1-0.3c-0.3-0.2-0.4-0.4-0.4-0.3
			c0,0-0.1,0-0.2,0c0-0.2,0-0.2,0.1-0.3s0.2-0.1,0.3-0.1c0.2-0.4,0.4-0.7,0.5-0.9c0.3-0.3,0.4-0.5,0.4-0.5c0-0.1,0-0.1,0-0.2
			c0.3,0,0.5,0,0.5,0.1c0,0.1,0.1,0.1,0.2,0.1c0-0.1,0-0.2,0.1-0.3c0.1,0,0.1-0.1,0.1-0.2c0.1,0.1,0.1,0.1,0.2,0.3
			c0.1,0.1,0.2,0.2,0.3,0.3c0-0.1,0.1-0.2,0.1-0.3c0,0,0-0.1,0-0.3c0.2-0.2,0.3-0.3,0.4-0.3c0.1,0,0.2-0.1,0.4-0.1
			c0.1,0,0.2-0.1,0.3-0.2s0.1-0.2,0.1-0.5c0.7-0.9,1-1.8,1.1-2.6S50.9,95.5,50.9,94.4z M41.3,114.7c-0.2,0-0.4-0.1-0.5-0.1
			c-0.2,0-0.3,0-0.4,0.2c0.1,0.3,0.1,0.5,0,0.5c-0.2-0.1-0.3-0.1-0.3-0.1s-0.1,0.1-0.1,0.2c0,0.1-0.1,0.2-0.1,0.3
			c0,0.1-0.1,0.1-0.2,0.1c0,0.1,0,0.2,0.1,0.3c0.1,0.1,0.2,0.2,0.2,0.3c0.1,0.1,0.1,0.2,0.2,0.3c0,0.1,0,0.2-0.1,0.3
			c0.2,0,0.3,0,0.4-0.1c0-0.1,0.1,0,0.2,0.1c0-0.4,0-0.7-0.1-0.8c-0.1-0.1-0.1-0.3-0.2-0.5C40.7,115.4,41.1,115.1,41.3,114.7z
			 M44.4,115.2c-0.2,0-0.3,0-0.5,0c-0.2,0-0.3-0.1-0.4-0.2c-0.2,0.1-0.3,0.2-0.4,0.3s-0.2,0.3-0.4,0.3c-0.1,0.2-0.3,0.4-0.5,0.5
			c-0.2,0.1-0.3,0.3-0.2,0.4c-0.3,0.1-0.4,0.2-0.5,0.2s-0.1,0.1-0.1,0.1c0.4,0,0.6,0.1,0.5,0.2c-0.1,0.1-0.2,0.2-0.3,0.3
			s-0.3,0.2-0.4,0.4c-0.1,0.1-0.1,0.3-0.1,0.5c0.2,0,0.3-0.1,0.4-0.2s0.1-0.2,0.3-0.3c0.1-0.2,0.2-0.3,0.3-0.3c0.1,0,0.2,0,0.3,0.1
			c0-0.2-0.1-0.2-0.2-0.3c-0.1,0-0.2-0.1-0.2-0.3c0.1-0.2,0.2-0.4,0.2-0.4s0.1-0.1,0.2-0.1c0.3-0.2,0.5-0.4,0.5-0.4
			c0.2-0.2,0.4-0.4,0.7-0.6S44.3,115.4,44.4,115.2z M44.1,117.9c-0.3,0-0.6,0-0.8,0c-0.2,0-0.3,0.1-0.4,0.3c-0.1,0-0.2,0-0.3,0
			c-0.1,0-0.2,0-0.3,0c0.1,0.3,0.1,0.5,0.1,0.5c0,0,0,0.1-0.1,0.1c0.2-0.1,0.3-0.2,0.3-0.3c0-0.1,0-0.1,0.1-0.1c0.3,0,0.6,0,0.8,0
			c0.1-0.1,0.1-0.3,0.2-0.4C43.8,118,43.9,117.9,44.1,117.9z M46.5,116.9c-0.2-0.1-0.3-0.1-0.4,0c-0.1,0-0.2,0.1-0.3,0.1
			c-0.2,0.2-0.3,0.2-0.2,0.3c0,0,0,0.1,0,0.2c-0.2,0.1-0.3,0.1-0.4,0.2c-0.1,0.1-0.3,0.1-0.5,0c-0.1,0.3-0.2,0.5-0.3,0.4
			c-0.1,0,0,0,0,0.2c-0.2,0.3-0.4,0.5-0.5,0.4c-0.2,0-0.3,0-0.3,0.1c-0.2,0.2-0.2,0.4-0.2,0.4c0,0,0,0.1,0,0.1c-0.1,0-0.2,0-0.4,0
			c-0.1,0-0.2,0-0.2,0.2c0.2,0.2,0.4,0.3,0.5,0.3c0.1,0,0.1,0.1,0.2,0.1c0.1-0.2,0.2-0.2,0.3-0.2s0.2,0,0.3-0.2
			c0.2-0.4,0.4-0.7,0.7-0.8c0.2-0.1,0.4-0.4,0.5-0.6c0.3-0.2,0.5-0.5,0.6-0.6s0.2-0.3,0.2-0.4L46.5,116.9z M46.8,115.3
			c-0.3-0.1-0.5-0.1-0.7-0.2s-0.3-0.1-0.4,0.1c-0.3-0.1-0.5-0.2-0.6-0.2s-0.2,0-0.2,0.1c0,0.4,0,0.6-0.1,0.6s0,0.1,0,0.3
			c-0.3,0-0.4,0-0.4,0.2s-0.1,0.3-0.3,0.4c-0.3,0.1-0.4,0.2-0.4,0.3s-0.1,0.2-0.2,0.2c0.1,0.2,0,0.3,0,0.4s-0.1,0.1,0,0.2
			c0.3-0.1,0.5-0.2,0.4-0.2c0,0,0-0.1,0.1-0.1l0.5-0.4c0-0.1,0-0.3,0-0.5c0-0.2,0.2-0.2,0.4,0c-0.1,0.1-0.2,0.2-0.3,0.3
			s-0.1,0.2-0.2,0.4c0.2,0.1,0.3,0.1,0.4,0s0.2-0.1,0.4-0.1c-0.2-0.1-0.3-0.2-0.3-0.3s0-0.2,0-0.3c0.2,0,0.3-0.1,0.4-0.2
			c0.1-0.1,0.1-0.2,0-0.3c0.3-0.3,0.5-0.4,0.6-0.5c0.1,0,0.2-0.1,0.5-0.1H46.8z M46.4,102c0.1,0.1,0.1,0.2-0.1,0.3
			c-0.2,0.1-0.2,0.2,0,0.3c-0.3-0.1-0.4-0.1-0.5-0.1c0,0-0.1,0-0.1,0.1c0,0.1,0,0.2-0.1,0.2c-0.1,0-0.3,0.1-0.4,0.1
			c-0.1,0.2-0.2,0.4-0.2,0.6c-0.1,0-0.2,0-0.4,0c-0.2,0-0.3,0.1-0.3,0.2c-0.3-0.2-0.4-0.3-0.3-0.4s0-0.1-0.1-0.3
			c0.4,0,0.6,0,0.5-0.1s-0.1-0.2-0.1-0.3c0.2-0.1,0.3-0.2,0.6-0.1c0.2,0.1,0.4,0,0.4-0.3c0.1,0,0.2,0,0.3-0.1s0.1-0.2,0-0.3
			c0.3,0.1,0.4,0.1,0.4,0S46.3,102,46.4,102z M45.3,85.5c-0.2-0.1-0.3-0.1-0.5,0c-0.2,0.1-0.4,0.1-0.5,0c0,0.2,0.1,0.3,0.2,0.4
			c0.2,0.1,0.2,0.2,0.2,0.4c0.2-0.2,0.3-0.4,0.4-0.4S45.3,85.6,45.3,85.5z M46.5,86.8c-0.2,0-0.3,0-0.4,0.1
			c-0.1,0.1-0.2,0.2-0.4,0.2c-0.3-0.2-0.4-0.2-0.4,0c0,0.2-0.1,0.3-0.2,0.4c0.3-0.1,0.5-0.1,0.5-0.1c0.2-0.1,0.4-0.2,0.5-0.3
			C46.4,87,46.5,86.9,46.5,86.8z M45.8,86.2c-0.1-0.1-0.2-0.1-0.3,0c-0.1,0.1-0.1,0.2-0.1,0.3c0.2,0,0.3-0.1,0.4-0.1
			C45.8,86.4,45.8,86.3,45.8,86.2z M49.7,114.8c-0.3,0.3-0.5,0.5-0.7,0.4c-0.3,0.5-0.5,0.7-0.6,0.8c-0.2,0-0.3,0.1-0.4,0.1
			c-0.2,0.3-0.3,0.5-0.4,0.6c-0.1,0.1-0.1,0.1-0.2,0.1c-0.1,0.4-0.2,0.7-0.4,0.7s-0.3,0-0.4,0.1c0.2,0.2,0.3,0.2,0.4,0.1
			c0-0.1,0.1-0.1,0.3-0.1c0.1,0.1,0.1,0.1,0.2,0.1c0.1,0,0.1,0.1,0.2,0.3c-0.2,0-0.3,0-0.3,0.1s-0.1,0.1-0.2,0.1
			c0,0.3-0.1,0.5-0.3,0.6c-0.2,0.1-0.4,0.2-0.6,0.2c0.1,0.3,0,0.5-0.2,0.6c-0.2,0-0.4,0.1-0.5,0.3c0.5,0.1,1.1-0.1,1.6-0.4
			s1-0.8,1.2-1.5c0.2-0.1,0.2-0.2,0.3-0.3c0-0.1,0-0.2-0.1-0.2c0-0.1,0-0.2,0.1-0.3s0.1-0.1,0.2-0.2c0.1-0.5,0.3-0.8,0.5-1
			S49.7,115.2,49.7,114.8z M46.5,100.4c-0.1,0.1-0.2,0.2-0.4,0.3c-0.2,0.1-0.3,0.1-0.2,0.2c-0.3-0.1-0.3-0.2-0.3-0.2
			c0.1,0,0.1-0.1,0.2-0.1c0.1,0,0.1,0,0.2-0.1c0.1,0,0.1-0.1,0.1-0.2L46.5,100.4z M47,117.8c-0.3,0-0.5,0.1-0.4,0.1
			c0.1,0,0,0.1,0,0.2c-0.3-0.1-0.4,0-0.5,0s-0.1,0.2-0.3,0.2c0.1,0.2,0.2,0.3,0.4,0.3c0.2-0.1,0.4-0.1,0.7-0.2
			c-0.1-0.2,0-0.4,0.1-0.4C47,118,47,117.9,47,117.8z M46.6,86.1c-0.3,0.2-0.5,0.2-0.6,0.2c0.1,0,0.2,0,0.4,0
			C46.4,86.2,46.5,86.2,46.6,86.1z M46.7,116c-0.3,0-0.5,0.1-0.5,0.1s0,0.1-0.1,0.2c0.2,0,0.4-0.1,0.5-0.1
			C46.6,116.2,46.6,116.1,46.7,116z M49.3,101.2c-0.3-0.2-0.5-0.2-0.6,0c0.1,0.3,0.1,0.5,0.1,0.5c0,0,0,0-0.1,0
			c-0.3,0.1-0.6,0.1-0.7,0.1c-0.1,0-0.1-0.1-0.1-0.2c-0.1,0.1-0.2,0.2-0.2,0.3c0,0.1,0,0.2,0.1,0.2c0.1,0.1,0.1,0.1-0.1,0.2
			c-0.2,0.1-0.4,0-0.6-0.1c0,0.4-0.1,0.8-0.2,1c-0.2,0.2-0.4,0.3-0.6,0.2c0.7-0.2,1.3-0.5,1.8-0.8S49.1,101.8,49.3,101.2z
			 M47.1,89.1c-0.3,0-0.5,0.1-0.5,0.2c0,0.1,0,0.2-0.1,0.1C46.5,89.1,46.7,89,47.1,89.1z M47,102.5c-0.2-0.1-0.3-0.1-0.3,0
			s-0.1,0.1-0.2,0.1c0.2,0.2,0.3,0.2,0.3,0.1S46.9,102.5,47,102.5z M47.6,90.9l-0.8,0.1c0.1-0.1,0.2-0.2,0.4-0.4
			c0.1-0.1,0.3-0.2,0.5-0.1V90.9z M47.7,102.1l-0.4-0.6c-0.1,0.2-0.2,0.3-0.2,0.3c0,0,0,0.1,0,0.3c0.1-0.1,0.2-0.1,0.4,0
			C47.6,102.2,47.6,102.2,47.7,102.1z M47.7,115.5c-0.1,0-0.2,0-0.4-0.1c-0.2,0-0.2,0-0.2,0.1c0.2,0.1,0.4,0.1,0.4,0.1
			C47.6,115.6,47.6,115.6,47.7,115.5z M47.6,96.7c-0.1,0.2-0.1,0.4,0,0.6c-0.2,0-0.3,0-0.3-0.2c0-0.1-0.1-0.3-0.1-0.4L47.6,96.7z
			 M48.2,100c-0.3,0.2-0.4,0.2-0.4,0.3c0,0-0.1,0-0.1-0.1c0,0.1,0,0.2-0.1,0.3c-0.1,0.1-0.2,0.1-0.3,0.2c-0.1-0.2-0.1-0.3,0-0.4
			c0.1-0.1,0.1-0.1,0.2-0.2c0.1,0,0.1-0.1,0.2-0.1c0.1,0,0.1-0.1,0.1-0.3L48.2,100z M48,115.2c0-0.2-0.1-0.4-0.2-0.3
			c-0.2,0-0.3,0.1-0.4,0.2c0.3,0.3,0.4,0.4,0.4,0.3C47.8,115.2,47.8,115.2,48,115.2z M48.3,94.9c-0.1,0-0.2,0-0.3,0
			c-0.1,0-0.2,0-0.3,0.1c-0.3-0.1-0.3-0.2-0.3-0.2c0.1,0,0.2,0,0.2,0c0.1,0,0.1,0,0.2,0c0,0,0.1-0.1,0.1-0.2L48.3,94.9z M47.8,99.7
			c-0.2-0.1-0.3-0.2-0.3-0.4c0-0.2,0.1-0.2,0.3-0.1c-0.1,0.1-0.1,0.1,0,0.3C47.8,99.6,47.8,99.7,47.8,99.7z M48.4,92.4
			c-0.1,0.2-0.2,0.3-0.4,0.3c-0.2,0.1-0.3,0-0.4-0.2c0.2,0.1,0.3,0.1,0.4,0C48.2,92.5,48.3,92.5,48.4,92.4z M48.4,101
			c-0.2-0.1-0.3-0.1-0.4-0.1c-0.1,0-0.2,0-0.2-0.2c0.1-0.1,0.2-0.2,0.2-0.1c0.1,0.1,0.2,0.1,0.3,0L48.4,101z M48.6,99.6
			c0.1,0.2,0.1,0.3-0.1,0.4c-0.1,0.1-0.1,0.2,0,0.4c0-0.3-0.2-0.5-0.4-0.6c0.1-0.1,0.2-0.1,0.3-0.1C48.4,99.6,48.5,99.6,48.6,99.6z
			 M49,96.9c-0.4,0.2-0.6,0.3-0.6,0.2c0-0.1-0.1-0.1-0.2-0.1c0.2-0.2,0.4-0.2,0.4-0.2c0.1,0,0.1,0,0.2,0.1L49,96.9z M48.6,90
			c0.1,0.1,0.1,0.2,0,0.3c-0.1,0.2-0.2,0.2-0.4,0.1c0-0.1,0.1-0.2,0.2-0.3C48.5,90.2,48.5,90.1,48.6,90z M48.9,91.4
			c-0.2,0-0.4,0-0.6,0.1c0.2-0.1,0.2-0.3,0.3-0.4c0-0.1,0.1-0.2,0.3-0.2c0.1,0.1,0.1,0.1,0.1,0.2C48.8,91.2,48.8,91.3,48.9,91.4z
			 M49.3,98.6c0.2,0.1,0.3,0.3,0.1,0.4c-0.1,0.2-0.3,0.3-0.4,0.3c-0.1-0.1-0.2-0.1-0.3,0c-0.1,0-0.2,0-0.4,0
			c0.2-0.2,0.2-0.3,0.3-0.4c0,0,0.1,0,0.2,0c0.1-0.1,0.1-0.1,0.2-0.1S49.3,98.7,49.3,98.6z M49.4,94.1c-0.3,0.3-0.5,0.4-0.6,0.3
			c-0.1,0-0.1,0-0.2,0c0.2-0.3,0.4-0.4,0.5-0.4C49.2,94.1,49.3,94.1,49.4,94.1z M49.2,92.2c-0.3,0-0.4,0-0.4-0.1c0-0.1,0-0.2,0-0.4
			c0.2,0,0.2,0.1,0.2,0.2C49.1,92.1,49.1,92.1,49.2,92.2z M50.1,93.8C50,93.9,49.9,94,49.8,94c-0.1,0.1-0.2,0.1-0.4,0.1
			c0.3-0.2,0.5-0.5,0.5-0.6L50.1,93.8z M50.1,96c-0.2,0.1-0.3,0.2-0.4,0.2c-0.1,0-0.2,0-0.2,0.2c0-0.2,0.1-0.3,0.2-0.3
			C49.8,96.1,49.9,96.1,50.1,96z"/>
	</g>
</g>
</svg>
