<?xml version="1.0" encoding="utf-8"?>
<!-- Generator: Adobe Illustrator 22.0.1, SVG Export Plug-In . SVG Version: 6.00 Build 0)  -->
<svg version="1.1" id="Layer_1" xmlns="http://www.w3.org/2000/svg" xmlns:xlink="http://www.w3.org/1999/xlink" x="0px"
     y="0px"
     viewBox="0 0 200 200" style="enable-background:new 0 0 200 200;" xml:space="preserve">
<style type="text/css">
	.st0{fill:#34C0C1;}
	.st1{clip-path:url(#SVGID_2_);}
</style>
    <g>
	<circle class="st0" cx="62.5" cy="100" r="50"/>
        <g>
		<path d="M53.2,110.2c-0.1,0.8-0.2,1.4-0.4,1.9c-0.2,0.5-0.3,1-0.3,1.5c-0.1,0.1-0.2,0.2-0.3,0.2s-0.1,0.2,0,0.3
			c-0.2,0.2-0.3,0.4-0.4,0.7s-0.3,0.5-0.5,0.7c-0.1,0.2-0.2,0.4-0.2,0.5s-0.1,0.2-0.2,0.2c-0.1,0.2-0.2,0.4-0.4,0.6
			s-0.4,0.2-0.6,0.4c-0.3,0.2-0.4,0.3-0.4,0.3s0,0.1,0,0.2c-0.2,0.1-0.4,0.2-0.6,0.3c-0.2,0.1-0.3,0.2-0.6,0.3
			c-0.3,0.2-0.6,0.4-0.9,0.6s-0.7,0.4-0.9,0.6c-0.3,0-0.5,0.1-0.7,0.2s-0.4,0.1-0.5,0c-0.6,0.3-1.1,0.4-1.7,0.4s-1.1,0-1.6,0
			c-0.2,0.2-0.3,0.3-0.6,0.3c-0.2,0-0.5,0.1-0.7,0.2c-0.4-0.1-0.9-0.1-1.5-0.1c-0.5,0-1-0.2-1.3-0.6c-0.3-0.1-0.5-0.1-0.6-0.1
			c-0.2,0-0.4,0-0.6-0.1c-0.2-0.2-0.3-0.3-0.6-0.3c-0.3-0.1-0.6-0.3-0.8-0.4c-0.2-0.2-0.4-0.4-0.6-0.6s-0.4-0.4-0.5-0.7
			c-0.2-0.2-0.4-0.4-0.6-0.6c-0.4,0.1-0.8-0.1-1-0.4c-0.2-0.3-0.4-0.6-0.6-0.9c-0.2-0.7-0.4-1.4-0.7-1.9s-0.5-1.2-0.7-1.9
			c0.1-0.2,0.1-0.4,0-0.5c-0.1-0.1-0.2-0.2-0.4-0.2c0-0.3,0-0.5,0.2-0.6s0.2-0.3,0.3-0.4c0-0.1-0.1-0.2-0.1-0.3
			c-0.1,0-0.1-0.1-0.2-0.2l0.5-0.4c0.2-0.1,0.3-0.2,0.3-0.4c0-0.2,0.1-0.4,0.2-0.5c0.3-0.2,0.6-0.4,0.7-0.6c0.1-0.1,0.2-0.2,0.4-0.4
			c0.4,0,0.8-0.1,1.1-0.3s0.6-0.3,1-0.4c0.4,0.3,0.7,0.5,1,0.6c0.3,0,0.6,0.2,0.8,0.4c0.5,0.3,0.9,0.6,1.2,1s0.5,0.7,0.8,1.1
			c-0.1,0.4-0.1,0.8-0.2,1s-0.2,0.5-0.4,0.7c-0.2,0.2-0.3,0.4-0.5,0.6c-0.2,0.2-0.4,0.4-0.5,0.5c-0.4,0.1-0.5,0.1-0.5,0.2
			c0.1,0,0,0.1,0,0.1c-0.2,0.1-0.4,0.1-0.6,0.2c-0.2,0.1-0.3,0.1-0.5,0.2c-0.2,0.1-0.3,0.1-0.5,0.1c-0.2,0-0.4,0-0.7-0.1
			c-0.1,0-0.2,0.1-0.2,0.2c0,0.1-0.1,0.1-0.3,0.1c-0.1,1.1,0.1,2,0.6,2.8c0.4,0.5,0.8,0.9,1.1,1.2c0.3,0.2,0.6,0.5,0.8,0.8
			c0.4,0.2,0.9,0.3,1.3,0.4c0.4,0.1,0.8,0.2,1.2,0.4c0.2,0.1,0.3,0.1,0.4,0.2s0.3,0.2,0.4,0.2c0.3,0.1,0.7,0.1,1.1,0
			c0.4-0.1,0.7-0.1,1.1,0c0.1-0.1,0.1-0.1,0.2-0.2c0.1-0.1,0.1-0.1,0.2-0.2c0.6-0.2,1.2-0.5,1.7-1s0.9-1,1.3-1.7
			c0-0.1,0.1-0.2,0.1-0.3c0-0.1,0.1-0.3,0.1-0.4c0.2-0.3,0.3-0.6,0.5-0.9c0.2-0.3,0.1-0.7-0.1-1.1c0.3-0.5,0.5-1.1,0.4-1.8
			s-0.1-1.3-0.3-1.8c-0.2,0-0.3,0-0.4,0s-0.2,0-0.4,0c-0.1-0.4,0-0.7,0.2-0.9c0.2-0.2,0.4-0.4,0.5-0.6c0-0.3-0.1-0.5-0.2-0.7
			c-0.1-0.2-0.3-0.3-0.4-0.5c0-0.2,0.1-0.3,0.2-0.4c0.1-0.1,0.2-0.2,0.3-0.4c-0.2-0.4-0.3-0.8-0.3-1.2c0-0.4-0.2-0.7-0.5-0.9
			c0.1-0.1,0.2-0.2,0.2-0.4s0-0.3,0.1-0.5c-0.1-0.3-0.2-0.6-0.3-0.8c-0.1-0.2-0.2-0.3-0.5-0.3c0-0.2,0-0.4,0-0.6
			c-0.1-0.2-0.2-0.3-0.3-0.5c-0.1-0.1-0.3-0.3-0.4-0.4s-0.3-0.3-0.4-0.4c-0.5-0.1-1,0-1.5,0.1c-0.6,0.1-1,0.2-1.5,0.3
			c-0.1-0.1-0.2-0.1-0.3,0c-0.1,0-0.2,0-0.3,0c-0.3,0.1-0.6,0.2-0.7,0.2c-0.1,0-0.3,0.1-0.4,0.1c-0.1,0-0.3,0.1-0.4,0.1
			c-0.1,0-0.3,0-0.4,0c-0.2,0.1-0.4,0.1-0.7,0.1c-0.3,0-0.5-0.1-0.7-0.1s-0.3-0.2-0.4-0.4c-0.1-0.2-0.1-0.4-0.1-0.7
			c0.5-0.5,1.1-0.7,1.7-0.8c0.6-0.1,1.2-0.1,1.7,0c0.7,0.2,1.2,0.2,1.7,0.1c0.5-0.1,0.9-0.2,1.2-0.2c0.2-0.2,0.4-0.3,0.5-0.3
			c0.1,0,0.1-0.1,0.1-0.2c0-0.1,0.1-0.1,0.1-0.2c0-0.1,0.1-0.1,0.2-0.1c0.2-0.2,0.3-0.3,0.5-0.2c0.1-0.2,0.2-0.4,0.3-0.4
			s0.2-0.1,0.3-0.3c-0.1,0.1-0.3,0.1-0.6,0.3c-0.3,0.1-0.5,0-0.6-0.2c0.1-0.2,0.3-0.5,0.5-0.6c0.2-0.2,0.4-0.3,0.6-0.5
			c0.2-0.2,0.4-0.3,0.6-0.6c0.2-0.2,0.3-0.5,0.3-0.8c-0.1-0.4-0.1-0.8,0-1c0.1-0.2,0.2-0.4,0.4-0.5c-0.1-0.2-0.2-0.4-0.3-0.5
			c-0.1-0.1-0.3-0.2-0.4-0.4c0.2-0.4,0.4-0.7,0.7-0.9c-0.1-0.7-0.2-1.1-0.5-1.5c0-0.1,0.1-0.1,0.1-0.3c0-0.1,0-0.2,0-0.3
			c-0.2,0-0.5,0.1-0.7,0.2c-0.3,0.1-0.5,0-0.6-0.2c0.1-0.3,0.2-0.5,0.4-0.6c0.2-0.1,0.4-0.4,0.4-0.7c-0.1,0-0.2,0-0.4,0
			c-0.1,0-0.2,0-0.3-0.1c0-0.2,0-0.3,0.1-0.4c0.1,0,0.1-0.1,0.1-0.2c-0.3,0-0.4,0-0.6,0.1s-0.3,0.1-0.5,0c0-0.2,0.1-0.4,0.2-0.6
			c0.2-0.2,0.3-0.3,0.5-0.5c0-0.8-0.4-1.3-1.1-1.5c-0.7-0.2-1.5-0.2-2.5-0.1c-0.1,0-0.2,0.1-0.3,0.1s-0.2,0.1-0.3,0.1
			c-0.3,0.1-0.6,0.1-0.9,0.1c-0.3,0-0.5,0.1-0.8,0.2c-0.6,0.4-1.1,0.8-1.5,1.2c-0.4,0.3-0.8,0.7-1.1,1.1c0.1,0.2,0.1,0.3,0,0.4
			c0,0.1-0.1,0.2-0.2,0.2c-0.1,0.1-0.1,0.2-0.2,0.3c-0.1,0.1-0.1,0.2-0.1,0.4c0.7,0,1.2,0.1,1.4,0.4c0.2,0.3,0.5,0.5,0.9,0.6
			c0,0.2,0.1,0.3,0.2,0.4c0.1,0.1,0.3,0.2,0.4,0.3c0.2,0.4,0.3,0.8,0.3,1.2c0,0.4,0,0.8-0.2,1.1c-0.1,0.3-0.3,0.6-0.6,0.9
			c-0.3,0.3-0.6,0.4-1,0.5c-0.1,0.1-0.1,0.1-0.2,0.2c-0.1,0.1-0.1,0.1-0.2,0.2c-0.5,0.1-0.9,0.1-1.2,0c-0.3-0.1-0.8-0.2-1.3-0.2
			c0-0.1,0-0.2,0-0.3c0-0.1-0.1-0.2-0.2-0.3c-0.2,0-0.3,0.1-0.4,0.1c-0.1,0-0.2,0-0.3-0.1c0.1-0.1,0.1-0.1,0.1-0.3
			c0-0.1,0.1-0.2,0.1-0.3c-0.1-0.2-0.2-0.5-0.2-0.7c-0.1-0.3-0.2-0.5-0.3-0.7c0.1-0.4,0.2-0.9,0.2-1.3c0-0.4,0.1-0.8,0.3-1.1
			c0.1-0.1,0.1-0.2,0.2-0.3c0.1-0.1,0.1-0.2,0.2-0.3c0.1-0.1,0.1-0.3,0.2-0.4s0.1-0.3,0.2-0.4c0.2-0.2,0.4-0.3,0.6-0.5
			c0.3-0.1,0.5-0.3,0.6-0.7c0.3-0.1,0.6-0.3,0.8-0.6c0.2-0.3,0.4-0.5,0.7-0.7c0.4-0.2,0.8-0.5,1.3-0.7c0.4-0.2,0.9-0.4,1.3-0.7
			c0.1,0,0.1,0,0.3,0c0.1,0,0.2,0,0.4,0c0.3-0.2,0.5-0.3,0.7-0.3c0.2,0,0.3,0,0.5,0c0.2,0,0.3,0,0.5,0c0.2,0,0.3-0.1,0.4-0.2
			c0.2,0.2,0.4,0.2,0.7,0.1c0.3-0.1,0.5-0.1,0.8,0c0.6,0.2,1.2,0.3,1.7,0.4s1,0.1,1.5,0.2c0.2-0.1,0.4-0.1,0.6-0.2
			c0.2,0,0.4,0,0.5,0.1c0.1,0.1,0,0.2,0,0.3c-0.1,0.1-0.2,0.1-0.2,0.2c0.3,0.1,0.8,0.2,1.3,0.5c0.5,0.3,1,0.4,1.4,0.4
			c0.2,0.3,0.4,0.5,0.6,0.7c0.2,0.2,0.5,0.4,0.7,0.6c0.3,0.2,0.5,0.4,0.6,0.7c0.1,0.2,0.2,0.5,0.2,0.8c0.2-0.2,0.4-0.2,0.5,0
			c0.1,0.2,0.2,0.3,0.3,0.5c-0.2,0.5-0.1,1,0,1.3c0.2,0.3,0.3,0.6,0.4,1c0.1,0.6,0.1,1.3-0.1,1.9c-0.1,0.6-0.3,1.3-0.4,1.9
			c-0.2,0.6-0.4,1-0.7,1.5c-0.3,0.4-0.6,0.8-0.8,1.3c-0.4,0.2-0.8,0.4-1.2,0.7c-0.4,0.3-0.8,0.5-1.2,0.6c-0.1,0.2-0.2,0.3-0.4,0.4
			c-0.2,0.1-0.4,0.1-0.5,0.1c-0.2,0-0.4,0.1-0.6,0.1s-0.3,0.1-0.4,0.3c0.2,0.1,0.4,0.1,0.8,0.2c0.4,0,0.7,0,1.1,0.1
			c0.6,0.3,1.1,0.6,1.5,0.8c0.4,0.2,0.8,0.5,1.1,0.8c0.1,0.2,0.2,0.4,0.3,0.3c0.1,0,0.1,0,0.2,0c0.2,0.3,0.3,0.5,0.3,0.5
			c0.2,0.1,0.3,0.3,0.4,0.4c0.1,0.2,0.2,0.3,0.4,0.4c-0.1,0.3-0.1,0.6,0.1,1s0.4,0.8,0.5,1.1c0,0.6,0,1.1,0.1,1.5
			c0.1,0.3,0.1,0.7-0.1,1.1c0.2,0.1,0.2,0.2,0.3,0.4c0,0.1,0,0.3,0,0.4c0,0.2-0.1,0.3-0.1,0.4C53.1,110,53.1,110.2,53.2,110.2z
			 M35.6,109.3c-0.1-0.3-0.3-0.4-0.6-0.4c-0.3,0-0.4,0.2-0.5,0.5c-0.1-0.1-0.2-0.1-0.3,0s-0.2,0.2-0.3,0.1c0.1-0.2,0.2-0.3,0.3-0.3
			s0.1-0.1,0.1-0.2c-0.2,0-0.3,0-0.4,0s-0.3,0-0.4,0c0-0.2,0.1-0.4,0.4-0.4c0.2-0.1,0.4-0.2,0.5-0.4c-0.2-0.1-0.4-0.2-0.6-0.1
			c-0.2,0.1-0.3,0.2-0.5,0.3c-0.2,0.1-0.3,0.3-0.5,0.4s-0.3,0.3-0.5,0.3c0.2,0.1,0.3,0.2,0.3,0.4c0.1,0.1,0.1,0.1,0.2,0
			c-0.1,0.1-0.1,0.1-0.3,0.1c-0.1,0-0.2-0.1-0.3-0.2l-0.5,0.3c0.3,0,0.5,0,0.6,0s0.1,0.1,0,0.2c-0.2,0.1-0.3,0.1-0.4,0
			s-0.2-0.1-0.3,0c0,0.6-0.1,0.9-0.3,1c-0.2,0.1-0.2,0.3-0.2,0.7c0.3-0.1,0.6-0.1,0.7-0.1c0.1,0.1,0.2,0.1,0.4,0.1
			c-0.1-0.1-0.2-0.1-0.3-0.2s-0.2-0.1-0.1-0.3c0.2-0.2,0.3-0.3,0.4-0.4c0.1-0.1,0.1-0.2,0.2-0.3c0.3-0.2,0.5-0.3,0.6-0.4
			s0.2,0,0.3,0.2c-0.2,0.2-0.3,0.3-0.3,0.4s0.1,0.1,0.1,0.1c-0.3,0.1-0.4,0.3-0.6,0.6s-0.4,0.4-0.7,0.5c0,0.2-0.1,0.2-0.2,0.3
			s-0.2,0.1-0.2,0.3c0.1,0.1,0.1,0.1,0.1,0.2c0,0.1,0.1,0.2,0.1,0.3c0.1-0.1,0.2-0.2,0.3-0.4c0.1-0.1,0.2-0.2,0.4-0.3
			c0.2-0.2,0.3-0.3,0.2-0.4c-0.1,0-0.1-0.1-0.1-0.2c0.2-0.2,0.4-0.4,0.6-0.6c0.2-0.1,0.4-0.1,0.5,0c0-0.2,0-0.2,0.1-0.3
			c0.1,0,0.1-0.1,0.1-0.3c-0.4,0-0.7-0.1-0.7-0.2c0.1-0.1,0.2-0.1,0.4-0.2c0.1-0.1,0.2-0.2,0.3-0.3c-0.3,0-0.4,0-0.5,0
			c-0.1-0.2,0-0.3,0.2-0.4c0.2,0,0.3-0.1,0.4-0.2c0.4,0,0.7-0.1,0.9-0.3C35.2,109.1,35.4,109.1,35.6,109.3z M32.8,115.4
			c0-0.2-0.1-0.6-0.1-0.9c0-0.4,0-0.7,0-0.9c-0.2,0-0.3,0.1-0.4,0.2c-0.1,0.1-0.1,0.3-0.1,0.4c0,0.2,0.1,0.5,0.3,0.7
			S32.7,115.2,32.8,115.4z M36.2,90.5c0-0.1-0.1-0.2-0.3-0.2s-0.3,0-0.4-0.1c-0.3,0.4-0.6,0.8-1,1.1c-0.4,0.3-0.8,0.6-1.1,1l0.4-0.4
			c0.1-0.2,0.2-0.5,0.5-0.6c0.2-0.2,0.4-0.4,0.5-0.6c-0.5,0.5-0.9,0.8-1.2,0.9c-0.3,0.2-0.5,0.4-0.7,0.7c0.2,0.4,0.2,0.6,0.2,0.7
			c0,0.1,0,0.2,0,0.4c0.1,0,0.2,0,0.3-0.1c0.1-0.1,0.1-0.2,0.2-0.3c0.1-0.1,0.1-0.2,0.2-0.3c0.1-0.1,0.2-0.1,0.3-0.1
			c0-0.1,0-0.2,0.1-0.3s0.2-0.2,0.4-0.2c0.2-0.4,0.4-0.7,0.8-0.9S35.9,90.7,36.2,90.5z M34.9,90.1c-0.2,0-0.3,0.1-0.3,0.2
			c-0.1,0.1-0.2,0.2-0.5,0.1c-0.3-0.2-0.4-0.3-0.4-0.3c0,0.1-0.1,0.1-0.2,0.1c-0.3,0.2-0.4,0.4-0.4,0.6c0,0.2,0,0.3,0.1,0.5
			c0.2-0.1,0.3-0.2,0.4-0.4c0.1-0.2,0.2-0.3,0.3-0.4c0.3,0,0.5,0,0.8-0.1C34.8,90.4,34.9,90.3,34.9,90.1z M33.6,112
			c-0.2,0.1-0.3,0.1-0.4,0.1c0,0-0.1,0-0.1,0C33.4,112.2,33.6,112.2,33.6,112z M37,109.2c-0.1-0.1-0.2-0.2-0.4-0.2
			c-0.1,0-0.2,0-0.4-0.1c-0.1,0.4-0.2,0.7-0.4,0.8c-0.2,0.1-0.4,0.2-0.5,0.4c-0.1-0.1-0.1-0.2-0.2-0.2s-0.2-0.1-0.2-0.2
			c-0.2,0.1-0.3,0.1-0.4,0.2c-0.1,0.1-0.3,0.1-0.4-0.1c0.2,0.2,0.2,0.4,0.2,0.5s0.1,0.1,0.2,0.1c0.1-0.3,0.2-0.5,0.4-0.4
			c0.2,0,0.3,0.1,0.5,0.3c-0.1,0.1-0.2,0.1-0.3,0.3c-0.1,0.1-0.3,0.1-0.4,0.1c0.1,0.2,0.1,0.2,0,0.3c-0.1,0-0.2,0.1-0.4,0.1
			c0,0.1,0,0.2-0.1,0.4c-0.1,0.1-0.2,0.1-0.4,0.1c0.2,0.1,0.4,0.2,0.7,0.3c0.2-0.2,0.3-0.4,0.4-0.5s0.2-0.3,0.3-0.5
			c0.4-0.1,0.6-0.1,0.8-0.1s0.2,0.1,0.3,0.2c0-0.2,0-0.3-0.2-0.4c-0.2,0-0.3-0.1-0.4-0.2c0.2-0.1,0.5-0.2,0.6-0.2
			c0.2,0,0.2-0.1,0.3-0.2c0-0.1,0.1-0.2,0.2-0.2c0.2,0,0.4-0.1,0.4-0.2C37,109.4,37,109.3,37,109.2z M34.6,93.6
			c-0.2,0-0.4,0.1-0.6,0.2c-0.2,0.1-0.3,0.3-0.2,0.5c0.2,0,0.3-0.1,0.4-0.3C34.2,93.7,34.3,93.6,34.6,93.6z M37.9,110.7
			c0-0.2-0.1-0.3-0.1-0.4c-0.1-0.1-0.1-0.2-0.1-0.4c-0.7,0.1-1.1,0.4-1.3,1c-0.3,0.2-0.5,0.2-0.5,0.2c-0.1,0-0.2,0-0.3,0.1
			c-0.2,0.2-0.3,0.3-0.3,0.4c-0.1,0.1-0.2,0.1-0.3,0.1c0,0.3,0,0.5,0.1,0.4c0.1,0,0.1,0,0.2,0.1c-0.3,0.1-0.4,0.2-0.5,0.1
			c0,0-0.1-0.1-0.2-0.1c0.4,0.3,0.7,0.4,0.9,0.3s0.5-0.2,0.8-0.2c0.4-0.2,0.7-0.5,0.9-0.8C37.4,111.2,37.6,111,37.9,110.7z M35.1,94
			c-0.3,0-0.4,0.2-0.5,0.4c0.2-0.2,0.3-0.2,0.4-0.2C35.1,94.2,35.1,94.2,35.1,94z M35.4,93c-0.2,0-0.3,0-0.4,0
			c-0.1,0-0.1,0.1-0.2,0.2c0.1,0,0.2,0,0.2-0.1C35.1,93,35.2,93,35.4,93z M35.9,92c-0.2,0-0.4,0-0.5,0.1c-0.2,0.1-0.3,0.3-0.4,0.4
			c0.2,0,0.4-0.1,0.5-0.3C35.5,92.1,35.7,92,35.9,92z M35.8,108.7c-0.3-0.1-0.5-0.1-0.5-0.1c0,0,0,0.1,0,0.1c0.1,0,0.2,0,0.4,0
			C35.8,108.8,35.9,108.8,35.8,108.7z M37.5,93c0.1-0.2,0.1-0.5,0-0.6c-0.1-0.2-0.1-0.3-0.2-0.5c-0.3,0.1-0.5,0.2-0.8,0.3
			c-0.2,0.1-0.3,0.4-0.3,0.6c0.2-0.1,0.3-0.2,0.4-0.4c0.1-0.1,0.3-0.1,0.5,0c-0.2,0.2-0.4,0.4-0.4,0.4s-0.1,0.1,0,0.2
			c-0.2,0-0.3,0-0.3,0c-0.1,0.1-0.1,0.1-0.2,0.2c-0.1,0.1-0.1,0.1-0.2,0.2c0,0.1-0.1,0.1-0.2,0c-0.2,0.2-0.2,0.3-0.2,0.4
			c0,0.1-0.1,0.2-0.2,0.1c0.4,0.1,0.8,0,1.1-0.2C36.8,93.5,37.1,93.2,37.5,93z M36.2,111.9c-0.2,0.1-0.4,0.2-0.4,0.2
			c-0.1,0-0.1,0.1-0.2,0.1c0.3-0.2,0.4-0.3,0.4-0.4L36.2,111.9z M36.8,91.2c-0.2,0-0.4,0.1-0.5,0.2c-0.1,0.1-0.2,0.2-0.1,0.4
			c0.2-0.1,0.4-0.2,0.4-0.3C36.6,91.3,36.7,91.3,36.8,91.2z M37.1,111c-0.1,0.1-0.1,0.2-0.2,0.2c-0.1,0.1-0.1,0.1-0.2,0.2
			c0-0.3,0-0.4,0.1-0.4S37,111,37.1,111z M45.2,98.6c-0.4,0.4-0.8,0.7-1.1,0.9c-0.3,0.2-0.6,0.5-0.8,0.7c0.2,0.2,0.5,0.3,0.8,0.1
			c0.3-0.1,0.6-0.2,0.8-0.4c0-0.3-0.1-0.5-0.2-0.7c0.1-0.2,0.1-0.3,0.2-0.4C45,98.8,45.1,98.7,45.2,98.6z M44.5,118.8
			c-0.3,0.1-0.5,0.2-0.6,0.5c0.1,0,0.3,0,0.5-0.1L44.5,118.8z M44.9,86.1c-0.1-0.1-0.3,0-0.4,0c-0.2,0.1-0.2,0.2-0.1,0.3
			c0.1,0,0.2-0.1,0.3-0.1S44.9,86.2,44.9,86.1z M50.5,112.8c-0.1,0-0.2,0-0.3,0c-0.1,0.1-0.2,0.2-0.3,0.3s-0.2,0.2-0.3,0.3
			s-0.2,0.1-0.4,0.1c-0.2,0.2-0.3,0.3-0.5,0.4c-0.1,0.1-0.2,0.2-0.4,0.4c-0.1,0.1-0.2,0.2-0.4,0.4c-0.1,0.1-0.3,0.2-0.5,0.2
			c0,0.2,0,0.2-0.1,0.3s-0.2,0.1-0.2,0.2c-0.2,0-0.4,0-0.5-0.1s-0.2-0.2-0.4-0.2c-0.2,0.3-0.3,0.6-0.5,0.9c-0.2,0.3-0.3,0.6-0.3,1
			c-0.2,0.3-0.4,0.5-0.6,0.8c-0.2,0.2-0.3,0.5-0.5,0.9c0.2-0.1,0.3-0.1,0.5-0.2c0.2-0.1,0.2-0.2,0.1-0.4c0.2,0.1,0.4,0,0.5-0.2
			s0.3-0.3,0.6-0.4c-0.1-0.1-0.1-0.1-0.2-0.2s-0.2-0.1-0.2-0.3c0.1-0.1,0.1-0.2,0.2-0.3s0.2-0.2,0.4-0.2c-0.1-0.2-0.1-0.3,0-0.4
			c0.1-0.1,0.2-0.2,0.3-0.2c0.3-0.2,0.6-0.3,0.6-0.4c0.1-0.1,0.2-0.2,0.4-0.1c0.3-0.4,0.6-0.8,0.8-1c0.2-0.3,0.5-0.5,0.8-0.5
			c0.2-0.3,0.4-0.5,0.5-0.7C50.1,113.1,50.3,112.9,50.5,112.8z M46.3,86.2c-0.3-0.1-0.4-0.1-0.6,0s-0.3,0.1-0.4,0
			c-0.1,0.3-0.2,0.4-0.4,0.5c-0.2,0.1-0.3,0.2-0.3,0.5c0.1,0.1,0.2,0.1,0.3,0c0.1-0.1,0.2-0.1,0.4-0.1c0-0.2,0.1-0.3,0.2-0.3
			c0.1-0.1,0.2-0.1,0.4-0.2l-0.3,0.5c0.3-0.1,0.5-0.2,0.5-0.3C46.1,86.4,46.2,86.3,46.3,86.2z M46.2,87.8c-0.1-0.2-0.3-0.2-0.4,0
			c-0.2,0.1-0.3,0.1-0.4,0c0,0.2,0,0.3-0.1,0.3c-0.1,0-0.1,0.1-0.2,0.3c0.2-0.1,0.4-0.2,0.5-0.4C45.8,88,46,87.9,46.2,87.8z
			 M46.3,101.6c-0.3-0.1-0.5,0-0.7,0.1c-0.2,0.1-0.3,0.3-0.4,0.5c0.1,0.1,0.2,0.1,0.3,0c0.1-0.1,0.1-0.1,0.2-0.1
			C46,102.1,46.2,101.9,46.3,101.6z M48.4,94.9c-0.6,0.3-1.2,0.7-1.7,1c-0.2,0.3-0.5,0.5-0.8,0.7c-0.3,0.2-0.6,0.4-0.7,0.8
			c0.6-0.3,1.2-0.7,1.6-1.1C47.4,95.8,47.9,95.3,48.4,94.9z M47.1,88.8c-0.2-0.1-0.4-0.1-0.6,0c-0.2,0.1-0.3,0.2-0.5,0.2
			c-0.2,0.1-0.3,0.2-0.4,0.3c-0.1,0.1-0.2,0.3-0.2,0.5c0.3-0.1,0.6-0.2,0.9-0.5C46.5,89.1,46.8,88.9,47.1,88.8z M49.4,102.9
			c-0.2-0.2-0.3-0.4-0.2-0.4c0.1,0,0.1-0.1,0.1-0.2c-0.6-0.4-1.2-0.6-2.1-0.6c-0.3,0.3-0.7,0.6-1.2,0.8c0.1,0.2,0.1,0.2,0.3,0.2
			c0.1,0,0.2-0.1,0.3-0.1c0,0.2,0,0.3-0.1,0.4s-0.2,0.2-0.3,0.3c-0.1,0.1-0.2,0.2-0.4,0.3c-0.1,0.1-0.2,0.2-0.2,0.4
			c0.2,0.2,0.3,0.4,0.3,0.4c0,0.1,0.1,0.2,0.2,0.3c-0.1,0.1-0.2,0.2-0.2,0.4c-0.1,0.1,0,0.3,0,0.6c0.3-0.2,0.5-0.1,0.8,0.1
			c0-0.2,0.2-0.2,0.5-0.2c0.1-0.2,0.2-0.3,0.2-0.4c0-0.1,0-0.1,0-0.1c0.3-0.1,0.5-0.1,0.5-0.2c0-0.1,0.1-0.2,0.1-0.2
			c-0.1,0.1-0.1,0.3-0.2,0.6c-0.2,0-0.3,0-0.4,0.1s-0.2,0.2-0.3,0.3c-0.1,0.1-0.2,0.2-0.3,0.3s-0.2,0.1-0.3,0.1
			c0,0.2-0.1,0.4-0.2,0.4c-0.1,0.1-0.2,0.1-0.3,0.2c0.1,0,0.2,0.1,0.3,0.1s0.2,0.1,0.2,0.1c0-0.2,0.1-0.2,0.3-0.1
			c0.2,0.1,0.3,0.1,0.4,0.1c0-0.1,0-0.2-0.1-0.2c-0.1,0-0.2-0.1-0.3-0.1s-0.2,0-0.2,0c-0.1,0-0.1-0.1,0-0.2c0.2-0.2,0.4-0.3,0.5-0.4
			s0.2-0.2,0.3-0.3c0.2,0,0.4-0.1,0.4-0.2c0-0.1,0.1-0.2,0.1-0.3c0.2,0,0.4,0,0.5,0.1s0.2,0,0.2-0.1c0.1-0.2,0.1-0.4,0.2-0.5
			c0.1-0.1,0.1-0.2,0-0.3c-0.3,0.1-0.4,0.2-0.4,0.2s-0.1,0-0.2,0c0.1-0.1,0.2-0.2,0.3-0.3s0.2-0.1,0.4,0c0.1-0.1,0.1-0.2,0.2-0.3
			s0.1-0.1,0-0.2c-0.2,0.2-0.4,0.3-0.6,0.3c-0.2,0-0.3,0.1-0.3,0.3c-0.2,0-0.3,0-0.5,0.1c-0.2,0.1-0.2,0.2-0.1,0.4
			c-0.3,0-0.5,0-0.6,0c0,0-0.1,0-0.1-0.1c0.3-0.2,0.6-0.4,0.9-0.6c0.3-0.2,0.6-0.4,0.8-0.7C49,103,49.2,102.9,49.4,102.9z
			 M49.3,92.9c-0.3-0.1-0.6,0.1-0.9,0.4c-0.3,0.3-0.6,0.5-0.9,0.6c-0.3,0.2-0.6,0.4-0.9,0.7c-0.3,0.3-0.6,0.6-1,0.8
			c0.7-0.2,1.4-0.5,2-0.9C48.2,94,48.8,93.5,49.3,92.9z M50.1,88.3c-0.2,0-0.3,0.1-0.4,0.2c-0.1,0.1-0.2,0.1-0.4,0
			c-0.3,0.3-0.6,0.5-0.8,0.5c-0.2,0.1-0.4,0.1-0.6,0.2c-0.3,0.4-0.5,0.6-0.7,0.7c-0.2,0-0.3,0.1-0.5,0.2c-0.4,0.3-0.7,0.6-1,0.9
			c0.3,0.3,0.4,0.5,0.5,0.4c0-0.1,0.1-0.1,0.3,0c0.3-0.4,0.6-0.7,1-0.9c0.4-0.2,0.7-0.5,1-0.8c0.2-0.1,0.4-0.2,0.5-0.3
			c0.1-0.2,0.2-0.3,0.4-0.4c0.1-0.1,0.2-0.2,0.4-0.2c0.1-0.1,0.2-0.1,0.3-0.2C50,88.5,50.1,88.4,50.1,88.3z M51.2,89.8
			c-0.4,0.1-0.7,0.2-0.9,0.3c-0.2,0.1-0.4,0.2-0.6,0.3c-0.2,0.1-0.3,0.1-0.5,0.2c-0.2,0.1-0.3,0.2-0.3,0.3c-0.2,0.1-0.3,0.2-0.5,0.3
			c-0.2,0.1-0.3,0.1-0.5,0.1c-0.2,0.3-0.4,0.4-0.7,0.5c-0.3,0.1-0.5,0.3-0.7,0.5c-0.3,0.3-0.6,0.5-0.7,0.6c-0.1,0.2-0.1,0.3,0,0.5
			c0.8-0.3,1.4-0.7,1.9-1.2c0.5-0.5,1.1-0.9,1.6-1.4c0.4-0.3,0.7-0.5,1-0.7C50.7,90.2,51,90,51.2,89.8z M46.4,88.5
			c-0.2-0.1-0.3-0.1-0.4-0.1c-0.1,0-0.1,0.1-0.1,0.1C46.1,88.5,46.3,88.5,46.4,88.5z M46.5,101.8c-0.1,0-0.2,0-0.4,0.2
			c-0.1,0.1-0.2,0.2-0.3,0.3c0.2,0.1,0.3,0,0.4-0.1C46.5,102.1,46.5,102,46.5,101.8z M46.6,89.8c-0.1-0.1-0.2-0.1-0.4,0
			C46.1,89.9,46,90,46,90.2c0.2-0.1,0.3-0.2,0.4-0.2C46.4,89.9,46.5,89.9,46.6,89.8z M46.8,104.2c-0.1,0.1-0.2,0.1-0.4,0.2
			s-0.2,0.1-0.3,0c0.1-0.1,0.2-0.1,0.3-0.2S46.7,104.2,46.8,104.2z M50.6,105c-0.3,0-0.5,0.1-0.7,0.3c-0.2,0.2-0.5,0.3-0.8,0.3
			c-0.2,0.2-0.4,0.4-0.5,0.6s-0.4,0.4-0.7,0.4c-0.2,0.1-0.4,0.1-0.4,0.2c-0.1,0.1-0.1,0.1,0,0.2c-0.1,0.1-0.3,0.1-0.7,0
			c0,0.3-0.1,0.5-0.4,0.7c-0.3,0.2-0.4,0.5-0.4,0.8c0.6-0.2,1-0.4,1.3-0.7c0.3-0.3,0.7-0.6,1.1-0.9C49.3,106.3,50,105.6,50.6,105z
			 M46.9,86.6c-0.2,0-0.3,0-0.4,0.1c-0.1,0.1-0.2,0.2-0.3,0.3c0.2,0,0.3,0,0.4-0.1C46.8,86.9,46.9,86.7,46.9,86.6z M47.4,97.1
			c-0.2,0-0.3,0-0.3,0.1c-0.1,0.1-0.2,0.1-0.3,0c-0.1,0.1-0.1,0.2-0.2,0.2s-0.1,0.1-0.1,0.3c0.2,0,0.3,0,0.3-0.1
			c0-0.1,0.1-0.2,0.2-0.3C47.1,97.2,47.3,97.1,47.4,97.1z M47.6,93.4c-0.3,0.1-0.5,0.1-0.7,0.3c-0.2,0.1-0.3,0.3-0.4,0.4
			c0.2-0.1,0.5-0.2,0.6-0.3C47.2,93.7,47.4,93.6,47.6,93.4z M51.4,113.8c-0.3,0-0.4,0.1-0.5,0.1c-0.1,0-0.1,0-0.2,0.1
			c-0.4,0.3-0.6,0.5-0.7,0.6c-0.1,0.1-0.3,0.2-0.5,0.1c-0.1,0.2-0.3,0.4-0.7,0.6c-0.3,0.1-0.5,0.4-0.4,0.7c0.2-0.1,0.4-0.2,0.6-0.2
			s0.4-0.1,0.6,0c-0.2,0.3-0.5,0.4-0.8,0.4c-0.1,0.2-0.2,0.4-0.5,0.6c-0.3,0.1-0.5,0.4-0.6,0.7c-0.3,0.2-0.5,0.4-0.8,0.5
			c-0.3,0.2-0.4,0.4-0.5,0.6c0.4-0.2,0.7-0.3,1.1-0.5s0.7-0.4,1-0.6c0.5-0.4,1-0.9,1.5-1.2c0.5-0.4,0.9-0.9,1.1-1.6
			c-0.3,0.1-0.5,0.2-0.6,0.4s-0.1,0.2-0.3,0.3c-0.2,0.2-0.4,0.2-0.5,0.3s-0.3,0-0.4-0.2c0.2-0.2,0.4-0.2,0.7-0.2
			c0-0.2,0.1-0.3,0.2-0.4c0.1-0.1,0.3-0.1,0.4-0.2s0.3-0.1,0.4-0.2c0.1-0.1,0.2-0.2,0.2-0.4L51.4,113.8z M52.1,106.5
			c-0.3,0.1-0.4,0.1-0.5,0.2c-0.1,0.1-0.2,0.2-0.3,0.4s-0.2,0.3-0.4,0.4c0.2-0.3,0.3-0.5,0.4-0.6c0.1-0.1,0.2-0.2,0.3-0.3
			c-0.6-0.1-1,0-1.3,0.2s-0.5,0.5-0.8,0.7c-0.2,0-0.4,0.1-0.5,0.2c-0.1,0.1-0.2,0.2-0.4,0.3c-0.1,0.1-0.2,0.2-0.4,0.4
			c-0.1,0.1-0.3,0.2-0.5,0.3c-0.2,0.3-0.6,0.6-1.2,0.8c-0.1,0.2-0.2,0.3-0.2,0.5s0,0.4,0,0.6c0.1,0,0.2,0,0.3,0c0.1,0,0.1,0,0.2,0
			c0-0.2,0.1-0.4,0.2-0.5c0.1-0.1,0.2-0.2,0.5-0.2c0.3-0.1,0.6-0.4,0.8-0.7s0.4-0.6,0.7-0.7c0.3,0.4,0.5,0.5,0.5,0.4
			c0.1-0.1,0.1-0.2,0.2-0.2c0.2-0.2,0.4-0.3,0.5-0.3c0.2,0.1,0.3,0.1,0.4,0s0.3-0.1,0.4-0.2c0.1-0.1,0.2-0.1,0.3-0.2
			c0.1,0,0.2,0,0.3,0.2c-0.1,0.2-0.3,0.2-0.5,0.3s-0.4,0.1-0.5,0.3c-0.3,0-0.6,0.1-0.7,0.2c-0.3,0.3-0.6,0.6-0.9,0.8
			c-0.3,0.2-0.5,0.4-0.7,0.6c0-0.3,0.1-0.5,0.1-0.6c0-0.1,0.1-0.1,0.3,0c0-0.2,0-0.2,0-0.3s0.1-0.1,0.2-0.2
			c-0.3,0.1-0.5,0.2-0.7,0.4s-0.4,0.3-0.7,0.4c0.2,0.3,0.4,0.5,0.4,0.6c-0.2,0.2-0.3,0.3-0.5,0.3c-0.2,0-0.4,0.1-0.6,0.4
			c-0.1,0.2-0.2,0.4-0.3,0.6c-0.1,0.2-0.1,0.5,0,0.9c0.3-0.2,0.5-0.4,0.5-0.5s0.1-0.1,0.3-0.1c0,0.2-0.1,0.3-0.2,0.3
			c-0.2,0-0.2,0.2-0.2,0.4c0.2-0.1,0.4-0.1,0.6-0.1c0,0.2-0.1,0.3-0.2,0.3c-0.1,0-0.2,0-0.2,0.1c-0.1,0.2-0.2,0.4-0.2,0.5
			c-0.2,0.1-0.3,0.3-0.4,0.5s-0.2,0.4-0.1,0.7c0.1,0,0.2,0,0.2-0.1c0,0,0.1-0.1,0.1-0.2c0-0.1,0.1-0.1,0.1-0.2
			c0-0.1,0.1-0.1,0.2-0.1c0.5-0.4,1-0.9,1.4-1.3c0.4-0.4,0.8-0.8,1.2-1.2c-0.3,0-0.4,0-0.6,0.1s-0.3,0.1-0.4,0.2
			c-0.1,0-0.2,0.1-0.3,0.2c-0.1,0.1-0.1,0.2,0,0.3c0.1-0.4,0-0.6,0-0.7s-0.1-0.1,0.1-0.2c0.5,0,0.9,0,1.2-0.2
			c-0.1-0.2-0.2-0.4-0.1-0.4c0.1,0,0.1-0.1,0.2-0.1c0.3-0.1,0.4-0.1,0.5-0.1s0.1,0.1,0.1,0.1c0.3-0.5,0.6-0.9,0.8-1
			c0.2-0.1,0.5-0.2,0.9-0.3c0.2-0.4,0.3-0.9,0.2-1.5S52.2,107,52.1,106.5z M47.1,104.8c-0.2,0.2-0.3,0.4-0.3,0.4
			c-0.1,0-0.1,0.1-0.1,0.2c-0.2-0.3-0.2-0.5,0-0.5C46.8,104.8,47,104.7,47.1,104.8z M48.8,86.9c-0.5-0.1-1,0-1.3,0.3
			c-0.4,0.3-0.7,0.7-0.9,0.9c0.2,0,0.4-0.1,0.6-0.2c0.1-0.1,0.3-0.2,0.4-0.3c0.2-0.1,0.5-0.2,0.7-0.3C48.5,87.2,48.7,87,48.8,86.9z
			 M49.9,87.8c-0.1-0.1-0.2-0.2-0.3-0.3c-0.1,0-0.2-0.1-0.3-0.2c-0.3,0.2-0.6,0.4-0.9,0.6c-0.3,0.2-0.6,0.4-0.9,0.6
			c-0.1,0.3-0.2,0.4-0.4,0.5c-0.2,0.1-0.4,0.3-0.4,0.6c0.4-0.2,0.8-0.2,0.9-0.2c0.1-0.2,0.2-0.4,0.4-0.5c0.2-0.1,0.4-0.1,0.5-0.1
			c0.1-0.2,0.2-0.4,0.3-0.4c0.1-0.1,0.2-0.1,0.4-0.1c0-0.2,0.1-0.3,0.2-0.3C49.6,88,49.8,87.9,49.9,87.8z M47.6,102.7
			c-0.1,0.2-0.2,0.3-0.3,0.3c-0.2,0-0.3,0.1-0.3,0.3c-0.1-0.1-0.1-0.1,0-0.3c0.1-0.1,0.1-0.2,0.1-0.3c-0.2-0.2-0.3-0.3-0.3-0.4
			c0-0.1,0.1-0.1,0.1-0.2c0.3,0,0.5,0,0.6-0.1c-0.1,0.1-0.2,0.2-0.3,0.3s-0.1,0.1-0.2,0.2C47.3,102.6,47.5,102.7,47.6,102.7z
			 M51.2,96c-0.3,0-0.6,0.1-0.9,0.2c-0.3,0.1-0.5,0.2-0.8,0.3c-0.1,0.2-0.2,0.4-0.3,0.4c-0.1,0.1-0.2,0.1-0.3,0.2
			c-0.1,0-0.2,0-0.3,0.1c-0.1,0.1-0.2,0.1-0.4,0.2c-0.2,0.1-0.3,0.2-0.5,0.3c-0.2,0.1-0.2,0.2-0.2,0.4c-0.1,0-0.2,0-0.3,0.1
			c-0.1,0.1-0.2,0.1-0.3,0c0.3,0.1,0.6,0.1,0.7,0c0.1,0,0.2-0.1,0.3-0.1c0.2-0.1,0.3-0.1,0.5-0.2c0.2-0.1,0.3-0.1,0.6-0.1
			c0-0.1,0-0.2,0.1-0.2c0.1,0,0.2-0.1,0.2-0.2c0,0.4-0.1,0.7-0.3,0.8c0.2-0.1,0.4-0.2,0.7-0.4s0.5-0.4,0.6-0.6
			c0.1-0.3,0.2-0.5,0.2-0.6c0-0.1,0.1-0.2,0.2-0.2L51.2,96z M47.8,106.2c-0.1-0.1-0.3-0.1-0.4,0s-0.2,0.2-0.3,0.3
			c0.2-0.1,0.4-0.1,0.5-0.1C47.7,106.4,47.8,106.3,47.8,106.2z M51,89.1c-0.1-0.2-0.1-0.3-0.2-0.4c-0.1,0-0.2,0-0.3,0
			c-0.1,0.1-0.2,0.1-0.4,0.2s-0.3,0.1-0.4,0.1c-0.2,0.4-0.5,0.7-0.8,1c-0.3,0.2-0.7,0.4-1.1,0.6c0,0.1,0,0.2-0.1,0.3
			c-0.1,0.1-0.2,0.1-0.2,0.2c-0.1,0-0.1,0.1-0.2,0.2c0,0.1-0.1,0.1,0,0.2c0.1-0.1,0.2-0.2,0.3-0.4s0.3-0.2,0.5-0.1
			c0.3-0.4,0.8-0.7,1.2-0.9c0.5-0.2,1-0.5,1.5-0.7L51,89.1z M47.9,102.2c0,0.1-0.1,0.2-0.2,0.2c-0.1,0-0.1,0.1-0.2,0.2
			c-0.1-0.1-0.1-0.2,0-0.3s0.1-0.1,0.2-0.2L47.9,102.2z M51.8,91c-0.1-0.2-0.2-0.5-0.3-0.6c-0.5,0.1-0.9,0.4-1.2,0.7
			s-0.7,0.6-1.1,0.9c-0.2,0.2-0.4,0.3-0.7,0.4c0.1,0.1,0,0.2-0.3,0.4C48,92.9,47.8,93,47.6,93c0.2,0.3,0.3,0.4,0.5,0.3
			c0.1-0.1,0.2-0.2,0.4-0.3c0.1-0.1,0.2-0.2,0.4-0.3c0.1-0.1,0.3-0.1,0.5-0.1c0.2-0.2,0.4-0.4,0.7-0.6c0.3-0.2,0.6-0.3,1-0.3
			c0.1-0.2,0.3-0.3,0.5-0.3C51.6,91.3,51.7,91.2,51.8,91z M48.6,116c-0.1-0.1-0.2-0.1-0.3-0.1s-0.2,0-0.4,0.1
			c-0.2,0.3-0.2,0.5,0,0.5c0.1-0.1,0.1-0.2,0.2-0.3s0.1-0.1,0.2-0.2L48.6,116z M48.4,107.6c-0.2,0.1-0.3,0.2-0.4,0.3
			s-0.2,0.3-0.1,0.4c0-0.1,0.1-0.2,0.2-0.2s0.1-0.1,0-0.2L48.4,107.6z M48.4,96.2c-0.1,0.1-0.2,0.2-0.3,0.2c-0.1,0-0.2,0.1-0.2,0.2
			C48.1,96.6,48.3,96.4,48.4,96.2z M48.4,106.2c-0.1-0.1-0.2-0.1-0.2-0.2c0-0.1-0.1-0.2-0.2-0.2c0,0.2,0.1,0.4,0.2,0.5
			C48.2,106.2,48.3,106.2,48.4,106.2z M49.5,105c-0.1-0.1-0.2-0.1-0.3-0.1c-0.2,0-0.2,0-0.2,0.2c0.2-0.1,0.3-0.1,0.4,0
			S49.4,105.1,49.5,105z M51.9,105.8c-0.1-0.1-0.1-0.3-0.1-0.5s-0.1-0.3-0.2-0.4c-0.3,0.2-0.7,0.5-0.9,0.7s-0.6,0.5-0.9,0.7
			c-0.2,0.2-0.4,0.4-0.5,0.5s-0.1,0.2,0,0.3c0.4-0.2,0.9-0.5,1.4-0.7S51.5,106,51.9,105.8z M49.9,95.9C49.8,96,49.7,96,49.5,96
			c-0.1,0-0.2,0-0.3,0.1c0.1,0.1,0.3,0.1,0.4,0C49.9,96.1,49.9,96,49.9,95.9z M51,108.8c0,0.2-0.1,0.4-0.4,0.5
			c-0.3,0.1-0.4,0.3-0.4,0.6c-0.2,0-0.3,0.1-0.4,0.1c-0.1,0.1-0.2,0.1-0.4,0c0.2-0.2,0.4-0.4,0.7-0.5c0.2-0.1,0.4-0.3,0.6-0.6H51z
			 M50.2,92.3c-0.1,0.1-0.3,0.2-0.4,0.2c-0.2,0-0.3,0.1-0.3,0.3c0.1,0.1,0.2,0,0.4-0.1C50,92.6,50.2,92.5,50.2,92.3z M50.6,103.2
			c-0.1-0.2-0.2-0.4-0.4-0.4s-0.5,0-0.7,0.1c0.1,0.1,0.1,0.2,0,0.3s-0.1,0.1,0,0.2c0.2-0.1,0.5-0.2,0.7-0.2
			C50.4,103.3,50.6,103.3,50.6,103.2z M50.6,107.8c-0.3,0.1-0.5,0.2-0.5,0.5c-0.2-0.1-0.3-0.1-0.3,0.1c0,0.1-0.1,0.3-0.1,0.4
			c0-0.2-0.1-0.3-0.1-0.5c0.2-0.1,0.4-0.2,0.5-0.4C50.2,107.6,50.4,107.6,50.6,107.8z M51.2,104c0-0.2-0.1-0.2-0.2-0.3
			c-0.1,0-0.2-0.1-0.1-0.3c-0.2,0.1-0.3,0.1-0.4,0.2s-0.1,0.2-0.1,0.3c-0.2,0-0.3,0-0.4,0.1c0,0.1-0.2,0.2-0.4,0.1
			c-0.2,0.4-0.2,0.6-0.1,0.6c0.4-0.3,0.7-0.5,0.8-0.6S50.9,104,51.2,104z M52.1,91.9c-0.4,0.2-0.7,0.3-1,0.4
			c-0.3,0.1-0.5,0.3-0.7,0.5c-0.2,0.2-0.3,0.3-0.4,0.3c-0.1,0-0.2,0.1-0.3,0.3c0.2,0,0.4-0.1,0.5-0.2c0.2-0.1,0.3-0.2,0.5-0.3
			c0.2-0.1,0.3-0.1,0.5-0.2c0.2,0,0.3,0.1,0.4,0.3c-0.2,0.2-0.3,0.4-0.5,0.5s-0.4,0.3-0.5,0.5c0.3,0,0.5,0,0.6-0.2s0.3-0.2,0.6-0.2
			c0.1-0.2,0.1-0.3,0.2-0.5c0-0.2,0-0.3-0.2-0.4c0.2-0.2,0.2-0.3,0.2-0.5C52,92.2,52,92.1,52.1,91.9z M51.8,94.3
			c-0.2,0.2-0.3,0.3-0.6,0.4c-0.2,0.1-0.4,0.3-0.5,0.6c-0.2,0.1-0.3,0.1-0.5,0.2c-0.2,0.1-0.3,0.2-0.2,0.4c0.3-0.1,0.4-0.2,0.4-0.1
			c0,0.1,0,0.1,0.1,0c0.2-0.2,0.3-0.2,0.6-0.2c0.1-0.2,0.3-0.4,0.4-0.7C51.8,94.8,51.9,94.5,51.8,94.3z M50.9,92c-0.1,0-0.2,0-0.4,0
			c-0.2,0-0.2,0-0.2,0.2c0.2-0.1,0.4-0.1,0.4-0.1C50.8,92.1,50.9,92.1,50.9,92z M52.3,111.2c0-0.2,0-0.3,0-0.5s0-0.3-0.1-0.4
			c-0.3,0.2-0.4,0.3-0.5,0.3c0,0-0.1,0.1-0.1,0.1c-0.3,0.1-0.5,0.2-0.7,0.5s-0.4,0.5-0.8,0.6c0.2,0,0.5-0.1,0.8-0.2s0.5-0.2,0.6-0.5
			c0.1,0.1,0.2,0.1,0.4,0C52.1,111.3,52.2,111.2,52.3,111.2z M51,104.6c-0.1,0.1-0.2,0.1-0.3,0.1c-0.1,0-0.2-0.1-0.3-0.1
			c0.2,0.2,0.4,0.3,0.4,0.3c0.1,0,0.1,0,0.1,0L51,104.6z M51.9,112.6c-0.3,0-0.4,0-0.5,0.1c0,0.1-0.1,0.2-0.2,0.4
			c-0.4,0.2-0.6,0.4-0.5,0.4c0,0,0.1,0.1,0.2,0.2c0.1-0.1,0.2-0.2,0.3-0.3c0.1-0.1,0.2-0.2,0.2-0.3c0.1,0.1,0.2,0.1,0.3,0
			C51.8,112.9,51.8,112.8,51.9,112.6z M51.9,110c-0.1-0.1-0.2-0.2-0.4-0.1c-0.2,0.1-0.2,0.2-0.2,0.4c0.1,0.1,0.2,0,0.4,0
			C51.8,110.1,51.9,110,51.9,110z"/>
	</g>
        <g>
		<g>
			<defs>
				<rect id="SVGID_1_" x="74.8" y="41.9" width="88.4" height="120.6"/>
			</defs>
            <clipPath id="SVGID_2_">
				<use xlink:href="#SVGID_1_" style="overflow:visible;"/>
			</clipPath>
            <path class="st1" d="M77,134.2c1.1,0,2-0.9,2-2V52c0-2.9,3.1-6,6-6h68.2c2.9,0,6,3.1,6,6c0,1.1,0.9,2,2,2c1.1,0,2-0.9,2-2
				c0-5.2-4.9-10-10-10H85c-5.2,0-10,4.9-10,10v80.2C75,133.3,75.9,134.2,77,134.2L77,134.2z M77,134.2"/>
            <path class="st1" d="M161.2,58H85c-1.1,0-2,0.9-2,2c0,1.1,0.9,2,2,2h74.2v90.2c0,2.9-3.1,6-6,6H85c-2.9,0-6-3.1-6-6v-10h74.2
				c1.1,0,2-0.9,2-2c0-1.1-0.9-2-2-2H77c-1.1,0-2,0.9-2,2v12c0,5.2,4.9,10,10,10h68.2c5.2,0,10-4.9,10-10V60
				C163.2,58.9,162.3,58,161.2,58L161.2,58z M161.2,58"/>
		</g>
            <path d="M119.1,50c-1.1,0-2,0.9-2,2c0,1.1,0.9,2,2,2c1.1,0,2-0.9,2-2C121.1,50.9,120.2,50,119.1,50L119.1,50z M119.1,50"/>
            <path d="M131.7,70.6c-0.8,0.8-0.8,2.1,0,2.8l16,16c0.4,0.4,0.9,0.6,1.4,0.6c0.5,0,1-0.2,1.4-0.6c0.8-0.8,0.8-2.1,0-2.8l-16-16
			C133.7,69.8,132.5,69.8,131.7,70.6L131.7,70.6z M131.7,70.6"/>
            <path d="M115.1,150.2c0,2.2,1.8,4,4,4c2.2,0,4-1.8,4-4c0-2.2-1.8-4-4-4C116.9,146.2,115.1,148,115.1,150.2L115.1,150.2z
			 M115.1,150.2"/>
            <path d="M149.1,78c0.5,0,1-0.2,1.4-0.6c0.8-0.8,0.8-2.1,0-2.8l-4-4c-0.8-0.8-2-0.8-2.8,0c-0.8,0.8-0.8,2.1,0,2.8l4,4
			C148.1,77.8,148.6,78,149.1,78L149.1,78z M149.1,78"/>
	</g>
</g>
</svg>
