<?xml version="1.0" encoding="utf-8"?>
<!-- Generator: Adobe Illustrator 22.0.1, SVG Export Plug-In . SVG Version: 6.00 Build 0)  -->
<svg version="1.1" id="Layer_1" xmlns="http://www.w3.org/2000/svg" x="0px"
     y="0px"
     viewBox="0 0 200 200" style="enable-background:new 0 0 200 200;" xml:space="preserve">
<style type="text/css">
	.st0{fill:#34C0C1;}
</style>
    <g>
	<circle class="st0" cx="62.5" cy="100" r="50"/>
        <g>
		<path d="M108.3,114.6c0,1.2,0.9,2.1,2.1,2.1h8.3c1.2,0,2.1-0.9,2.1-2.1v-12.5c0-1.1-0.9-2.1-2.1-2.1h-8.3c-1.1,0-2.1,0.9-2.1,2.1
			V114.6z M112.5,104.2h4.2v8.3h-4.2V104.2z M112.5,104.2"/>
            <path d="M110.4,91.7h8.3c1.2,0,2.1-0.9,2.1-2.1V77.1c0-1.2-0.9-2.1-2.1-2.1h-8.3c-1.1,0-2.1,0.9-2.1,2.1v12.5
			C108.3,90.7,109.3,91.7,110.4,91.7L110.4,91.7z M112.5,79.2h4.2v8.3h-4.2V79.2z M112.5,79.2"/>
            <path d="M94.8,76.8L125,58.7l30.2,18.1c0.3,0.2,0.7,0.3,1.1,0.3c0.7,0,1.4-0.4,1.8-1c0.6-1,0.3-2.3-0.7-2.9l-30.2-18.1V41.7h10.4
			v4.2h-6.3c-1.2,0-2.1,0.9-2.1,2.1c0,1.2,0.9,2.1,2.1,2.1h8.3c1.2,0,2.1-0.9,2.1-2.1v-8.3c0-1.2-0.9-2.1-2.1-2.1H125
			c-1.2,0-2.1,0.9-2.1,2.1v15.5L92.7,73.2c-1,0.6-1.3,1.9-0.7,2.9C92.6,77.1,93.8,77.4,94.8,76.8L94.8,76.8z M94.8,76.8"/>
            <path d="M85.4,116.7c1.2,0,2.1-0.9,2.1-2.1v-12.5c0-1.2-0.9-2.1-2.1-2.1h-8.3c-1.1,0-2.1,0.9-2.1,2.1v4.2c0,1.1,0.9,2.1,2.1,2.1
			c1.2,0,2.1-0.9,2.1-2.1v-2.1h4.2v10.4C83.3,115.7,84.3,116.7,85.4,116.7L85.4,116.7z M85.4,116.7"/>
            <path d="M100,143.7V83.3c0-1.2-0.9-2.1-2.1-2.1c-1.2,0-2.1,0.9-2.1,2.1v60.4c0,1.2,0.9,2.1,2.1,2.1
			C99.1,145.8,100,144.9,100,143.7L100,143.7z M100,143.7"/>
            <path d="M89.6,154.2h70.8c1.2,0,2.1-0.9,2.1-2.1c0-1.2-0.9-2.1-2.1-2.1h-18.7v-20.8h2.1c1.2,0,2.1-0.9,2.1-2.1
			c0-1.1-0.9-2.1-2.1-2.1h-37.5c-1.1,0-2.1,0.9-2.1,2.1c0,1.2,0.9,2.1,2.1,2.1h2.1V150H89.6c-1.2,0-2.1,0.9-2.1,2.1
			C87.5,153.2,88.4,154.2,89.6,154.2L89.6,154.2z M127.1,141.7c1.2,0,2.1-0.9,2.1-2.1c0-1.2-0.9-2.1-2.1-2.1v-8.3h10.4V150h-10.4
			V141.7z M112.5,129.2h10.4v8.3c-1.1,0-2.1,0.9-2.1,2.1c0,1.1,0.9,2.1,2.1,2.1v8.3h-10.4V129.2z M112.5,129.2"/>
            <path d="M172.9,127.1h-8.3c-1.2,0-2.1,0.9-2.1,2.1v12.5c0,1.2,0.9,2.1,2.1,2.1h8.3c1.2,0,2.1-0.9,2.1-2.1v-12.5
			C175,128,174.1,127.1,172.9,127.1L172.9,127.1z M170.8,139.6h-4.2v-8.3h4.2V139.6z M170.8,139.6"/>
            <path d="M172.9,102.1h-8.3c-1.2,0-2.1,0.9-2.1,2.1v12.5c0,1.1,0.9,2.1,2.1,2.1h8.3c1.2,0,2.1-0.9,2.1-2.1v-12.5
			C175,103,174.1,102.1,172.9,102.1L172.9,102.1z M170.8,114.6h-4.2v-8.3h4.2V114.6z M170.8,114.6"/>
            <path d="M168.7,158.3H81.3c-1.2,0-2.1,0.9-2.1,2.1c0,1.1,0.9,2.1,2.1,2.1h87.5c1.2,0,2.1-0.9,2.1-2.1
			C170.8,159.3,169.9,158.3,168.7,158.3L168.7,158.3z M168.7,158.3"/>
            <path d="M185.4,83.3c-1.2,0-2.1,0.9-2.1,2.1v2.1h-22.9c-1.2,0-2.1,0.9-2.1,2.1c0,1.2,0.9,2.1,2.1,2.1h22.9v68.7
			c0,1.1,0.9,2.1,2.1,2.1c1.2,0,2.1-0.9,2.1-2.1v-75C187.5,84.3,186.6,83.3,185.4,83.3L185.4,83.3z M185.4,83.3"/>
            <path d="M129.2,114.6c0,1.2,0.9,2.1,2.1,2.1h8.3c1.2,0,2.1-0.9,2.1-2.1v-12.5c0-1.1-0.9-2.1-2.1-2.1h-8.3c-1.2,0-2.1,0.9-2.1,2.1
			V114.6z M133.3,104.2h4.2v8.3h-4.2V104.2z M133.3,104.2"/>
            <path d="M83.3,139.6c0-0.3-0.1-27.1-10.4-27.1c-10.3,0-10.4,26.8-10.4,27.1c0,5,3.6,9.2,8.3,10.2v10.6c0,1.2,0.9,2.1,2.1,2.1
			c1.2,0,2.1-0.9,2.1-2.1v-10.6C79.7,148.8,83.3,144.6,83.3,139.6L83.3,139.6z M72.9,145.8c-3.4,0-6.3-2.8-6.3-6.2
			c0-10.4,2.8-22.9,6.3-22.9c3.5,0,6.2,12.5,6.2,22.9C79.2,143,76.4,145.8,72.9,145.8L72.9,145.8z M72.9,145.8"/>
            <path d="M154.2,143.7V81.2c0-1.1-0.9-2.1-2.1-2.1c-1.2,0-2.1,0.9-2.1,2.1v62.5c0,1.2,0.9,2.1,2.1,2.1
			C153.2,145.8,154.2,144.9,154.2,143.7L154.2,143.7z M154.2,143.7"/>
            <path d="M131.2,91.7h8.3c1.2,0,2.1-0.9,2.1-2.1V77.1c0-1.2-0.9-2.1-2.1-2.1h-8.3c-1.2,0-2.1,0.9-2.1,2.1v12.5
			C129.2,90.7,130.1,91.7,131.2,91.7L131.2,91.7z M133.3,79.2h4.2v8.3h-4.2V79.2z M133.3,79.2"/>
            <path d="M64.6,110.4c1.1,0,2.1-0.9,2.1-2.1V91.7h22.9c1.2,0,2.1-0.9,2.1-2.1c0-1.2-0.9-2.1-2.1-2.1H66.7v-2.1
			c0-1.2-0.9-2.1-2.1-2.1c-1.2,0-2.1,0.9-2.1,2.1v22.9C62.5,109.5,63.4,110.4,64.6,110.4L64.6,110.4z M64.6,110.4"/>
	</g>
        <g>
		<path d="M49.8,120.4c-0.4,0-0.7,0-1,0s-0.4,0-0.4-0.3c-0.2,0.2-0.4,0.3-0.4,0.2s-0.1,0-0.2,0c0-0.2-0.1-0.3-0.4-0.2
			c-0.3,0.1-0.5,0.1-0.6-0.1c-0.1,0.1-0.2,0.1-0.2,0.2c0,0.1-0.1,0.1-0.2,0.2c-0.3,0-0.5,0-0.6,0c-0.2,0-0.3,0-0.5-0.1
			c-0.1-0.1-0.3-0.1-0.5-0.2c-0.2-0.1-0.4-0.1-0.6-0.2c-0.2,0.1-0.3,0.1-0.5,0c-0.1-0.1-0.2-0.1-0.2,0.1c-0.4,0-0.7,0-0.9,0
			c-0.2,0-0.4,0.1-0.5,0.2c-0.5-0.1-0.8-0.2-1-0.3c-0.2-0.1-0.4,0-0.7,0.1c-0.1-0.1-0.3-0.2-0.5-0.2c-0.3,0-0.5,0.1-0.6,0.1
			c-0.1-0.1-0.2-0.1-0.3-0.1c-0.2,0-0.3,0-0.5,0c0,0.1,0,0.2-0.1,0.2c-0.1,0-0.3,0-0.4,0c-0.2,0-0.3,0-0.5,0c-0.2,0-0.3,0-0.4,0.1
			c-0.4-0.1-0.7-0.1-0.9-0.1c-0.2,0-0.4,0-0.6,0.1c-0.2,0-0.4,0.1-0.6,0.2c-0.2,0.1-0.4,0.1-0.6,0.1c-0.3-0.1-0.5-0.1-0.6-0.1
			c-0.2,0-0.3,0-0.5,0c-0.2,0.2-0.4,0.3-0.8,0.4c-0.4,0.1-0.7,0.2-1,0.2c-0.3,0-0.5,0-0.7-0.1c-0.2-0.1-0.3-0.3-0.3-0.6
			c0.9-0.2,1.8-0.5,2.6-0.7s1.6-0.6,2.2-1.1c-0.3-0.2-0.3-0.4-0.1-0.5c0.2-0.1,0.3-0.1,0.5,0c0-0.2,0.1-0.5,0.4-0.7
			c0.2,0.1,0.4,0,0.5-0.2c-0.1-0.1-0.1-0.3,0-0.5c0.1-0.2,0.1-0.4,0.2-0.5c0-0.2,0-0.3,0-0.4c0-0.1-0.2-0.2-0.5-0.2
			c0-0.1,0-0.2,0-0.2c0-0.1-0.1-0.2-0.1-0.3c0.3-0.3,0.5-0.6,0.6-0.9c0.1-0.3,0.1-0.7,0.1-1c-0.2-0.1-0.3-0.3-0.4-0.4
			c0-0.2,0-0.3,0.1-0.5c0.1-0.2,0.2-0.4,0.3-0.5s0.1-0.4,0.1-0.6l-0.5,0.4c-0.1-0.1-0.2,0-0.2,0.1c0,0.1-0.2,0.2-0.4,0.2
			c0.1-0.3,0.2-0.5,0.3-0.6c0.1,0,0.2-0.1,0.2-0.3c0.1-0.2,0.2-0.4,0.3-0.4c0-0.1,0-0.1-0.1-0.2c0.3-0.4,0.5-0.8,0.5-1.2
			c0-0.4-0.1-0.7-0.3-1c0-0.2,0-0.3,0-0.4c0.1,0,0.1-0.1,0.2-0.1c0-0.4,0.1-0.8,0.2-1.3c0.1-0.5,0.1-1-0.2-1.4
			c0-0.3-0.1-0.5-0.4-0.5c0.1-0.3,0.1-0.5,0.1-0.5c-0.1,0-0.1,0-0.1-0.1c0.5-0.6,0.6-1.3,0.5-2c0-0.1-0.1-0.2-0.1-0.3
			s-0.1-0.2-0.1-0.3c0-0.1,0-0.3,0.1-0.4c0-0.2,0.1-0.3,0.1-0.5c0-0.2,0-0.3,0-0.4c0-0.1-0.1-0.2-0.3-0.3c0-0.2,0-0.3-0.1-0.5
			c-0.1-0.2,0-0.3,0.2-0.3c0.1-0.8,0.1-1.6,0.1-2.4s0-1.6,0-2.3c-0.2,0.1-0.3,0.2-0.5,0.4c-0.2,0.1-0.4,0.3-0.5,0.4
			c-0.3,0.1-0.4,0.1-0.4,0c0-0.1,0-0.2-0.1-0.3c0-0.3,0.1-0.5,0.3-0.6c0.2,0,0.4-0.1,0.5-0.2c0.1-0.2,0.2-0.4,0.4-0.6
			c0.1-0.2,0.1-0.4,0-0.6c-0.3,0.1-0.4,0.2-0.5,0.3c-0.1,0.1-0.3,0.2-0.5,0.3c0-0.3,0-0.5-0.1-0.5c-0.1,0-0.1,0-0.1,0
			c0.2-0.3,0.4-0.5,0.7-0.5c0-0.2,0-0.4,0.2-0.4c0.1,0,0.2-0.1,0.3-0.2c-0.1-0.4-0.2-0.6-0.3-0.7c-0.1,0-0.2-0.1-0.3-0.3
			c0.2-0.2,0.3-0.5,0.3-0.8c0-0.2-0.1-0.5-0.3-0.7c-0.2-0.2-0.4-0.4-0.6-0.4c-0.3-0.1-0.5-0.1-0.8-0.1c-0.5-0.1-1-0.1-1.5-0.1
			c-0.4,0.1-0.9,0.2-1.3,0.3c-0.1-0.1-0.1-0.1-0.2-0.2c-0.1-0.1-0.2,0-0.3,0c-0.1-0.2-0.1-0.3-0.2-0.4c0-0.1,0-0.3,0-0.5
			c0.3-0.2,0.7-0.4,1.1-0.4c0.4-0.1,0.8,0,1.3,0.1c0.5-0.2,1-0.2,1.6-0.1c0.6,0.1,1.1,0,1.7-0.3c1.5-0.1,2.9-0.4,4.2-0.9
			c0.7-0.1,1.2-0.3,1.6-0.7c0.3-0.4,0.6-0.8,0.9-1.2c0.6,0,0.9,0.2,0.9,0.5c0,0.3-0.1,0.6-0.2,0.9c0.1,0.2,0.1,0.3,0,0.4
			c0,0.1,0,0.2,0.1,0.4c0.2,0.1,0.4,0,0.6-0.1c0.2-0.1,0.3-0.3,0.4-0.4c0.3,0,0.4-0.1,0.4-0.2c0-0.1,0-0.1,0.2-0.1
			c0,0.5-0.1,0.8-0.2,0.9c-0.2,0.1-0.3,0.3-0.5,0.4c-0.2-0.3-0.4-0.4-0.5-0.3c-0.1,0.1-0.2,0.2-0.3,0.3c0.2-0.1,0.3-0.1,0.4,0
			c0.1,0.1,0.2,0.1,0.3,0c-0.4,0.3-0.6,0.5-0.7,0.8c0.1,0.3,0.1,0.7,0,0.9c-0.1,0.3-0.1,0.6,0,1c0.1,0.3,0.1,0.6,0.1,0.8
			c0,0.2,0,0.4,0,0.7c-0.2,0.1-0.2,0.2-0.2,0.4c0,0.1,0.1,0.2,0.2,0.3c-0.1,0.2-0.1,0.3-0.1,0.4c0,0.1-0.1,0.2-0.2,0.4
			c0.2,0.3,0.4,0.5,0.3,0.6c0,0.2,0,0.3,0,0.4c-0.1,0.4-0.1,0.6,0,0.5c0.1,0,0.2,0,0.3,0.1c-0.3,0.5-0.4,0.9-0.4,1.1
			c0,0.2,0,0.5,0,0.8c-0.1,0.3-0.1,0.4,0,0.4c0.1,0,0.1,0.1,0.2,0.1c0,0.3,0,0.5,0,0.5c0,0,0,0,0,0.1c-0.1,0-0.2,0-0.3,0.1
			c-0.1,0.1-0.2,0.1-0.3-0.1c0,0.2,0,0.3,0.1,0.3c0.1,0,0.1,0.1,0.1,0.2c-0.3,0.1-0.5,0.2-0.4,0.4c0.2,0.4,0.4,0.7,0.4,0.9
			c0,0.2,0,0.4,0,0.6c-0.1,0.4-0.1,0.8-0.1,1c0,0.2,0,0.4,0,0.6c0.3-0.2,0.5-0.2,0.6-0.2c0.1,0,0.2,0.1,0.3,0.1
			c-0.1,0.3-0.2,0.5-0.4,0.8c-0.2,0.2-0.4,0.5-0.5,0.8c0.1,0.1,0.1,0.3,0.1,0.5c0,0.2-0.1,0.4-0.2,0.5c0.1,0.2,0.1,0.4,0.2,0.7
			c0,0.3-0.1,0.5-0.2,0.6c0.2,0.1,0.3,0.2,0.3,0.4c0,0.2,0.2,0.3,0.4,0.4c-0.3,0.2-0.4,0.4-0.4,0.6c0,0.2,0.1,0.4,0.2,0.6
			c-0.3,0.7-0.4,1.3-0.3,1.7c0,0.1-0.1,0.2-0.2,0.2c-0.1,0-0.1,0.1-0.2,0.2c0.3,0,0.4,0.1,0.3,0.3c-0.1,0.2-0.2,0.3-0.2,0.3
			c0.2,0.3,0.2,0.7,0.1,1c-0.1,0.3-0.1,0.6,0,0.9c-0.1,0.3,0,0.6,0,0.9c0.1,0.3,0.1,0.7,0,1c0.1,0.3,0.1,0.6,0.1,0.8
			c0,0.2,0,0.3-0.1,0.5c0.3,0.2,0.5,0.4,0.5,0.5c0,0.1,0,0.2,0,0.3c0,0.1-0.1,0.2-0.2,0.4c-0.1,0.1-0.1,0.2-0.1,0.3
			c0,0.3,0,0.5,0.1,0.8c0.1,0.2,0.2,0.5,0.1,0.8c0.2,0.2,0.3,0.3,0.4,0.5c0.4,0,0.6,0,0.6,0.1c0,0.1,0.1,0.2,0.2,0.2
			c-0.2,0.3-0.2,0.5-0.1,0.6c0.1,0.1,0.2,0.1,0.3,0.2c0.3-0.1,0.5-0.2,0.4-0.3c-0.1,0-0.1-0.1-0.1-0.2c0.2,0,0.3,0.1,0.3,0.3
			c0,0.2,0,0.3,0.2,0.4c0.6,0,1.1,0,1.8,0c0.6,0,1.1-0.1,1.5-0.4c0.2,0.1,0.3,0.2,0.4,0.3s0.1,0.3,0,0.4c0,0.2,0,0.3,0,0.4
			C49.7,120.3,49.7,120.4,49.8,120.4z M37.8,88c-0.3-0.1-0.5,0-0.7,0c-0.2,0.1-0.5,0.1-0.8,0c0.1,0.2,0.2,0.3,0.1,0.5
			c0,0.2,0,0.4,0.2,0.6c0.2-0.1,0.3-0.1,0.4-0.3c0.1-0.1,0.1-0.2,0.2-0.4C37.5,88.6,37.7,88.4,37.8,88z M43.5,92.9
			c-0.3-0.2-0.4-0.6-0.4-0.9s0-0.7,0-1.1C43,90.6,43,90.3,43.2,90C43,90,43,89.8,43,89.5c0-0.4,0-0.6,0-0.8c0-0.2,0-0.3,0-0.5
			c-0.2,0.1-0.3,0.1-0.4,0.2c-0.1,0.1-0.3,0.1-0.5,0.1c0.1,0.3,0,0.5-0.3,0.6c-0.3,0.1-0.5,0.2-0.8,0.1c0.1-0.2,0.2-0.2,0.4-0.2
			c0.2,0,0.3-0.1,0.4-0.2c-0.3-0.2-0.4-0.3-0.6-0.3c-0.1,0-0.3,0.1-0.5,0.2c0-0.2,0-0.3,0-0.4c0-0.1,0.1-0.1,0.2-0.2
			c0.3,0.1,0.5,0.1,0.6,0c0.1-0.1,0.2,0,0.2,0.1c0.2-0.1,0.4-0.2,0.5-0.2c0.1,0,0.2-0.1,0.3-0.1c0.2-0.1,0.3-0.3,0.4-0.7
			c-0.2,0.1-0.3,0.1-0.4,0.2c-0.1,0.1-0.3,0.1-0.4,0.2c-0.1,0.1-0.2,0-0.1,0s0.1-0.2,0.2-0.3c0.1-0.1,0.1-0.2,0.2-0.2
			c0.1,0,0.2,0,0.3,0.1c0-0.4,0.1-0.6,0.2-0.8c0.1-0.1,0.2-0.3,0.1-0.4c-0.4,0.4-0.9,0.6-1.4,0.8c-0.1,0.2-0.3,0.4-0.4,0.4
			c-0.2,0.1-0.3,0.1-0.5,0c-0.1,0.2-0.2,0.4-0.4,0.4c-0.2,0-0.4,0.1-0.5,0.3c-0.1,0-0.2,0.1-0.2,0.2c0,0.1-0.1,0.1-0.3,0.1
			c0,0.2-0.1,0.3-0.3,0.4c-0.2,0.1-0.3,0.1-0.4,0c-0.2,0.2-0.3,0.4-0.4,0.6c-0.1,0.2-0.2,0.3-0.4,0.3c-0.1,0.3-0.4,0.6-0.8,0.8
			c0.1,0.2,0.1,0.3,0.1,0.3c0,0-0.1,0.1-0.1,0.3c0.2-0.2,0.5-0.3,0.7-0.4s0.3-0.1,0.5-0.1c0.2-0.2,0.3-0.4,0.4-0.6
			c0.1-0.2,0.4-0.3,0.7-0.2c0-0.3,0-0.4,0.2-0.4c0.1,0.1,0.2,0,0.3-0.1c0.1-0.3,0.2-0.4,0.3-0.4c0.1,0,0.2,0.1,0.2,0.1
			c-0.1,0.2-0.3,0.4-0.5,0.6c-0.3,0.2-0.6,0.5-0.9,0.7c-0.3,0.1-0.5,0.2-0.6,0.3c-0.1,0.1-0.2,0.2-0.3,0.4c-0.3,0-0.4,0.1-0.6,0.4
			c-0.1,0.3-0.3,0.5-0.4,0.7c0.2,0.1,0.3,0.1,0.4,0c0.1-0.1,0.3-0.1,0.4,0c0.2-0.2,0.4-0.4,0.4-0.6c0.1,0.1,0.2,0.1,0.3,0.2
			c0.2,0,0.3,0,0.3,0c0-0.2,0-0.2-0.1-0.3c-0.1,0-0.1-0.1-0.2-0.2c0.1,0.1,0.3,0.1,0.5,0.1c0.2-0.1,0.3,0,0.4,0.2
			c0.1-0.1,0.1-0.2,0.1-0.3c0-0.1,0-0.2,0.1-0.3c0-0.2,0-0.4,0-0.5c0-0.1,0.1-0.1,0.1-0.2c0.4,0.2,0.6,0.4,0.6,0.4c0,0,0.1,0,0.3,0
			c0.2-0.1,0.4-0.2,0.4-0.3c0.1-0.1,0.2-0.1,0.4-0.2c0.2,0,0.3,0.1,0.2,0.2c0,0.1,0,0.2,0.2,0.3c-0.5,0-0.8,0-0.9-0.1
			c0,0.2,0,0.2-0.1,0.3c-0.1,0-0.2,0-0.4,0c-0.2,0.3-0.5,0.6-1,0.8c-0.5,0.2-0.8,0.5-1,0.8c-0.6,0.3-1,0.8-1.2,1.3
			c-0.1,0.3-0.1,0.4,0,0.4c0.1,0,0.2,0.1,0.2,0.2c0,0.2,0.1,0.4,0.1,0.6c0,0.2,0,0.4-0.2,0.4c0.2,0.1,0.2,0.2,0.1,0.4
			c-0.1,0.2-0.1,0.4-0.1,0.5c0.2-0.2,0.4-0.3,0.6-0.4s0.4-0.2,0.7-0.2c-0.2-0.2-0.3-0.3-0.4-0.4c0.2-0.2,0.4-0.3,0.6-0.4
			s0.4-0.1,0.6,0c-0.2-0.2-0.3-0.3-0.4-0.2c-0.1,0-0.2,0-0.3-0.2c0.1,0,0.1-0.1,0.1-0.2c0-0.1,0-0.2-0.1-0.3C38.9,94,39,94,39,94
			c0.1,0,0.1,0,0.2,0c0.2,0.3,0.3,0.4,0.4,0.4c0,0,0,0.1,0,0.1c0.1-0.1,0.1-0.1,0.2-0.2c0.1-0.1,0.2-0.1,0.3,0
			c0.1-0.1,0.2-0.2,0.2-0.3c0.1-0.1,0.1-0.1,0.2-0.2c0.2,0.1,0.3,0.1,0.3,0c0-0.1,0.1-0.1,0.2,0c0.2-0.3,0.3-0.5,0.4-0.4
			c0.1,0.1,0.2,0,0.4,0c0.2-0.1,0.3-0.2,0.2-0.3c0-0.1,0-0.1,0.2-0.1c0.2,0.1,0.2,0.2,0.1,0.4c-0.1,0.2-0.1,0.3-0.2,0.4
			c-0.2,0.1-0.4,0.2-0.5,0.1s-0.1,0-0.1,0.1c-0.2,0.3-0.3,0.5-0.4,0.6c-0.1,0-0.2,0.1-0.4,0.1s-0.3,0-0.4,0s-0.2,0-0.3,0.1
			c-0.1,0.3-0.1,0.5-0.1,0.6c0.1,0,0,0.1-0.2,0.1c-0.3,0-0.6-0.1-0.8-0.1c-0.2-0.1-0.4-0.1-0.7-0.1c0.1,0.3,0.2,0.4,0.3,0.4
			c0.1,0,0.1,0,0.1,0.1c0.2,0,0.3,0,0.4,0.1c0.1,0.1,0.3,0,0.4-0.2c0,0.1,0,0.1,0.1,0.2c0.1,0.1,0.2,0.1,0.5,0c0-0.2,0-0.2,0.2-0.1
			c0.2,0.1,0.3,0,0.3-0.1c0.2,0.2,0.3,0.3,0.3,0.4s0,0.2,0,0.2c-0.2-0.2-0.3-0.2-0.6-0.1c-0.2,0.1-0.4,0.2-0.6,0.2
			c-0.3,0.2-0.5,0.5-0.8,0.9c-0.3,0.4-0.5,0.5-0.8,0.5c-0.1-0.1-0.1-0.1-0.2,0c-0.1,0.1-0.2,0.1-0.5,0c0.2,0.3,0.2,0.4,0.1,0.4
			c-0.1,0-0.1,0.1-0.2,0.1c-0.1,0.2-0.1,0.4-0.2,0.4c-0.1,0.1-0.2,0.1-0.3,0.2c0.1,0.2,0.1,0.3,0,0.4c0,0.1-0.1,0.2-0.2,0.3
			c0.4,0.1,0.6,0.2,0.6,0.3c0.4,0,0.7,0.1,0.8,0.3c-0.2,0-0.3,0.1-0.4,0.2c-0.1,0.1-0.2,0.2-0.3,0.3c-0.1,0.1-0.2,0.2-0.3,0.3
			c-0.1,0.1-0.2,0.2-0.3,0.2c0.1,0.2,0.1,0.3,0.1,0.3c0,0.1-0.1,0.2-0.1,0.3c0.1,0.1,0.1,0.1,0.2,0c0.1-0.1,0.2-0.1,0.3-0.1
			c0,0.2,0,0.2,0,0.3c0,0,0,0.1,0,0.3c0.1,0.2,0.1,0.3,0,0.4c-0.1,0.1-0.1,0.2-0.1,0.4c0,0.1-0.1,0.2-0.2,0.3s-0.1,0.2-0.1,0.4
			c0.2,0.3,0.3,0.4,0.3,0.4c0.1,0,0.1,0,0,0.1c0.3-0.1,0.7-0.3,1.1-0.7c0.4-0.4,0.7-0.8,1.1-1.2c0.1,0,0.2,0,0.2,0
			c0,0,0.1,0,0.3,0.1c0.2-0.2,0.3-0.4,0.4-0.6c0.1-0.2,0.3-0.3,0.6-0.4c0.3-0.4,0.5-0.6,0.7-0.8c0.2-0.1,0.3-0.3,0.4-0.6
			c-0.4-0.1-0.6-0.1-0.7-0.1c-0.1,0-0.2,0-0.3,0c-0.1,0.1-0.2,0.1-0.3,0.2c-0.1,0-0.3,0-0.4,0c-0.1,0-0.2,0-0.3,0.1
			c-0.1,0-0.1,0.2,0,0.4c-0.4,0.2-0.6,0.4-0.6,0.4c0,0.1-0.1,0.1-0.2,0.2c-0.3,0.1-0.4,0.2-0.4,0.1s-0.1-0.1-0.1-0.2
			c0.1-0.1,0.2-0.2,0.3-0.3s0.3-0.1,0.5-0.1c0.1-0.2,0.2-0.3,0.3-0.3c0.1,0,0.2-0.1,0.2-0.2c0-0.2,0-0.3,0.2-0.4s0.3,0,0.5,0.1
			c0.2-0.2,0.3-0.4,0.4-0.5c0.1-0.1,0.3-0.1,0.5-0.1c0.2-0.1,0.3-0.2,0.3-0.4c0-0.2,0.1-0.3,0.3-0.3c0.3,0,0.4-0.1,0.4-0.3
			c0-0.2,0-0.4,0-0.6c-0.2-0.1-0.4-0.1-0.5-0.3c-0.1-0.1-0.1-0.3,0-0.5c-0.2,0-0.3,0-0.3,0s-0.1-0.1-0.3,0c-0.3,0.1-0.5,0.2-0.6,0.2
			c0,0.1,0,0.1,0,0.2c-0.1,0.1-0.3,0.2-0.5,0.2c-0.2,0.1-0.4,0.1-0.4,0.2c0.1,0.2,0.2,0.3,0.2,0.3c0,0,0.1,0.1,0.1,0.1
			c-0.3,0.1-0.5,0.2-0.7,0.2c-0.2,0-0.2,0.2-0.1,0.4L39.5,99c-0.1,0.3-0.2,0.4-0.2,0.5c-0.1,0.1-0.1,0.1-0.2,0.2
			c0,0.2,0,0.3-0.1,0.3c-0.1,0-0.1,0.1-0.2,0.2c-0.3-0.2-0.4-0.3-0.4-0.4c0-0.1,0-0.1-0.2-0.1c-0.3,0.1-0.4,0.1-0.4,0
			c0-0.1,0-0.2-0.1-0.4c0.1-0.1,0.2-0.1,0.4,0c0.1,0,0.2,0,0.2-0.2c0.2,0,0.3,0,0.4-0.1c0.1-0.1,0.2-0.1,0.3,0.1
			c0.1-0.1,0.1-0.2,0.2-0.2s0.2-0.1,0.3,0c0.2,0,0.3,0,0.4-0.1c0.1-0.1,0.2-0.1,0.2,0c-0.2-0.2-0.2-0.4-0.2-0.4c0,0,0-0.1,0-0.2
			c0.1,0,0.2-0.1,0.2-0.1c0,0,0.1,0,0.3,0c-0.3-0.2-0.4-0.4-0.4-0.4c0,0,0,0,0-0.1c0.3,0.1,0.5,0.1,0.5,0.1c0.1,0,0.1,0,0.2,0.2
			c0.2-0.1,0.3-0.2,0.4-0.3c0.1-0.1,0.3-0.1,0.6-0.1c0-0.2,0-0.3,0.2-0.3c0.2,0,0.3,0,0.4-0.2c0.2-0.2,0.3-0.4,0.4-0.6
			c0.1-0.2,0.1-0.4,0-0.7c-0.2,0-0.3,0.1-0.4,0.2c-0.1,0.1-0.2,0.2-0.3,0.3c-0.1,0.1-0.2,0.2-0.3,0.3c-0.1,0.1-0.2,0.1-0.4,0
			c0.1-0.2,0.3-0.3,0.5-0.4c0.2-0.1,0.4-0.2,0.5-0.4c0.3-0.3,0.4-0.5,0.3-0.6c-0.1-0.1-0.1-0.2,0-0.3c0-0.2,0-0.4,0.1-0.5
			c0.1-0.1,0.1-0.1,0.2-0.2c0-0.1-0.1-0.1-0.1-0.2c0-0.1,0-0.2,0-0.3C43.3,93.1,43.5,92.9,43.5,92.9z M39.1,116.9
			c-0.2-0.2-0.3-0.3-0.3-0.4c0-0.1,0-0.2,0-0.3c-0.3,0.4-0.6,0.6-1.1,0.5c-0.1,0.3-0.2,0.4-0.4,0.5c-0.2,0.1-0.3,0.3-0.2,0.6h0.6
			c0.5,0.1,0.9,0.1,1.1,0c0.1-0.3,0-0.5-0.3-0.7c-0.2,0.1-0.2,0.2-0.1,0.4c0.1,0.2,0,0.2-0.2,0.2c0.1-0.3,0-0.5-0.3-0.7
			c0.4-0.1,0.7-0.2,0.8-0.1C38.8,117,39,117,39.1,116.9z M37.4,118.3c-0.1-0.2-0.1-0.4-0.1-0.4s0-0.1-0.1,0c0.1,0.1,0.1,0.2,0.1,0.3
			C37.3,118.3,37.3,118.3,37.4,118.3z M43.3,113.7c-0.2,0-0.3,0-0.4,0c-0.1,0-0.1,0-0.1,0c0-0.5-0.1-0.8-0.2-1
			c-0.1-0.2-0.1-0.4,0.1-0.5c-0.2-0.3-0.3-0.4-0.3-0.4c0,0.1-0.1,0.1-0.2,0.1c-0.2,0.3-0.3,0.5-0.3,0.5c0,0,0,0.1,0,0.1
			c-0.2-0.3-0.3-0.6-0.1-0.7c0.1-0.1,0.2-0.3,0.1-0.4c0.2-0.2,0.4-0.2,0.6,0c0.1-0.4,0.1-0.8,0.2-1.1c0-0.3,0.1-0.6,0.4-0.8
			c-0.1-0.3-0.2-0.5-0.2-0.6c-0.2-0.2-0.3-0.3-0.3-0.3c-0.1,0-0.1,0-0.1-0.1c0,0.3,0,0.5-0.1,0.5c-0.1,0-0.2,0-0.2-0.1
			c0.2-0.2,0.2-0.3,0.3-0.4c0-0.1,0.1-0.1,0.3,0c0.1-0.2,0.2-0.3,0.2-0.5c0-0.2,0.1-0.3,0.2-0.5c-0.3-0.1-0.5-0.1-0.6,0
			c-0.1,0.1-0.2,0.3-0.4,0.4c0.1-0.2,0.1-0.4,0.3-0.6c0.1-0.1,0.2-0.2,0.4-0.1c0-0.4,0-0.6,0-0.7c0-0.1-0.1-0.2-0.1-0.2
			c-0.1,0.2-0.2,0.3-0.3,0.3c-0.1,0-0.1,0-0.2,0c0-0.1,0.1-0.2,0.2-0.2c0.1,0,0.2-0.1,0.3-0.2c0.3-0.3,0.5-0.5,0.5-0.6
			s0.1-0.3,0-0.5c0-0.2,0-0.3-0.1-0.5c0-0.2,0-0.3,0.1-0.5c-0.1-0.3-0.1-0.6-0.1-0.7c0-0.1,0-0.2,0-0.3c-0.1-0.1-0.2-0.1-0.4-0.2
			c-0.1-0.1-0.2,0-0.2,0.2c0.1-0.2,0.2-0.4,0.2-0.4c0.1,0,0.1,0,0.2,0c0-0.2-0.1-0.3-0.2-0.3c-0.1,0-0.3-0.1-0.5-0.1
			c0,0.2-0.2,0.3-0.5,0.2c-0.2,0.3-0.4,0.5-0.5,0.6c-0.1,0.1-0.2,0.2-0.3,0.3c-0.2,0.1-0.3,0.1-0.4,0.2c0,0.1-0.1,0.1-0.1,0.2
			c-0.2,0.1-0.4,0.2-0.5,0.3s-0.3,0.2-0.5,0.3c-0.2,0.2-0.3,0.4-0.6,0.5c-0.2,0.2-0.4,0.3-0.7,0.5c-0.2,0.2-0.4,0.4-0.6,0.6
			c-0.2,0.2-0.2,0.4-0.2,0.7c0.2,0,0.4,0.1,0.4,0.1c0.1,0,0.1,0.1,0.1,0.1c-0.2,0-0.3,0.1-0.4,0.2c-0.1,0.1-0.1,0.3,0,0.5
			c0.2,0.1,0.2,0.2,0,0.4c-0.1,0.2-0.3,0.3-0.4,0.5c0.2,0.1,0.3,0.2,0.3,0.3c0,0.1,0,0.2,0,0.2c0,0.3,0,0.6,0,0.8
			c0,0.2,0.1,0.3,0.2,0.4c0.4-0.2,0.6-0.3,0.5-0.4c-0.1,0-0.1-0.1,0-0.1c-0.2,0.3-0.3,0.5-0.4,0.6c-0.1,0.1-0.2,0.2-0.3,0.3
			c-0.1,0.1-0.1,0.2-0.2,0.3c0,0.1,0.1,0.2,0.2,0.4c0-0.1,0.1-0.2,0.2-0.2c0.1,0,0.2,0,0.3,0c0.1,0,0.3,0,0.4,0c0.1,0,0.3,0,0.4-0.1
			c-0.1-0.1-0.1-0.2-0.2-0.3c-0.1-0.1-0.2-0.1-0.3-0.2c0.3-0.1,0.6-0.1,0.6-0.2c0.1-0.1,0.2-0.1,0.5,0c0-0.2-0.1-0.2-0.2-0.3
			c-0.1,0-0.2-0.1-0.2-0.2c0.2,0,0.4,0,0.5,0.1c0.2,0.1,0.2,0.3,0.3,0.5c-0.2,0.1-0.3,0.1-0.3,0.1c-0.1,0-0.2,0.1-0.3,0.1
			c-0.1,0.3-0.3,0.5-0.5,0.6c-0.3,0.1-0.4,0.3-0.4,0.6c-0.3,0.2-0.5,0.3-0.8,0.6c-0.3,0.2-0.3,0.5-0.2,0.7c0.1,0,0.2,0.1,0.3,0.1
			c0.1,0,0.2,0,0.3-0.2c0,0.3-0.1,0.5-0.3,0.7c0.2,0.2,0.5,0.3,0.7,0.1c0.2-0.1,0.5-0.1,0.6,0.1c-0.2,0.1-0.3,0.1-0.4,0.2
			s-0.3,0.1-0.5,0.1c-0.2,0.3-0.4,0.5-0.5,0.7c-0.1,0.1-0.2,0.3-0.3,0.4c0.1,0.2,0.1,0.4,0,0.6c0,0.2,0,0.3,0,0.5
			c0.3-0.1,0.6-0.2,0.9-0.4c0.2,0.2,0.3,0.3,0.4,0.2c0.1,0,0.2-0.1,0.3-0.1c0.1-0.2,0.2-0.4,0.3-0.4c0.1-0.1,0.2-0.1,0.4-0.2
			c-0.2-0.2-0.3-0.2-0.4-0.2c0,0.1-0.1,0.1-0.2,0.2c0.1-0.3,0.2-0.5,0.4-0.4c0.1,0,0.2,0,0.3-0.1c0.2,0,0.6,0,0.9,0
			c0.4,0,0.6-0.1,0.7-0.3c0.2-0.1,0.4-0.1,0.4-0.1c0,0,0.1,0.1,0.2,0.1c0.2-0.3,0.4-0.5,0.6-0.5c-0.1,0.4-0.2,0.7-0.4,0.9
			c-0.2,0.2-0.4,0.2-0.7,0.2c-0.3,0.1-0.4,0.1-0.4,0.1c0,0-0.1,0-0.2,0c0.2,0.1,0.2,0.2,0.3,0.3c0,0.1,0.1,0.2,0.2,0.2
			c0.2,0,0.3,0,0.3,0.1c0,0.1,0,0.2,0,0.3c-0.1,0.3-0.3,0.5-0.5,0.6c-0.2,0.1-0.3,0.2-0.5,0.3c0-0.3,0.1-0.5,0.3-0.6
			c0.1-0.1,0.2-0.1,0.2-0.2c0.1-0.1,0.1-0.1,0.2,0c-0.2-0.2-0.4-0.4-0.4-0.3c-0.1,0-0.2,0-0.3,0c-0.4-0.2-0.7-0.2-0.8-0.1
			c-0.1,0.1-0.3,0.2-0.5,0.2c0.1,0.2,0,0.3-0.1,0.3s-0.2,0.1-0.3,0.3c0.2-0.1,0.4-0.2,0.4-0.1c0,0,0.1,0.1,0.2,0.1l-0.2,0.7
			c0.3-0.1,0.5-0.2,0.6-0.1s0.1,0.1,0.2,0.1c0.1,0.2,0.1,0.3-0.1,0.3c-0.2,0-0.3,0.1-0.4,0.3c-0.1,0.3-0.3,0.4-0.4,0.5
			c-0.1,0.1-0.3,0.2-0.5,0.2c-0.3,0.3-0.5,0.4-0.6,0.6c-0.1,0.1-0.3,0.3-0.4,0.4c0.2,0,0.5,0,0.8,0c0.3,0,0.6,0,0.8-0.1
			c0.1-0.1,0.2-0.2,0.4-0.3c0.1-0.1,0.2-0.1,0.4-0.2c0.2,0.1,0.3,0.1,0.3-0.1c0-0.1,0.1-0.3,0.2-0.4c-0.1-0.2-0.1-0.2,0-0.2
			c0.1,0,0.2-0.1,0.2-0.3c0.5-0.1,0.8-0.2,0.8-0.3s0.2-0.2,0.3-0.3c0.1-0.1,0.2-0.2,0.3-0.3c0.1-0.1,0.3-0.1,0.4-0.1
			c-0.3,0.3-0.4,0.4-0.4,0.5c0,0,0,0.1-0.1,0.1c0.4,0.1,0.7,0.1,0.8,0c0.1,0,0.1-0.1,0.2-0.2c0-0.1,0-0.2,0-0.4c0-0.1,0-0.2-0.1-0.2
			c-0.3-0.3-0.4-0.4-0.2-0.5c0.2,0,0.3-0.1,0.4-0.2c-0.1-0.1-0.1-0.1-0.1-0.2c0-0.1-0.1-0.1-0.2-0.2c-0.1,0.1-0.3,0.2-0.4,0.3
			c-0.1,0.1-0.3,0.2-0.6,0.1c-0.1-0.3-0.1-0.5,0-0.5c0-0.1,0.1-0.1,0.2,0c0.2,0.1,0.3,0,0.4-0.2c0.1-0.2,0.3-0.3,0.6-0.4
			c-0.1-0.2-0.2-0.3-0.2-0.4c0-0.1,0-0.3,0.1-0.5c0.1,0,0.1,0,0.3,0C43.2,113.8,43.3,113.7,43.3,113.7z M39.8,96.5
			c-0.1,0-0.2,0-0.4,0c-0.1,0.1-0.2,0.1-0.3,0c0.1-0.2,0.2-0.2,0.3-0.2c0.1,0,0.2,0,0.3-0.1c-0.1-0.2-0.3-0.2-0.6-0.1
			c-0.1-0.2-0.2-0.3-0.3-0.3C38.8,96,38.6,96,38.4,96c0,0.2,0.1,0.3,0.2,0.3c0.1,0,0.2,0.1,0.4,0.2c-0.2,0-0.3,0-0.3,0.1
			c0,0.1-0.1,0.1-0.3,0.1c0,0.1,0,0.1,0,0.3c0,0.1-0.1,0.2-0.2,0.3c-0.2-0.2-0.4-0.4-0.4-0.3c-0.1,0-0.1,0.1-0.2,0.1
			c0.1,0.3,0,0.4-0.1,0.5c-0.1,0.1-0.1,0.1-0.1,0.2c0.3-0.1,0.5-0.1,0.5-0.2c0-0.1,0-0.1,0.1-0.2c0.3,0.1,0.5,0.2,0.5,0.2
			s0,0.1,0.1,0c0.1-0.2,0.3-0.4,0.4-0.5c0.2-0.2,0.4-0.2,0.6-0.2L39.8,96.5z M38.6,102.5c0,0.1-0.1,0.2-0.2,0.2
			c-0.1,0-0.2,0.1-0.3,0.1C38.1,102.6,38.3,102.5,38.6,102.5z M38.5,112.5c-0.3,0.3-0.4,0.4-0.4,0.3s0-0.1-0.1,0
			C38.3,112.5,38.4,112.5,38.5,112.5z M38.8,115.1c0.1,0.2,0,0.3-0.2,0.3c-0.2,0-0.4,0-0.4-0.2c0.2-0.1,0.4-0.1,0.5-0.1
			C38.6,115.2,38.7,115.1,38.8,115.1z M39.2,102c-0.3-0.2-0.5-0.2-0.5-0.1c0,0.1-0.1,0.1-0.2,0.1c0.1-0.1,0.2-0.2,0.2-0.3
			c0-0.1,0.1-0.1,0.2-0.1c-0.2-0.3-0.3-0.5-0.1-0.5c0.2,0,0.3-0.1,0.4-0.1c-0.1,0.1-0.1,0.2-0.2,0.3c0,0.1-0.1,0.2-0.1,0.4L39.2,102
			z M39.3,90.7c-0.2,0.3-0.3,0.4-0.4,0.4c0,0-0.1-0.1-0.1-0.1c0.2-0.2,0.3-0.4,0.4-0.4C39.2,90.6,39.3,90.6,39.3,90.7z M39.5,94.7
			c-0.1-0.1-0.2-0.2-0.4-0.3s-0.3-0.1-0.4,0c0.1,0.1,0.2,0.1,0.4,0.1C39.3,94.6,39.5,94.7,39.5,94.7z M39.7,112.7
			c0,0.2-0.1,0.3-0.3,0.4s-0.4,0.1-0.5,0c0.2-0.1,0.3-0.2,0.4-0.3C39.3,112.8,39.4,112.7,39.7,112.7z M39.8,113.8
			c-0.4,0.3-0.6,0.4-0.6,0.3c0-0.2,0.1-0.3,0.2-0.4c0.1-0.1,0.2-0.2,0.3-0.3L39.8,113.8z M40,98c-0.2,0.1-0.4,0.1-0.5,0.2
			s-0.2,0.1-0.2,0.1c-0.1-0.2,0-0.2,0.2-0.3c0.2,0,0.3-0.1,0.4-0.1L40,98z M41.5,111.5c-0.2,0.3-0.4,0.4-0.4,0.4
			c-0.1,0-0.1,0.1,0,0.3c-0.3,0-0.5,0.1-0.5,0.1c0,0.1,0,0.1,0,0.2c-0.3,0-0.4,0-0.5,0.1c-0.1,0.1-0.2,0.1-0.3,0.1
			c-0.1-0.1,0-0.2,0-0.3s0.2-0.2,0.2-0.2c0.1-0.1,0.3-0.2,0.4-0.1c0.2,0.1,0.3,0,0.3-0.2c0.1,0.1,0.2,0.1,0.4,0
			c0.1,0,0.1-0.1,0.1-0.3L41.5,111.5z M40,100.6c-0.3-0.3-0.3-0.5,0-0.5c0,0.1,0,0.2,0,0.3C39.9,100.5,40,100.5,40,100.6z
			 M40.3,110.8c0.1,0.1,0,0.2-0.1,0.4c-0.1,0.1-0.2,0.2-0.4,0.3c0-0.1,0.1-0.2,0.2-0.3C40.1,110.9,40.2,110.8,40.3,110.8z
			 M40.5,115.6c-0.2,0.3-0.4,0.4-0.6,0.4c0-0.2,0-0.2,0.1-0.3c0.1,0,0.2-0.1,0.2-0.2H40.5z M41.8,109.5c-0.3,0.3-0.4,0.5-0.4,0.6
			c0,0.1-0.1,0.1-0.3,0.1c0.2-0.1,0.4-0.3,0.4-0.6c0-0.2-0.2-0.4-0.5-0.3c-0.2,0.3-0.4,0.6-0.5,0.7s-0.3,0.1-0.4,0
			c0-0.1,0.1-0.2,0.2-0.2c0.1,0,0.2-0.1,0.2-0.3c-0.2-0.2-0.3-0.2-0.2-0.3c0.1,0,0.1,0,0.2,0c0.1,0,0.1,0,0.2,0
			c0.1,0,0.1-0.1,0.1-0.2c0.1,0.1,0.2,0.2,0.4,0.1c0.1-0.1,0.2-0.1,0.3-0.2c-0.1,0.2,0,0.3,0,0.4c0.1,0.1,0.1,0.1,0,0.2H41.8z
			 M40.7,89.8c0,0.1-0.1,0.2-0.3,0.2c-0.1,0-0.2,0.1-0.2,0.3c0.1-0.2,0.2-0.4,0.2-0.4C40.5,89.8,40.6,89.8,40.7,89.8z M42.9,91.5
			c-0.1,0.3-0.3,0.4-0.6,0.5c-0.3,0.1-0.5,0.2-0.6,0.4c-0.2,0.1-0.4,0.2-0.5,0.4c-0.1,0.2-0.2,0.4-0.3,0.5c-0.2-0.1-0.3-0.1-0.4,0
			c0,0-0.1,0.1-0.2,0.1c0-0.2,0.1-0.4,0.3-0.5c0.2-0.1,0.3-0.2,0.6-0.2c-0.1-0.5,0.2-0.8,0.8-0.9c0.1-0.1,0.2-0.2,0.2-0.3
			c0-0.1,0.2-0.2,0.4-0.2L42.9,91.5z M41.7,98.6c-0.4,0.1-0.5,0.3-0.5,0.7c-0.2-0.1-0.3-0.1-0.4,0.1c-0.1,0.2-0.2,0.1-0.3,0
			c0.1,0,0.2,0,0.3-0.2s0.2-0.3,0.4-0.4c0.1-0.1,0.2-0.1,0.3,0C41.5,98.7,41.6,98.7,41.7,98.6z M41.1,110.2c0.1,0.2,0,0.3-0.1,0.3
			c-0.2,0.1-0.3,0.1-0.5,0.2c0.1-0.2,0.2-0.3,0.3-0.4C40.8,110.2,40.9,110.2,41.1,110.2z M41.4,95.4c-0.3,0.2-0.5,0.2-0.5,0
			c-0.1-0.1-0.2-0.1-0.4,0.1c0.1-0.1,0.2-0.2,0.4-0.1c0.2,0,0.3-0.1,0.2-0.3L41.4,95.4z M43.9,118.5c-0.2-0.2-0.3-0.3-0.3-0.4
			c0-0.1-0.1-0.3-0.2-0.4c-0.2,0.1-0.4,0-0.5-0.1c-0.2-0.1-0.3-0.2-0.5-0.2c0,0.2,0,0.2-0.2,0.2s-0.2,0.1-0.2,0.2
			c-0.4,0.2-0.7,0.3-0.8,0.5c-0.1,0.2-0.3,0.3-0.5,0.4c0.2,0.3,0.4,0.4,0.6,0.4c0.2,0,0.3-0.1,0.4-0.2c0.2-0.1,0.4-0.1,0.7-0.2
			c0.2,0,0.5,0,0.8,0c0.1-0.2,0.2-0.2,0.3-0.2S43.8,118.6,43.9,118.5z M41.5,112.6c-0.4,0.2-0.6,0.3-0.7,0.4c-0.1-0.1-0.1-0.2,0-0.3
			c0.1-0.1,0.2-0.2,0.4-0.2L41.5,112.6z M41.5,107.2c-0.1-0.1-0.2-0.1-0.3,0c-0.1,0.1-0.1,0.2-0.2,0.2c-0.2-0.3-0.2-0.5,0-0.4
			c0.2,0.1,0.3,0,0.2-0.2L41.5,107.2z M41.4,96.9c-0.4,0.2-0.6,0.2-0.6,0c0.2-0.1,0.3-0.1,0.3,0S41.2,97,41.4,96.9z M42.2,102.6
			c-0.2,0.5-0.3,0.8-0.5,0.8c-0.2,0-0.4,0.1-0.4,0.3c0.3-0.3,0.5-0.5,0.6-0.7C41.9,102.8,42,102.7,42.2,102.6z M42,106.8
			c-0.3,0.2-0.4,0.3-0.4,0.2c0-0.1-0.1-0.1-0.1,0c0.1-0.1,0.1-0.2,0.2-0.1c0.1,0,0.2,0,0.2-0.2L42,106.8z M42.2,95.2
			c-0.2-0.2-0.3-0.2-0.4-0.1c-0.1,0.1-0.2,0.1-0.4,0c0-0.1,0.1-0.2,0.2-0.3c0.1,0,0.2-0.1,0.3-0.3c0,0.1,0.1,0.2,0.1,0.3
			C42.1,94.9,42.2,95,42.2,95.2z M42.6,109c-0.1,0.2-0.4,0.3-0.9,0.3c0.2-0.1,0.4-0.2,0.5-0.3C42.3,108.9,42.5,108.9,42.6,109z
			 M42.5,98.2c-0.3,0-0.5,0-0.6,0.1c0,0.1,0,0.1,0,0.1c0-0.2,0-0.2,0.1-0.3C42.2,98.1,42.3,98.1,42.5,98.2L42.5,98.2z M42.6,90.1
			c-0.1,0-0.2,0-0.2,0c-0.1,0-0.2,0-0.3,0c0.3-0.2,0.5-0.3,0.5-0.5L42.6,90.1z M43.1,118c-0.4,0.1-0.7,0.2-0.9,0.3
			c0.1-0.2,0.2-0.2,0.3-0.3c0.1,0,0.2-0.1,0.1-0.3c0.1,0.2,0.2,0.2,0.3,0.1C43,117.8,43,117.9,43.1,118z M43,100l-0.5,0.2
			c0.2,0,0.2,0,0.2-0.1C42.7,100,42.8,100,43,100z M46.1,118.8c-0.1-0.1-0.1-0.2-0.2-0.3c-0.1-0.1-0.2-0.1-0.3-0.2
			c0.1-0.2,0.2-0.3,0.3-0.2s0.1,0.1,0.1,0.1s0.1,0.1,0.1,0.2C46.1,118.6,46.1,118.7,46.1,118.8z"/>
	</g>
</g>
</svg>
