<?xml version="1.0" encoding="utf-8"?>
<!-- Generator: Adobe Illustrator 22.0.1, SVG Export Plug-In . SVG Version: 6.00 Build 0)  -->
<svg version="1.1" id="Layer_1" xmlns="http://www.w3.org/2000/svg" xmlns:xlink="http://www.w3.org/1999/xlink" x="0px" y="0px"
	 viewBox="0 0 200 200" style="enable-background:new 0 0 200 200;" xml:space="preserve">
<style type="text/css">
	.st0{fill:#34C0C1;}
</style>
<g>
	<circle class="st0" cx="62.5" cy="100" r="50"/>
	<g>
		<path d="M51.9,110.2c-0.3,0.1-0.7,0.1-1,0.1c-0.3,0-0.7,0-1,0.2c-0.5-0.2-0.7-0.3-0.8-0.1c0,0.1-0.2,0.2-0.4,0.1
			c0.1-0.2,0-0.2-0.1-0.1c-0.1,0.1-0.3,0.1-0.4,0c-0.3-0.2-0.6-0.2-0.8-0.3c-0.3,0-0.4,0-0.5,0c-0.2,0-0.3,0.1-0.4,0.2
			s-0.1,0.2,0,0.3c0,0.1,0,0.2,0,0.4c0,0.1,0,0.3-0.1,0.4c0.1,0.7,0.1,1.3,0,1.7c0,0.4,0,0.9,0.1,1.6c-0.1,0.4-0.1,0.5-0.3,0.5
			c-0.1,0-0.2,0-0.2,0.1c0,0.2,0,0.3-0.1,0.4s0,0.2,0.2,0.2c-0.1,0.4-0.1,0.7,0,0.9c0,0.2,0,0.4-0.1,0.7c0.2,0.4,0.5,0.7,0.9,0.9
			s0.8,0.4,1.3,0.5c0.5,0.1,1,0.2,1.5,0.2c0.5,0,1.1,0,1.7-0.1c0.1,0.1,0.1,0.2,0.1,0.4c0,0.2,0,0.3,0.1,0.4
			c-0.1,0.1-0.1,0.2-0.1,0.3c0,0.1-0.1,0.2-0.3,0.3c-0.3-0.1-0.7-0.1-1.1-0.2c-0.5-0.1-0.8,0-1.1,0.3c-0.3-0.2-0.7-0.3-1.1-0.3
			c-0.4,0-0.8,0.1-1.1,0.2c-0.6,0-1.1-0.1-1.5-0.2c-0.4-0.1-0.9-0.1-1.4-0.2c-0.2,0.1-0.3,0.2-0.4,0.3c-0.1,0-0.2,0-0.3-0.1
			c-0.1,0.2-0.2,0.2-0.3,0.3s-0.2-0.1-0.2-0.3c-0.6-0.1-1.2-0.2-1.7-0.2s-1.1-0.1-1.7-0.3c-0.1,0.2-0.3,0.2-0.5,0.1
			c-0.2-0.1-0.4,0-0.4,0.2c-0.6-0.1-1.2-0.1-1.9,0s-1.2,0.2-1.5,0.4c-0.2-0.1-0.3-0.1-0.4,0c-0.1,0-0.3,0-0.5,0
			c-0.1-0.2-0.1-0.3-0.2-0.4c-0.1-0.1-0.1-0.2-0.2-0.4c0.7-0.2,1.2-0.3,1.7-0.4c0.5-0.1,1-0.2,1.5-0.4c0.2-0.1,0.4-0.1,0.7-0.1
			c0.2,0,0.5,0,0.7-0.1c0.3-0.1,0.5-0.2,0.7-0.3c0.2-0.1,0.4-0.3,0.6-0.4c-0.1-0.5,0-0.9,0.1-1.1c0.1-0.2,0.2-0.4,0.3-0.6
			c-0.4,0-0.7,0.2-0.8,0.6c-0.1-0.1-0.1-0.1-0.2-0.1s-0.1,0-0.2,0c-0.1,0-0.1,0-0.2,0c-0.1,0-0.1,0-0.2-0.1c0.1-0.1,0.2-0.2,0.4-0.4
			c0.1-0.1,0.2-0.2,0.4-0.3c0.1-0.1,0.2-0.1,0.3-0.2c0.1-0.1,0.2-0.1,0.3-0.1c0.2-0.5,0.3-0.8,0.4-1c0.1-0.2,0.1-0.4,0.1-0.5
			c-0.2-0.2-0.2-0.5-0.1-0.6c0.1-0.2,0.1-0.3,0-0.5c0.1-0.2,0.1-0.5,0.1-0.7c-0.2,0-0.3,0-0.4,0.1c-0.1,0.1-0.2,0.1-0.3,0.1
			c0-0.3-0.1-0.5-0.3-0.5c0-0.2,0.1-0.4,0.4-0.4c0-0.5,0-0.7,0.2-0.6c0.1,0.1,0.2,0,0.2-0.1c-0.5-0.1-1.1-0.1-1.8-0.2
			s-1.2-0.2-1.8-0.2c-0.2,0.2-0.4,0.2-0.6,0c-0.2-0.2-0.4-0.2-0.6,0c-0.3,0-0.6,0-1,0c-0.3,0-0.6-0.1-0.7-0.2
			c-0.2,0.2-0.3,0.2-0.4,0.2c-0.1,0-0.2-0.1-0.3-0.1c-0.3-0.1-0.6-0.1-0.8,0c-0.3,0.1-0.5,0.1-0.8,0.2s-0.4,0-0.6,0
			c-0.2,0-0.3-0.2-0.4-0.6c0.2-0.2,0.3-0.5,0.4-0.8c0-0.3,0.1-0.6,0.2-0.8c0.1-0.2,0.2-0.4,0.3-0.5c0.2-0.1,0.3-0.3,0.4-0.4
			c0.2-0.3,0.3-0.7,0.5-1c0.2-0.4,0.3-0.7,0.5-1c0.4-0.6,0.7-1.1,0.9-1.5c0.2-0.4,0.4-0.9,0.7-1.3c0.2-0.4,0.4-0.9,0.7-1.3
			c0.2-0.4,0.5-0.8,0.9-1.1c0-0.2,0.1-0.3,0.2-0.4c0.1-0.1,0.1-0.2,0.1-0.4c0.2-0.1,0.3-0.2,0.4-0.4c0.1-0.2,0.2-0.3,0.3-0.4
			c0.2-0.5,0.4-1,0.8-1.3c0.3-0.3,0.7-0.7,0.9-1c0-0.3,0-0.5,0.2-0.6s0.2-0.2,0.3-0.4c0.5-0.3,0.8-0.7,1.1-1.2s0.5-1,0.9-1.4
			c0.4-0.3,0.8-0.6,1-0.9c0.2-0.2,0.4-0.5,0.6-0.7c0-0.2,0.1-0.4,0.3-0.6s0.4-0.3,0.5-0.4c0.1-0.2,0.2-0.3,0.2-0.5
			c0.1-0.2,0.2-0.3,0.3-0.5c0.1-0.1,0.1-0.2,0.3-0.3c0.1-0.1,0.2-0.2,0.3-0.3c0.2-0.4,0.4-0.7,0.5-0.9c0.2-0.2,0.3-0.5,0.4-0.7
			c0.1-0.2,0.1-0.4,0.1-0.6c0-0.2,0-0.5,0.1-0.7c0-0.2,0.1-0.4,0.1-0.6c0.1-0.2,0.2-0.3,0.4-0.4c0.2,0.3,0.4,0.5,0.5,0.8
			c0.1,0.3,0.1,0.5,0.2,0.8c0.4-0.2,0.7-0.2,0.9-0.1c0.1,0.2,0.2,0.4,0.1,0.6c-0.3,0.1-0.4,0.3-0.5,0.4c-0.1,0.1,0,0.3,0,0.4
			c-0.3,0.3-0.4,0.5-0.3,0.6c0,0.1,0,0.2,0,0.4c0.2,0.4,0.2,0.8,0.2,1.2c-0.1,0.4-0.1,0.9,0.1,1.4c0,0.8,0,1.4,0,2
			c0,0.6,0,1.1-0.1,1.6c0.1,0.1,0.1,0.3,0,0.4c-0.1,0.2,0,0.3,0.1,0.5c0.2,0.3,0.3,0.5,0.4,0.6c0.1,0.1,0.2,0.1,0.2,0.2
			c-0.2,0.1-0.4,0.3-0.4,0.5c-0.1,0.2-0.2,0.3-0.5,0.4c0,0.4,0,0.8,0,1c0,0.3-0.1,0.6-0.1,1c0,0.3,0.1,0.7,0.1,1
			c0,0.3,0.1,0.6,0.3,0.8c-0.2,0.3-0.3,0.5-0.4,0.7c-0.1,0.1,0,0.3,0.1,0.4c0.2,0.3,0.2,0.4,0.1,0.5c-0.1,0-0.2,0.1-0.2,0.2
			c-0.1,0.5,0,0.8,0.2,0.9c0.2,0.1,0.3,0.3,0.4,0.5c-0.1,0.1-0.2,0.3-0.3,0.4c-0.1,0.1-0.2,0.3-0.2,0.4c0.1,0.1,0.2,0.2,0.3,0.3
			c0,0.1,0.2,0.2,0.4,0.1c0.1,0.3,0,0.5-0.1,0.7c-0.1,0.1-0.3,0.3-0.4,0.4c0.1,0.4,0.3,0.8,0.4,1.2c0.4,0.1,0.8,0.1,1.2,0
			c0.4-0.1,0.8-0.1,1.1-0.2c0.4,0.1,0.8,0.1,1.2,0s0.8-0.1,1.2,0c0.2,0.3,0.3,0.7,0.4,1C51.9,109.3,51.9,109.7,51.9,110.2z
			 M39.8,103.4c0.1-0.1,0.1-0.3,0.1-0.5s-0.1-0.4-0.2-0.5c0.1-0.3,0.1-0.7,0.1-1c0-0.3,0-0.7,0-1c-0.2-0.1-0.4-0.1-0.6,0
			c-0.1-0.3-0.1-0.5,0-0.5c0.1,0,0.2-0.1,0.3-0.1c0.1-0.4,0.1-0.7,0-0.8c0.2-0.2,0.3-0.4,0.2-0.8c-0.1-0.3-0.2-0.6-0.3-0.7
			c-0.1,0-0.3,0-0.4,0c-0.1,0-0.2-0.1-0.3-0.2c0.2-0.1,0.3-0.2,0.3-0.1c0.1,0,0.1,0,0.2-0.1c-0.1-0.2-0.1-0.3-0.2-0.3
			c-0.1,0-0.1-0.1-0.2-0.1c-0.2,0.4-0.5,0.7-0.8,1c-0.3,0.3-0.5,0.6-0.6,1c-0.2,0-0.3,0.1-0.3,0.2c0,0.1-0.1,0.3-0.1,0.4
			c-0.2,0.1-0.3,0.1-0.4,0.2c-0.1,0.1-0.2,0.2-0.3,0.3c-0.3,0.6-0.5,1.1-0.9,1.5c-0.3,0.4-0.6,0.9-0.8,1.5c-0.3,0.5-0.5,1-0.8,1.3
			c-0.3,0.3-0.5,0.7-0.5,1.1c-0.8,1-1.4,2.2-1.7,3.5c0.4,0.1,0.9,0,1.4-0.1c0.5-0.1,1-0.1,1.5,0.1c0.2-0.2,0.4-0.2,0.7-0.2
			c0.3,0,0.5,0.1,0.7,0.2c0.2-0.1,0.5-0.1,0.8-0.1c0.3,0,0.7,0,1.1,0.1c0.4,0,0.7,0.1,1,0c0.3,0,0.6-0.1,0.8-0.3
			c-0.1-0.2-0.1-0.5,0-0.7c0.1-0.2,0.1-0.5,0-0.7c-0.1,0.1-0.2,0.1-0.3,0.1c-0.1-0.1-0.2-0.1-0.3-0.2c0.2-0.3,0.4-0.5,0.3-0.6
			c0-0.1,0-0.2,0-0.3c0.2-0.1,0.4-0.2,0.4-0.4c0.1-0.2,0.1-0.4,0.1-0.7c0-0.2,0-0.5-0.1-0.8C39.8,103.9,39.8,103.6,39.8,103.4z
			 M34.4,109.5c-0.2,0-0.4,0-0.5,0c-0.2,0-0.3,0.1-0.5,0.1c-0.4,0-0.6-0.1-0.8-0.3c0.2,0.2,0.5,0.3,0.9,0.4
			C33.9,109.8,34.2,109.8,34.4,109.5z M38.4,109.8c-0.6-0.2-1-0.2-1.3-0.2c-0.3,0-0.6,0-1.1,0c-0.2,0-0.4-0.1-0.6-0.1
			c-0.2-0.1-0.4,0-0.6,0.2c0.5,0,1.2,0.1,1.9,0.2C37.4,110,37.9,110,38.4,109.8z M42.6,118.4c-0.1,0-0.2,0-0.3,0
			c-0.1,0-0.1,0-0.2,0.1c-0.4,0-0.6-0.1-0.7-0.3c0-0.2-0.1-0.3-0.2-0.5c-0.1,0.1-0.1,0.2-0.3,0.3c-0.1,0-0.2,0.1-0.4,0.2
			c0.1,0.2,0,0.3-0.2,0.4c-0.2,0.1-0.3,0.2-0.4,0.4c0.3,0.1,0.6,0.1,0.9,0.1c0.3,0,0.6-0.1,0.8-0.1c0-0.1,0.2-0.2,0.4-0.2
			C42.3,118.6,42.5,118.6,42.6,118.4z M43,96.7c-0.1,0-0.2-0.1-0.4-0.1c-0.1-0.1-0.2,0-0.4,0.1c-0.1-0.1-0.1-0.2-0.2-0.2
			c-0.1,0-0.1-0.1-0.2-0.2c-0.2,0.1-0.3,0.2-0.2,0.4s0.1,0.3,0.2,0.3c-0.1,0.1-0.2,0.2-0.2,0.3c0,0-0.1,0.1-0.2,0.1
			c-0.2-0.2-0.3-0.3-0.5-0.3c-0.2,0-0.3,0-0.5-0.2c-0.2,0.1-0.2,0.2-0.2,0.4s0,0.4,0,0.5c0.2,0,0.3,0,0.3,0s0.1-0.1,0.2-0.1
			c0-0.2,0.1-0.4,0.3-0.4c0.2,0,0.3,0,0.4,0.1c-0.1,0.1-0.1,0.1-0.2,0.1c-0.1,0-0.2,0-0.3,0c0,0.1,0,0.2,0.1,0.2c0,0,0.1,0,0.2,0
			c0.1,0,0.1,0,0.2,0c0.1,0,0.1,0,0.1,0.1c0.2-0.2,0.4-0.3,0.4-0.3c0.1,0,0.1-0.1,0.1-0.2c0.1,0,0.2,0,0.4-0.1
			c0.1-0.1,0.3-0.1,0.5,0L43,96.7z M46,92.1c-0.1-0.2-0.1-0.3-0.1-0.4c0-0.1,0-0.2-0.1-0.4c-0.1,0-0.2,0.1-0.3,0.2
			c-0.1,0.1-0.2,0.1-0.4,0.1c-0.4,0.5-0.9,1-1.5,1.3c-0.6,0.3-1,0.8-1.4,1.3c-0.2,0-0.3-0.1-0.3-0.1c0-0.1-0.1-0.1-0.3-0.1
			c-0.1,0.3-0.1,0.5-0.1,0.8c-0.2,0-0.3,0.1-0.4,0.2s-0.1,0.2-0.3,0.3c0,0.2-0.1,0.3-0.4,0.4c-0.3,0.1-0.4,0.3-0.4,0.6
			c0.2,0,0.3,0.1,0.2,0.2c0,0.2,0,0.3,0.1,0.4c0.2-0.1,0.4-0.2,0.5-0.4c0.1-0.2,0.2-0.4,0.4-0.4c0.1,0,0.2,0,0.3,0.1
			c0.1,0.1,0.2,0.1,0.2,0l0.5,0.2c0.1-0.2,0.3-0.3,0.4-0.4c0.2-0.1,0.3-0.2,0.4-0.4c0.2,0,0.4,0,0.5-0.2c0.1-0.1,0.2-0.3,0.4-0.4
			c0.2,0,0.3,0.1,0.2,0.2s-0.1,0.2-0.2,0.3c-0.2,0.1-0.4,0.2-0.4,0.2s-0.1,0.1-0.1,0.2c-0.2,0-0.3,0-0.4,0.1
			C43.3,96,43.2,96.1,43,96c0.2,0.3,0.3,0.4,0.2,0.4c0,0,0,0.1,0,0.1c0.3-0.1,0.5-0.2,0.7-0.2c0.1-0.2,0.3-0.3,0.5-0.5
			c0.2-0.2,0.4-0.2,0.6-0.1c0.3-0.2,0.4-0.3,0.5-0.2c0,0,0.1,0.1,0.2,0.1c0,0.3,0,0.5,0,0.6c0.1-0.8,0.1-1.5,0.3-2.2
			c0.1-0.7,0.1-1.3-0.1-1.9L46,92.1z M45.8,107.4c0-0.3,0-0.5-0.2-0.6c-0.2,0.3-0.4,0.4-0.4,0.4c0,0-0.1,0.1,0,0.1
			c-0.2-0.1-0.2-0.3-0.2-0.5s0.2-0.2,0.4-0.1c0.2-0.4,0.3-0.6,0.2-0.7c-0.1-0.1-0.1-0.2,0-0.3c-0.3-0.3-0.4-0.4-0.5-0.3
			c0,0.1-0.1,0.2-0.2,0.2c-0.1-0.1-0.2-0.1-0.3-0.1c-0.2,0-0.2-0.1-0.2-0.2c0.2-0.1,0.3-0.1,0.3-0.1c0.1,0,0.2,0,0.3,0
			c0.2-0.4,0.4-0.7,0.5-0.8s0.1-0.2,0.1-0.5c-0.3,0.1-0.5,0.1-0.5,0.1c0,0,0,0-0.1,0c0-0.3,0.1-0.6,0.3-0.8c0.2-0.3,0.2-0.5,0.1-0.8
			c-0.2,0.2-0.4,0.4-0.6,0.5c-0.4,0.2-0.7,0.3-0.9,0.3c-0.1,0.3-0.2,0.5-0.2,0.4s-0.1-0.1-0.2,0c-0.2,0.1-0.3,0.2-0.4,0.2
			c0,0-0.1,0-0.1,0c0,0.2,0,0.3-0.1,0.3c-0.1,0-0.2,0.1-0.2,0.1c0.1,0.1,0,0.2-0.1,0.3c-0.2,0-0.3,0.1-0.5,0.1
			c-0.1,0.3-0.2,0.5-0.4,0.5c-0.2,0-0.3,0-0.4,0.1c0,0.3-0.1,0.5-0.3,0.8s-0.4,0.4-0.7,0.4c0.1,0.2,0.1,0.3,0,0.5s0,0.4,0.1,0.5
			c-0.2,0.2-0.2,0.4-0.1,0.8c0.2-0.1,0.3,0,0.4,0.1c0.1,0.1,0.2,0.2,0.3,0.3c0-0.3-0.1-0.4-0.2-0.4c-0.1,0-0.2-0.1-0.2-0.3
			c0.3,0.1,0.5,0.2,0.6,0.3c0-0.1,0-0.2,0-0.4c0-0.1,0.1-0.2,0.2-0.1c-0.1,0.1-0.2,0.1-0.1,0.3c0,0.1,0,0.2,0,0.4
			c0.2-0.1,0.3-0.2,0.3-0.2c0.1,0,0.1-0.1,0.2-0.1c0.2,0.2,0.3,0.2,0.4,0c0-0.1,0.1-0.2,0.3-0.3c0,0,0.1,0,0.3,0s0.3,0,0.5,0.1
			c-0.2,0.1-0.4,0.1-0.6,0c0,0.3-0.2,0.5-0.4,0.6c-0.3,0.1-0.5,0.1-0.7,0.2c0.1,0.2,0.1,0.3,0.1,0.3c0,0-0.1,0-0.2,0
			c-0.1,0-0.1-0.1-0.2-0.1c-0.1,0-0.2,0-0.3,0c0.2,0.2,0.2,0.4,0.1,0.6c-0.1,0.3-0.3,0.4-0.5,0.3c0.3,0.3,0.5,0.4,0.6,0.4
			c0.1,0,0.3-0.1,0.5-0.1c0.2-0.3,0.2-0.5,0.1-0.5c-0.1,0,0,0,0,0c0.3-0.1,0.5-0.2,0.5-0.2c0.1,0,0.1-0.1,0-0.2
			c0.3-0.1,0.5-0.1,0.6-0.1c0.1,0,0.1-0.1,0.1-0.2c0.1,0.1,0.2,0,0.4-0.2c0.2-0.2,0.4-0.4,0.6-0.6c0-0.1,0.1-0.2,0.3-0.2
			c0.2-0.1,0.3-0.2,0.3-0.3c0,0.1,0.1,0.1,0.2,0c0.1,0,0.2,0,0.3,0c-0.2,0-0.3,0.1-0.4,0.1c-0.1,0-0.1,0.1,0,0.3
			c0.3-0.2,0.5-0.3,0.6-0.3c0.1,0,0.2,0,0.3-0.1L45.8,107.4z M45.6,99.7c-0.4,0.1-0.6,0.2-0.6,0.2c0,0-0.1,0-0.1,0
			c0,0.3-0.1,0.4-0.3,0.5c-0.2,0.1-0.3,0.2-0.5,0.3c-0.2-0.2-0.3-0.4-0.2-0.4c0,0,0.1-0.1,0.1-0.1c-0.1,0-0.2,0.1-0.3,0.2
			c-0.1,0.1-0.2,0.1-0.4,0c-0.3,0.3-0.4,0.5-0.6,0.6c-0.1,0.2-0.4,0.2-0.7,0.2c0,0.2,0,0.4-0.1,0.5s-0.3,0.2-0.5,0.1
			c0.1,0.3,0,0.5-0.2,0.5c-0.2,0-0.3,0.2-0.3,0.4c-0.1,0.1-0.2,0.1-0.3,0.2c-0.1,0.1-0.2,0.1-0.3,0.2c0.2,0.3,0.2,0.5,0.2,0.7
			c0.5,0,0.9,0.1,1.2,0.3c-0.2,0.1-0.4,0.1-0.5,0.1c-0.2,0.2-0.4,0.3-0.4,0.2c0-0.1-0.1-0.2-0.3-0.2c0,0.3-0.1,0.5-0.1,0.7
			s0,0.4,0.1,0.7c0.2,0,0.3,0,0.4-0.1c0.1-0.1,0.2-0.1,0.4-0.1c0-0.2,0.1-0.5,0.3-0.6c0.2-0.2,0.4-0.3,0.6-0.4
			c0.2-0.1,0.4-0.2,0.6-0.4c0.2-0.1,0.3-0.3,0.3-0.5c0.2-0.1,0.3-0.1,0.4-0.2c0,0,0-0.1,0-0.3c0.2,0,0.3,0,0.3,0s0.1,0,0.3,0
			c0.2-0.2,0.3-0.3,0.4-0.4c0.1-0.1,0.1-0.1,0.1,0c0.1-0.2,0.2-0.3,0.2-0.4c0.1-0.1,0.2-0.1,0.4,0c-0.1-0.2-0.1-0.3-0.1-0.4
			c0-0.1,0.1-0.2,0.1-0.3c-0.2-0.2-0.3-0.3-0.3-0.4c0,0,0-0.1,0-0.1c-0.1,0.3-0.2,0.4-0.2,0.5c0,0-0.1,0-0.2,0
			c-0.2-0.2-0.1-0.4,0-0.5c0.2-0.1,0.3-0.2,0.5-0.3c0.2-0.1,0.3-0.2,0.4-0.4C45.5,100.1,45.6,99.9,45.6,99.7z M41.2,99.4
			c-0.3-0.2-0.4-0.3-0.4-0.1c0,0.2-0.1,0.3-0.3,0.3c0.1,0.2,0,0.3-0.1,0.3c-0.1,0.1-0.1,0.1,0.1,0.2c0-0.2,0.1-0.3,0.2-0.1
			c0.1,0.1,0.2,0.2,0.3,0.1c-0.1-0.2-0.1-0.4,0-0.4C41,99.6,41.1,99.5,41.2,99.4z M41.6,98c0-0.2-0.2-0.3-0.5-0.2
			c-0.2,0.2-0.4,0.2-0.6,0.1c0,0.1,0,0.2,0,0.3c-0.1,0.1-0.1,0.2,0,0.3c0.3-0.1,0.5-0.2,0.5-0.3c0-0.1,0-0.1,0.1-0.1
			c0.2,0.1,0.3,0.1,0.3,0.1C41.4,98.1,41.5,98,41.6,98z M44.6,98.2c-0.2-0.1-0.3-0.2-0.5-0.2c-0.2,0-0.3-0.1-0.4-0.1
			c-0.2,0.2-0.2,0.3,0,0.2s0.4,0,0.4,0.2c-0.3,0-0.5,0-0.6,0c-0.4,0.1-0.7,0.1-0.9,0c-0.2,0-0.3,0-0.4,0.2c0.1,0.2,0.1,0.3,0.1,0.4
			c0,0.1-0.1,0.1-0.2,0.1c0,0.3,0.1,0.3,0.3,0.2c0.2-0.1,0.3-0.1,0.4-0.1c-0.1,0.2-0.2,0.3-0.4,0.4c-0.1-0.1-0.2-0.1-0.3,0
			c-0.1,0-0.2,0.1-0.3,0.1c-0.2,0.3-0.4,0.6-0.7,0.8c-0.2,0.2-0.5,0.4-0.8,0.5c0.1,0.2,0.1,0.4,0,0.6c-0.1,0.2,0,0.3,0.2,0.3
			c0-0.2,0-0.3,0.1-0.4c0.1-0.1,0.1-0.1,0.3-0.1c0.1,0,0.2,0,0.4,0c0.1,0,0.2-0.1,0.3-0.2c-0.2-0.1-0.3-0.2-0.2-0.3
			c0.1,0,0.1-0.1,0.2-0.1c0.1,0,0.1,0,0.2-0.1c0,0,0-0.1,0-0.1c0.4-0.2,0.8-0.5,0.9-0.6c0.2-0.2,0.4-0.3,0.5-0.6
			c0.2,0,0.3-0.1,0.4-0.2c0-0.2,0.1-0.2,0.3-0.3c0.2-0.2,0.3-0.3,0.4-0.4C44.5,98.3,44.6,98.3,44.6,98.2z M41.3,94.7
			c-0.4,0-0.6,0.1-0.8,0.3c0.1,0.2,0.2,0.2,0.3,0.1c0.1-0.1,0.2-0.1,0.3,0L41.3,94.7z M45.9,111.9c0-0.2,0-0.5,0-0.7
			c0-0.2-0.1-0.4-0.1-0.4c-0.3,0.2-0.5,0.4-0.7,0.4c-0.2,0-0.4,0.1-0.4,0.3c-0.4,0.1-0.6,0.2-0.6,0.2c0.3,0,0.5,0.2,0.5,0.5
			c-0.2-0.1-0.3,0-0.2,0.1c0.1,0.2,0,0.3-0.1,0.3c-0.2-0.1-0.3,0-0.3,0.1c-0.1,0.1-0.2,0.2-0.3,0.2c0.1-0.1,0-0.2,0-0.3
			c-0.1-0.1-0.1-0.2-0.1-0.4c-0.1,0.1-0.2,0.2-0.2,0.3c0,0.2-0.1,0.2-0.2,0.2c0.3,0.3,0.4,0.5,0.5,0.5c-0.1,0.4-0.3,0.6-0.4,0.5
			c-0.1-0.1-0.2-0.1-0.3,0c0.2,0.2,0.3,0.4,0.3,0.4c-0.1,0-0.1,0.1-0.1,0.2c0-0.3-0.1-0.5-0.4-0.5c0.1,0.3,0.1,0.5-0.1,0.4
			c-0.2,0-0.3-0.1-0.3-0.1c0-0.2,0-0.3,0-0.4s-0.1-0.1-0.2-0.1c-0.2,0.4-0.4,0.7-0.5,0.8c-0.1,0.1-0.3,0.2-0.4,0.4
			c0.2,0,0.3,0,0.5,0c0.2,0,0.3,0,0.4,0c-0.2,0.1-0.3,0.2-0.5,0.2c-0.2,0-0.3,0.1-0.4,0.3c-0.3,0.1-0.4,0.2-0.5,0.2
			c0,0.1-0.1,0.1-0.1,0.2c0.3,0,0.5,0,0.7,0c0.1-0.3,0.2-0.5,0.4-0.5c0.2,0,0.4-0.1,0.6-0.3c0-0.2,0.1-0.3,0.2-0.4
			c0.1,0,0.2-0.1,0.1-0.2c0.2,0,0.4-0.1,0.6-0.1c0.2,0,0.4-0.1,0.5-0.2c0.1-0.5,0.3-0.7,0.4-0.7s0.2,0,0.3-0.2c-0.2-0.1-0.3,0-0.4,0
			c-0.1,0.1-0.2,0.1-0.3,0c0.1-0.2,0.2-0.3,0.3-0.2c0.1,0,0.2,0,0.3-0.1c0.3,0.1,0.5,0.2,0.4,0.1c0-0.1,0-0.1,0.1-0.1
			c0.3,0,0.6-0.1,0.8-0.4C45.8,112.7,45.9,112.3,45.9,111.9z M45.8,90c-0.2,0-0.4,0-0.5,0.1c-0.1,0.1-0.2,0.2-0.3,0.4
			c-0.3,0.1-0.6,0.3-0.8,0.5c-0.2,0.3-0.5,0.4-0.8,0.5c0,0.2-0.1,0.3-0.4,0.3c-0.4,0.4-0.9,0.8-1.3,1.2c-0.4,0.4-0.8,0.9-1.1,1.4
			c0.4-0.2,0.7-0.4,0.8-0.6c0.3,0.1,0.5,0,0.6-0.3s0.3-0.4,0.5-0.5c0.2-0.4,0.4-0.6,0.6-0.6s0.3-0.1,0.4-0.3
			c0.2-0.1,0.3-0.2,0.5-0.4c0.2-0.2,0.4-0.2,0.7-0.3c0.2-0.2,0.5-0.5,0.8-0.7S45.9,90.3,45.8,90z M41.4,103.3
			c-0.1,0.3-0.3,0.4-0.4,0.4s-0.2,0-0.3,0c0.1-0.1,0.2-0.1,0.2-0.2s0.1-0.2,0.2-0.3L41.4,103.3z M45.2,108.1
			c-0.2,0.1-0.3,0.2-0.3,0.1c-0.1,0-0.1,0-0.2,0.1c-0.3,0.1-0.4,0.1-0.5,0.1c-0.1,0-0.1,0.1,0,0.2c-0.3,0-0.5,0-0.5,0
			c-0.1,0.3-0.2,0.5-0.3,0.5c-0.1,0-0.1,0.1-0.1,0.2c-0.3,0.2-0.4,0.4-0.5,0.4c-0.1,0.1-0.2,0.1-0.3,0.1c-0.1,0-0.2,0.1-0.3,0.1
			c-0.1,0.1-0.1,0.2-0.1,0.3c-0.3,0.1-0.6,0.2-0.7,0.4c-0.1,0.2-0.2,0.4-0.4,0.5c-0.1,0.3-0.1,0.5-0.1,0.6c0.2-0.1,0.3-0.2,0.4-0.3
			c0.1-0.2,0.3-0.2,0.5-0.1c0.1-0.2,0.2-0.3,0.2-0.4c0-0.1,0.1-0.1,0.3,0.1c0-0.2,0-0.4,0.2-0.6c0.2-0.1,0.3-0.2,0.5-0.1
			c0.2-0.4,0.4-0.6,0.5-0.7c0.3-0.3,0.5-0.5,0.6-0.5c0.1-0.2,0.2-0.3,0.3-0.3c0.1,0,0.2-0.1,0.1-0.3c0.1-0.1,0.2-0.1,0.3,0
			c0.1,0.1,0.2,0,0.2,0c-0.1-0.2-0.1-0.3,0-0.3C45.1,108.4,45.2,108.3,45.2,108.1z M42.9,112.5c-0.3,0-0.6,0.2-0.8,0.4
			c-0.2,0.3-0.4,0.4-0.7,0.5c-0.1,0.3-0.1,0.4-0.2,0.4s-0.1,0.1-0.3,0c0.2,0.1,0.4,0,0.5-0.1s0.3-0.2,0.4-0.2c0-0.2,0.1-0.3,0.2-0.4
			c0.1-0.1,0.2-0.2,0.4-0.2c0.1-0.1,0.2-0.1,0.3-0.2C42.8,112.7,42.9,112.6,42.9,112.5z M41.5,97.1c0.2-0.1,0.2-0.3,0.1-0.5
			c-0.2-0.2-0.3-0.2-0.5,0c0.3,0.2,0.5,0.3,0.4,0.3C41.5,97,41.5,97,41.5,97.1z M41.9,112.4c-0.2,0-0.4,0.1-0.5,0.2
			c-0.1,0.1-0.2,0.2-0.3,0.3c0.4,0,0.6,0,0.6-0.1C41.7,112.6,41.8,112.5,41.9,112.4z M42.3,117.7c-0.3-0.2-0.4-0.3-0.5-0.4
			c0.2-0.2,0.4-0.4,0.6-0.5s0.1-0.2-0.2-0.1c0,0.2-0.1,0.3-0.2,0.3c-0.1,0.1-0.2,0.1-0.3,0.1c-0.1,0-0.3,0.1-0.4,0.1
			c-0.1,0-0.2,0.1-0.2,0.3c0.5-0.1,0.7,0,0.6,0.2c0.1,0,0.2,0,0.2-0.1C42,117.6,42.1,117.6,42.3,117.7z M42.1,99.3
			C42,99.1,42,99,41.9,98.9s0-0.2,0.1-0.3c-0.3,0.3-0.5,0.5-0.5,0.6c-0.1,0.1-0.1,0.1-0.2-0.1c0.3,0,0.5,0,0.6,0.1
			C41.9,99.3,42,99.3,42.1,99.3z M41.9,103c-0.2-0.1-0.3-0.2-0.4-0.1c-0.1,0.1-0.1,0.1-0.2,0.1c0-0.2,0-0.4,0.1-0.4
			c0.1,0,0.3,0,0.4,0L41.9,103z M42,107c0,0.2-0.1,0.2-0.2,0.3c-0.1,0-0.2,0.1-0.3,0.1C41.5,107.1,41.6,107,42,107z M42.7,112.1
			c0-0.2,0-0.3-0.1-0.3c-0.1-0.1-0.2-0.1-0.3-0.1c-0.1,0-0.2,0.1-0.3,0.1c-0.1,0.1-0.2,0.2-0.2,0.3c0.2,0.2,0.4,0.3,0.4,0.3
			s0.1-0.1,0.1-0.1c0,0,0-0.1,0.1-0.1C42.5,112.1,42.6,112.1,42.7,112.1z M42.5,116.1c-0.2-0.2-0.4-0.4-0.4-0.3s-0.1,0.1-0.3,0
			c0.2,0.1,0.3,0.2,0.4,0.3c0,0.1,0.1,0.1,0.2,0L42.5,116.1z M42.6,95.4c0.1,0.1,0,0.3-0.2,0.4c-0.2,0.2-0.3,0.2-0.4,0
			c0.1-0.1,0.2-0.1,0.3-0.2C42.4,95.6,42.5,95.5,42.6,95.4z M44,100.8c-0.2,0.2-0.3,0.3-0.3,0.4c0,0.1-0.1,0.1-0.1,0.1
			c-0.2-0.2-0.3-0.2-0.4,0c0,0.1-0.1,0.1-0.2,0c-0.1,0.1-0.2,0.2-0.1,0.3c0,0.2,0,0.3-0.2,0.3c-0.1,0-0.1,0-0.2,0.1
			c-0.1,0.1-0.1,0.2-0.2,0.3c0-0.2,0.1-0.5,0.3-0.8c0.2-0.3,0.5-0.4,0.8-0.5c0.3-0.2,0.5-0.3,0.5-0.3c0,0,0,0,0.1,0L44,100.8z
			 M42.7,97.8c-0.3-0.2-0.4-0.3-0.5-0.3L42.7,97.8z M42.7,106.4c-0.1-0.1-0.2-0.1-0.3,0c-0.1,0-0.2,0.1-0.3,0.1
			c0.2-0.2,0.4-0.3,0.4-0.3S42.7,106.2,42.7,106.4z M44.7,106.4c-0.1,0.1-0.2,0.2-0.3,0.2c-0.1,0-0.2,0.1-0.3,0.2
			c-0.1,0.2-0.1,0.4-0.1,0.5c-0.2-0.2-0.3-0.2-0.3,0s-0.1,0.2-0.2,0.3c-0.2,0-0.3,0-0.3-0.1c-0.1-0.1-0.1-0.1-0.2-0.2
			c0,0.3-0.1,0.4-0.2,0.4c-0.1,0-0.2,0-0.4,0c0-0.2,0-0.3,0.1-0.4c0.1-0.1,0.2-0.2,0.3-0.3c0.1,0.1,0.2,0.1,0.3,0.2
			c0.1,0.1,0.2,0.1,0.3,0.2c0.1-0.1,0.1-0.2,0.1-0.3c-0.1-0.1-0.1-0.2,0.1-0.3c0.1,0.1,0.2,0,0.3,0s0.2-0.2,0.3-0.3s0.2-0.2,0.3-0.2
			C44.5,106.2,44.6,106.2,44.7,106.4z M45.6,109.5c0-0.2,0-0.3-0.1-0.4c0-0.1-0.1-0.2-0.3-0.2c-0.3,0.3-0.4,0.4-0.4,0.4
			c0,0,0.1,0.1,0,0.1c-0.2,0-0.3,0-0.5,0c-0.2,0-0.2,0.1,0,0.3c-0.1,0.1-0.3,0.1-0.4,0.1c-0.1,0-0.2,0.1-0.2,0.3
			c-0.2,0.2-0.3,0.3-0.2,0.4s0,0.1-0.1,0.2c-0.1-0.2-0.2-0.3-0.3-0.3c-0.1,0-0.2,0-0.3-0.1c0,0.1,0.1,0.2,0.2,0.3
			c0.1,0.1,0.1,0.1,0.2,0.2c-0.3,0.1-0.4,0.1-0.6,0c-0.2,0.2-0.3,0.2-0.4,0.2c0,0,0,0-0.1,0.1c0.3,0.1,0.4,0.1,0.5,0.1
			c0,0,0.1-0.1,0.1-0.2c-0.1,0.3-0.1,0.5-0.1,0.5c0,0,0.1,0.1,0.1,0.1c0-0.2,0.1-0.3,0.3-0.4c0.1-0.1,0.3-0.1,0.4,0
			c0.2-0.2,0.4-0.4,0.5-0.4c0.1,0,0.1-0.1,0-0.3c0.1-0.1,0.2-0.1,0.3-0.1c0.1,0,0.2,0,0.3-0.1c0.1-0.2,0.2-0.4,0.2-0.5
			s0.1-0.2,0.3-0.1C45.3,109.7,45.4,109.6,45.6,109.5z M43.7,111.6c-0.3,0.1-0.4,0.2-0.6,0.2c-0.1,0-0.3,0.1-0.4,0.3
			c0.1-0.1,0.2-0.1,0.3,0s0.1,0.1,0.3,0.1c0.1-0.1,0.1-0.2,0.3-0.3C43.7,111.9,43.7,111.8,43.7,111.6z M43.4,118.1
			c-0.2-0.2-0.3-0.2-0.3-0.1c-0.1,0.1-0.2,0.1-0.3,0C43,118,43.2,118.1,43.4,118.1z M43.3,113.5c-0.1-0.2-0.1-0.2-0.3-0.1
			c-0.1,0.1-0.2,0.1-0.3,0.2c0.2-0.1,0.3-0.1,0.3-0.1C43.2,113.5,43.2,113.5,43.3,113.5z M43.3,116.4c-0.1-0.2-0.2-0.2-0.3-0.3
			c-0.1,0-0.1,0-0.2,0.1c0.1,0.3,0.2,0.4,0.4,0.5L43.3,116.4z M43.3,117.5c-0.2,0-0.3,0-0.4,0c-0.1,0-0.2,0-0.2,0.1
			C42.9,117.4,43.1,117.4,43.3,117.5z M44.4,94.2c-0.1,0.1-0.2,0.2-0.4,0.2c-0.1,0-0.2,0.1-0.3,0.3c-0.3,0.3-0.5,0.4-0.5,0.5
			c0,0.1-0.1,0.1-0.2,0.1c-0.2-0.3-0.1-0.5,0.3-0.6c0-0.1,0.1-0.1,0.1-0.1c0,0,0.1-0.1,0.1-0.1s0.1-0.1,0.2-0.1c0.1,0,0.1,0,0.2,0.1
			C44.1,94.2,44.2,94.1,44.4,94.2z M43.3,101.6c-0.1,0.1-0.1,0.1-0.2,0.2c0,0.1-0.1,0.1-0.2,0.2c0-0.1,0.1-0.2,0.1-0.3
			S43.2,101.5,43.3,101.6z M43.4,100.2c-0.2-0.2-0.3-0.4-0.4-0.4c-0.1,0-0.1,0-0.1,0c0.2,0.1,0.3,0.2,0.3,0.3
			C43.3,100.2,43.3,100.2,43.4,100.2z M43.5,98.6c-0.1,0-0.2,0.1-0.2,0.2c0,0.1-0.1,0.1-0.3,0.1c0.1-0.2,0.1-0.3,0.3-0.3
			c0.1,0,0.2-0.1,0.2-0.2L43.5,98.6z M43.7,118.6c0-0.2,0-0.3,0-0.3c0.1,0,0-0.1,0-0.2c-0.1,0.2-0.1,0.2-0.2,0.2
			c-0.1,0-0.2,0-0.3,0.1c0,0.1,0.1,0.2,0.2,0.2S43.7,118.7,43.7,118.6z M44.9,115.7c0.1-0.1,0-0.2-0.1-0.3c-0.1-0.1-0.3-0.1-0.4-0.2
			c-0.2,0.1-0.4,0.2-0.6,0.3c-0.2,0.1-0.4,0.2-0.6,0.3c0,0.2,0.1,0.3,0.1,0.3c0,0,0.1,0.1,0.1,0.3c0.2-0.4,0.3-0.6,0.4-0.7
			c0.1-0.1,0.3-0.1,0.4,0c0.3-0.1,0.5-0.1,0.4,0C44.7,115.7,44.7,115.7,44.9,115.7z M43.9,106c0,0.3-0.1,0.4-0.2,0.5
			c0-0.2,0-0.3,0-0.3s0-0.1-0.1-0.2H43.9z M46.1,118.6c-0.3-0.2-0.4-0.4-0.6-0.6c-0.1-0.2-0.1-0.4,0.1-0.5c-0.2-0.1-0.2-0.2-0.2-0.4
			c0-0.2,0-0.4,0-0.5c-0.2,0-0.4,0.1-0.5,0.1s-0.2,0-0.2-0.1c0.1-0.3,0.1-0.5,0.2-0.5c0-0.1,0-0.1-0.1,0c-0.1,0.3-0.1,0.6,0,0.7
			c-0.2,0.1-0.3,0-0.3-0.1c0-0.1-0.1-0.1-0.3,0c0.1,0.1,0.2,0.1,0.3,0.1c0.1,0,0.1,0.1,0.2,0.2c-0.1,0.1-0.3,0-0.4-0.1
			c-0.2-0.1-0.3-0.1-0.5,0c0.1,0.4,0.1,0.6,0,0.7c0,0.1-0.1,0.1-0.1,0.2c0.2,0,0.4,0.1,0.4,0.1c0,0,0.1,0.1,0.1,0.2
			c0.3-0.2,0.5-0.2,0.6-0.3c0.1,0,0.3-0.1,0.4-0.1c-0.3,0.2-0.4,0.3-0.4,0.4c0,0-0.1,0.1-0.1,0.1c0,0-0.1,0.1-0.1,0.1
			c0,0-0.1,0-0.2,0c0.1,0.2,0.1,0.3,0,0.3c0,0.1-0.1,0.2-0.1,0.3c0.1,0,0.2,0,0.4,0c0.2,0,0.3-0.1,0.5-0.1c0.2,0,0.3,0,0.4,0
			s0.1,0.1,0.1,0.3c0.2-0.1,0.4-0.1,0.4-0.1C46.1,118.7,46.1,118.7,46.1,118.6z M44.3,105.5c-0.2,0-0.3-0.1-0.4-0.1
			c-0.1,0-0.1,0-0.2,0c0.2,0.1,0.2,0.1,0.3,0.1C44,105.6,44.1,105.5,44.3,105.5z M44.1,111.9c-0.1-0.1-0.1-0.1-0.1-0.2
			c0-0.1-0.1-0.1-0.2-0.1C43.9,111.7,44,111.9,44.1,111.9z M44.8,93.8c-0.1,0.2-0.2,0.2-0.4,0.2s-0.4-0.1-0.5-0.2
			c0.2-0.2,0.3-0.2,0.5-0.1C44.5,93.8,44.6,93.8,44.8,93.8z M44.9,112.9c0,0.1,0,0.2-0.1,0.2c-0.1,0-0.1,0-0.2,0c0,0-0.1,0-0.2,0
			c-0.1,0-0.1,0-0.1,0.1c-0.1-0.1-0.2-0.2-0.3-0.1s-0.2,0-0.2-0.2c0.4,0.1,0.6,0.1,0.7,0S44.8,112.9,44.9,112.9z M45.4,97.4
			c-0.2,0.1-0.3,0.1-0.3,0.1c-0.1,0-0.2,0-0.3-0.1c-0.1,0.1-0.2,0.2-0.4,0.1c-0.2,0-0.3,0.1-0.3,0.3c0.2,0.1,0.3,0,0.5-0.1
			c0.1-0.1,0.3-0.2,0.4-0.2L45.4,97.4z M44.8,104.9c-0.4-0.1-0.7-0.1-0.8,0.2c0.1-0.3,0.2-0.5,0.3-0.5s0.2,0,0.2-0.1L44.8,104.9z
			 M44.5,100.1c0-0.1-0.1-0.2-0.2-0.3c-0.1-0.1-0.1-0.2,0-0.3c-0.2,0.3-0.2,0.5-0.1,0.5C44.3,99.9,44.4,100,44.5,100.1z M45.1,117.2
			c-0.2,0.3-0.5,0.4-0.9,0.4c0-0.2,0-0.3,0-0.3c0-0.1,0-0.1,0-0.2c0.4-0.1,0.6-0.1,0.6,0C44.9,117.2,45,117.2,45.1,117.2z
			 M45.3,96.4c-0.2,0.1-0.3,0.1-0.4,0.2s-0.3,0.2-0.4,0.2c0.2,0.1,0.4,0.1,0.4,0.1c0.1,0,0.2-0.1,0.3-0.1L45.3,96.4z M45.4,94.4
			c-0.1,0.2-0.2,0.2-0.4,0.2c-0.2,0-0.3,0.1-0.3,0.4c-0.2-0.2-0.2-0.3,0.1-0.5C45,94.3,45.2,94.3,45.4,94.4z M45.2,93.5
			c-0.1,0.1-0.2,0.2-0.3,0.1c-0.1,0-0.3-0.1-0.4-0.1c0.1-0.2,0.2-0.2,0.4-0.2C45,93.4,45.2,93.4,45.2,93.5z M45.6,99.1
			c0-0.2,0-0.3,0-0.4c0-0.1,0-0.2,0-0.4c-0.2,0.2-0.4,0.3-0.6,0.4c-0.2,0-0.4,0.1-0.5,0.3c0.2-0.1,0.4-0.1,0.6-0.2
			c0.2-0.1,0.3-0.1,0.3,0.1L45.6,99.1z M45.2,114.7c-0.1,0.1-0.2,0.2-0.3,0.2c-0.1,0-0.2,0-0.3,0.2c0.1,0.2,0.3,0.2,0.5,0
			C45.3,114.8,45.3,114.7,45.2,114.7z M45.2,102.3c-0.3,0-0.5,0.1-0.5,0.3C45,102.6,45.2,102.5,45.2,102.3z M45.8,110.4
			c0-0.1-0.1-0.2-0.1-0.3c0-0.1-0.1-0.2-0.3-0.3c-0.1,0-0.2,0.1-0.3,0.1s-0.2,0-0.3,0c0.1,0.2,0.2,0.3,0.2,0.4c0,0,0.1,0.1,0.3,0.1
			H45.8z M45.6,112.3l-0.7,0.2c0.2-0.2,0.4-0.3,0.4-0.2c0,0,0.1,0,0.1,0H45.6z M45.6,87.2c-0.2,0.2-0.4,0.3-0.5,0.5
			c-0.1,0.2-0.1,0.3,0,0.5c0.1-0.2,0.2-0.3,0.4-0.4C45.5,87.6,45.6,87.4,45.6,87.2z M51.2,109.2c-0.3-0.2-0.5-0.2-0.6-0.3
			c-0.1,0-0.1,0-0.2,0c-0.2,0.1-0.4,0.1-0.6,0.2c-0.2,0-0.4,0-0.6,0c-0.2,0-0.4,0-0.6,0c-0.2,0-0.4,0.1-0.5,0.2
			c0.5,0.1,1,0.2,1.5,0.1C50.2,109.4,50.7,109.3,51.2,109.2z"/>
	</g>
	<g>
		<path d="M187,66.7c-4.6,0-8.3,3.7-8.3,8.3c0,1.5,0.4,3,1.2,4.2l-22,22c-1.2-0.7-2.7-1.2-4.2-1.2c-1.5,0-3,0.4-4.2,1.2l-9.5-9.5
			c0.7-1.2,1.2-2.7,1.2-4.2c0-4.6-3.7-8.3-8.3-8.3c-4.6,0-8.3,3.7-8.3,8.3c0,1,0.2,1.9,0.5,2.8l-40.9,40.9c-1.5-1.3-3.3-2.1-5.4-2.1
			V56.2c0-3.4,2.8-6.2,6.2-6.2h95.8c3.4,0,6.3,2.8,6.3,6.2v4.2c0,1.1,0.9,2.1,2.1,2.1c1.1,0,2.1-0.9,2.1-2.1v-4.2
			c0-5.7-4.7-10.4-10.4-10.4H84.9c-5.7,0-10.4,4.7-10.4,10.4v74.1c-2.5,1.4-4.2,4.1-4.2,7.2c0,4.6,3.7,8.3,8.3,8.3
			c4.6,0,8.3-3.7,8.3-8.3c0-1-0.2-1.9-0.5-2.8l40.9-40.9c1.5,1.3,3.3,2.1,5.4,2.1c1.5,0,3-0.4,4.2-1.2l9.5,9.5
			c-0.7,1.2-1.2,2.7-1.2,4.2c0,4.6,3.7,8.3,8.3,8.3c4.6,0,8.3-3.7,8.3-8.3c0-1.5-0.4-3-1.2-4.2l22-22c1.2,0.7,2.7,1.2,4.2,1.2v68.7
			c0,3.4-2.8,6.3-6.3,6.3h-6.2v-56.2c0-1.2-0.9-2.1-2.1-2.1c-1.2,0-2.1,0.9-2.1,2.1v56.2h-12.5v-35.4c0-1.1-0.9-2.1-2.1-2.1
			c-1.2,0-2.1,0.9-2.1,2.1v35.4h-12.5v-52.1c0-1.1-0.9-2.1-2.1-2.1c-1.2,0-2.1,0.9-2.1,2.1v52.1h-12.5v-52.1c0-1.1-0.9-2.1-2.1-2.1
			c-1.1,0-2.1,0.9-2.1,2.1v52.1h-12.5v-35.4c0-1.1-0.9-2.1-2.1-2.1c-1.1,0-2.1,0.9-2.1,2.1v35.4H91.2V150c0-1.2-0.9-2.1-2.1-2.1
			c-1.1,0-2.1,0.9-2.1,2.1v8.3h-2.1c-3.4,0-6.2-2.8-6.2-6.3c0-1.1-0.9-2.1-2.1-2.1c-1.2,0-2.1,0.9-2.1,2.1c0,5.7,4.7,10.4,10.4,10.4
			h95.8c5.7,0,10.4-4.7,10.4-10.4V82.2c2.5-1.4,4.2-4.1,4.2-7.2C195.3,70.4,191.6,66.7,187,66.7L187,66.7z M78.7,141.7
			c-2.3,0-4.2-1.9-4.2-4.2c0-2.3,1.9-4.2,4.2-4.2c2.3,0,4.2,1.9,4.2,4.2C82.8,139.8,81,141.7,78.7,141.7L78.7,141.7z M132.8,91.7
			c-2.3,0-4.2-1.9-4.2-4.2c0-2.3,1.9-4.2,4.2-4.2c2.3,0,4.2,1.9,4.2,4.2C137,89.8,135.1,91.7,132.8,91.7L132.8,91.7z M153.7,112.5
			c-2.3,0-4.2-1.9-4.2-4.2c0-2.3,1.9-4.2,4.2-4.2c2.3,0,4.2,1.9,4.2,4.2C157.8,110.6,156,112.5,153.7,112.5L153.7,112.5z M187,79.2
			c-1.1,0-2.2-0.5-2.9-1.2c0,0,0,0,0,0c0,0,0,0,0,0c-0.7-0.8-1.2-1.8-1.2-2.9c0-2.3,1.9-4.2,4.2-4.2s4.2,1.9,4.2,4.2
			C191.2,77.3,189.3,79.2,187,79.2L187,79.2z M187,79.2"/>
	</g>
</g>
</svg>
